ISO-10303-21;
HEADER;
FILE_DESCRIPTION( ( 'Unknown' ), '1' );
FILE_NAME( 'I:/User_Groups_Only/17_EMC_Product_&_Development/Article_Master/eiCan/Powerelements/PeSMBU/Master_Data/01_CAD_drawing/1_Drawing/7466204/Released_Data/7466204.stp', 'Unknown', ( 'Unknown' ), ( 'Unknown' ), 'PSStep 14.0', 'Unknown', '  ' );
FILE_SCHEMA( ( 'AUTOMOTIVE_DESIGN { 1 0 10303 214 1 1 1 1 }' ) );
ENDSEC;
DATA;
#1 = MECHANICAL_DESIGN_GEOMETRIC_PRESENTATION_REPRESENTATION( ' ', ( #10, #11, #12, #13, #14, #15, #16, #17, #18, #19 ), #6 );
#2 = PRODUCT_DEFINITION_CONTEXT( '', #20, 'design' );
#3 = APPLICATION_PROTOCOL_DEFINITION( 'international standard', 'automotive_design', 2001, #20 );
#4 = PRODUCT_CATEGORY_RELATIONSHIP( 'NONE', 'NONE', #21, #22 );
#5 = SHAPE_DEFINITION_REPRESENTATION( #23, #24 );
#6 =  ( GEOMETRIC_REPRESENTATION_CONTEXT( 3 )GLOBAL_UNCERTAINTY_ASSIGNED_CONTEXT( ( #27 ) )GLOBAL_UNIT_ASSIGNED_CONTEXT( ( #29, #30, #31 ) )REPRESENTATION_CONTEXT( 'NONE', 'WORKSPACE' ) );
#10 = STYLED_ITEM( '', ( #33 ), #34 );
#11 = STYLED_ITEM( '', ( #35 ), #36 );
#12 = STYLED_ITEM( '', ( #37 ), #38 );
#13 = STYLED_ITEM( '', ( #39 ), #40 );
#14 = STYLED_ITEM( '', ( #41 ), #42 );
#15 = STYLED_ITEM( '', ( #43 ), #44 );
#16 = STYLED_ITEM( '', ( #45 ), #46 );
#17 = STYLED_ITEM( '', ( #47 ), #48 );
#18 = STYLED_ITEM( '', ( #49 ), #50 );
#19 = STYLED_ITEM( '', ( #51 ), #52 );
#20 = APPLICATION_CONTEXT( 'core data for automotive mechanical design processes' );
#21 = PRODUCT_CATEGORY( 'part', 'NONE' );
#22 = PRODUCT_RELATED_PRODUCT_CATEGORY( 'detail', ' ', ( #53 ) );
#23 = PRODUCT_DEFINITION_SHAPE( 'NONE', 'NONE', #54 );
#24 = ADVANCED_BREP_SHAPE_REPRESENTATION( '1', ( #55, #56 ), #6 );
#27 = UNCERTAINTY_MEASURE_WITH_UNIT( LENGTH_MEASURE( 0.00100000000000000 ), #29, '', '' );
#29 =  ( CONVERSION_BASED_UNIT( 'MILLIMETRE', #59 )LENGTH_UNIT(  )NAMED_UNIT( #62 ) );
#30 =  ( NAMED_UNIT( #64 )PLANE_ANGLE_UNIT(  )SI_UNIT( $, .RADIAN. ) );
#31 =  ( NAMED_UNIT( #64 )SI_UNIT( $, .STERADIAN. )SOLID_ANGLE_UNIT(  ) );
#33 = PRESENTATION_STYLE_ASSIGNMENT( ( #70 ) );
#34 = ADVANCED_FACE( '', ( #71 ), #72, .F. );
#35 = PRESENTATION_STYLE_ASSIGNMENT( ( #73 ) );
#36 = ADVANCED_FACE( '', ( #74, #75 ), #76, .F. );
#37 = PRESENTATION_STYLE_ASSIGNMENT( ( #77 ) );
#38 = ADVANCED_FACE( '', ( #78 ), #79, .T. );
#39 = PRESENTATION_STYLE_ASSIGNMENT( ( #80 ) );
#40 = ADVANCED_FACE( '', ( #81 ), #82, .F. );
#41 = PRESENTATION_STYLE_ASSIGNMENT( ( #83 ) );
#42 = ADVANCED_FACE( '', ( #84, #85 ), #86, .F. );
#43 = PRESENTATION_STYLE_ASSIGNMENT( ( #87 ) );
#44 = ADVANCED_FACE( '', ( #88, #89 ), #90, .T. );
#45 = PRESENTATION_STYLE_ASSIGNMENT( ( #91 ) );
#46 = ADVANCED_FACE( '', ( #92 ), #93, .F. );
#47 = PRESENTATION_STYLE_ASSIGNMENT( ( #94 ) );
#48 = ADVANCED_FACE( '', ( #95 ), #96, .T. );
#49 = PRESENTATION_STYLE_ASSIGNMENT( ( #97 ) );
#50 = ADVANCED_FACE( '', ( #98 ), #99, .F. );
#51 = PRESENTATION_STYLE_ASSIGNMENT( ( #100 ) );
#52 = ADVANCED_FACE( '', ( #101, #102 ), #103, .F. );
#53 = PRODUCT( '1', '1', 'PART-1-DESC', ( #104 ) );
#54 = PRODUCT_DEFINITION( 'NONE', 'NONE', #105, #2 );
#55 = MANIFOLD_SOLID_BREP( '1', #106 );
#56 = AXIS2_PLACEMENT_3D( '', #107, #108, #109 );
#59 = LENGTH_MEASURE_WITH_UNIT( LENGTH_MEASURE( 1.00000000000000 ), #110 );
#62 = DIMENSIONAL_EXPONENTS( 1.00000000000000, 0.000000000000000, 0.000000000000000, 0.000000000000000, 0.000000000000000, 0.000000000000000, 0.000000000000000 );
#64 = DIMENSIONAL_EXPONENTS( 0.000000000000000, 0.000000000000000, 0.000000000000000, 0.000000000000000, 0.000000000000000, 0.000000000000000, 0.000000000000000 );
#70 = SURFACE_STYLE_USAGE( .BOTH., #111 );
#71 = FACE_OUTER_BOUND( '', #112, .T. );
#72 = CONICAL_SURFACE( '', #113, 2.00000000000000, 0.785398163397436 );
#73 = SURFACE_STYLE_USAGE( .BOTH., #114 );
#74 = FACE_OUTER_BOUND( '', #115, .T. );
#75 = FACE_BOUND( '', #116, .T. );
#76 = PLANE( '', #117 );
#77 = SURFACE_STYLE_USAGE( .BOTH., #118 );
#78 = FACE_OUTER_BOUND( '', #119, .T. );
#79 = PLANE( '', #120 );
#80 = SURFACE_STYLE_USAGE( .BOTH., #121 );
#81 = FACE_OUTER_BOUND( '', #122, .T. );
#82 = ( BOUNDED_SURFACE(  )B_SPLINE_SURFACE( 1, 2, ( ( #125, #126, #127, #128, #129, #130, #131, #132, #133, #134, #135, #136, #137, #138, #139, #140, #141, #142, #143, #144, #145, #146, #147, #148, #149, #150, #151, #152, #153, #154, #155, #156, #157, #158, #159, #160, #161, #162, #163, #164, #165, #166, #167, #168, #169, #170, #171, #172, #173, #174, #175, #176, #177, #178, #179, #180, #181, #182, #183, #184, #185, #186, #187, #188, #189, #190, #191, #192, #193, #194, #195, #196, #197 ), ( #198, #199, #200, #201, #202, #203, #204, #205, #206, #207, #208, #209, #210, #211, #212, #213, #214, #215, #216, #217, #218, #219, #220, #221, #222, #223, #224, #225, #226, #227, #228, #229, #230, #231, #232, #233, #234, #235, #236, #237, #238, #239, #240, #241, #242, #243, #244, #245, #246, #247, #248, #249, #250, #251, #252, #253, #254, #255, #256, #257, #258, #259, #260, #261, #262, #263, #264, #265, #266, #267, #268, #269, #270 ) ), .UNSPECIFIED., .F., .F., .F. )B_SPLINE_SURFACE_WITH_KNOTS( ( 2, 2 ), ( 3, 2, 2, 2, 2, 2, 2, 2, 2, 2, 2, 2, 2, 2, 2, 2, 2, 2, 2, 2, 2, 2, 2, 2, 2, 2, 2, 2, 2, 2, 2, 2, 2, 2, 2, 2, 3 ), ( 0.000000000000000, 1.00000000000000 ), ( 0.000000000000000, 0.0277777777777778, 0.0555555555555556, 0.0833333333333333, 0.111111111111111, 0.138888888888889, 0.166666666666667, 0.194444444444445, 0.222222222222222, 0.250000000000000, 0.277777777777778, 0.305555555555555, 0.333333333333334, 0.361111111111111, 0.388888888888889, 0.416666666666667, 0.444444444444444, 0.472222222222222, 0.500000000000000, 0.527777777777778, 0.555555555555556, 0.583333333333333, 0.611111111111111, 0.638888888888889, 0.666666666666667, 0.694444444444444, 0.722222222222222, 0.750000000000000, 0.777777777777778, 0.805555555555556, 0.833333333333333, 0.861111111111111, 0.888888888888889, 0.916666666666667, 0.944444444444444, 0.972222222222222, 1.00000000000000 ), .UNSPECIFIED. )GEOMETRIC_REPRESENTATION_ITEM(  )RATIONAL_B_SPLINE_SURFACE( ( ( 1.00000000000000, 0.866025403784439, 1.00000000000000, 0.866025403784439, 1.00000000000000, 0.866025403784439, 1.00000000000000, 0.866025403784439, 1.00000000000000, 0.866025403784439, 1.00000000000000, 0.866025403784439, 1.00000000000000, 0.866025403784439, 1.00000000000000, 0.866025403784439, 1.00000000000000, 0.866025403784439, 1.00000000000000, 0.866025403784439, 1.00000000000000, 0.866025403784439, 1.00000000000000, 0.866025403784439, 1.00000000000000, 0.866025403784439, 1.00000000000000, 0.866025403784439, 1.00000000000000, 0.866025403784439, 1.00000000000000, 0.866025403784439, 1.00000000000000, 0.866025403784439, 1.00000000000000, 0.866025403784439, 1.00000000000000, 0.866025403784439, 1.00000000000000, 0.866025403784439, 1.00000000000000, 0.866025403784439, 1.00000000000000, 0.866025403784439, 1.00000000000000, 0.866025403784439, 1.00000000000000, 0.866025403784439, 1.00000000000000, 0.866025403784439, 1.00000000000000, 0.866025403784439, 1.00000000000000, 0.866025403784439, 1.00000000000000, 0.866025403784439, 1.00000000000000, 0.866025403784439, 1.00000000000000, 0.866025403784439, 1.00000000000000, 0.866025403784439, 1.00000000000000, 0.866025403784439, 1.00000000000000, 0.866025403784439, 1.00000000000000, 0.866025403784439, 1.00000000000000, 0.866025403784439, 1.00000000000000, 0.866025403784439, 1.00000000000000 ), ( 1.00000000000000, 0.866025403784439, 1.00000000000000, 0.866025403784439, 1.00000000000000, 0.866025403784439, 1.00000000000000, 0.866025403784439, 1.00000000000000, 0.866025403784439, 1.00000000000000, 0.866025403784439, 1.00000000000000, 0.866025403784439, 1.00000000000000, 0.866025403784439, 1.00000000000000, 0.866025403784439, 1.00000000000000, 0.866025403784439, 1.00000000000000, 0.866025403784439, 1.00000000000000, 0.866025403784439, 1.00000000000000, 0.866025403784439, 1.00000000000000, 0.866025403784439, 1.00000000000000, 0.866025403784439, 1.00000000000000, 0.866025403784439, 1.00000000000000, 0.866025403784439, 1.00000000000000, 0.866025403784439, 1.00000000000000, 0.866025403784439, 1.00000000000000, 0.866025403784439, 1.00000000000000, 0.866025403784439, 1.00000000000000, 0.866025403784439, 1.00000000000000, 0.866025403784439, 1.00000000000000, 0.866025403784439, 1.00000000000000, 0.866025403784439, 1.00000000000000, 0.866025403784439, 1.00000000000000, 0.866025403784439, 1.00000000000000, 0.866025403784439, 1.00000000000000, 0.866025403784439, 1.00000000000000, 0.866025403784439, 1.00000000000000, 0.866025403784439, 1.00000000000000, 0.866025403784439, 1.00000000000000, 0.866025403784439, 1.00000000000000, 0.866025403784439, 1.00000000000000, 0.866025403784439, 1.00000000000000, 0.866025403784439, 1.00000000000000 ) ) )REPRESENTATION_ITEM( '' )SURFACE(  ) );
#83 = SURFACE_STYLE_USAGE( .BOTH., #276 );
#84 = FACE_OUTER_BOUND( '', #277, .T. );
#85 = FACE_OUTER_BOUND( '', #278, .T. );
#86 = CYLINDRICAL_SURFACE( '', #279, 1.62000000000000 );
#87 = SURFACE_STYLE_USAGE( .BOTH., #280 );
#88 = FACE_OUTER_BOUND( '', #281, .T. );
#89 = FACE_OUTER_BOUND( '', #282, .T. );
#90 = CYLINDRICAL_SURFACE( '', #283, 3.50000000000000 );
#91 = SURFACE_STYLE_USAGE( .BOTH., #284 );
#92 = FACE_OUTER_BOUND( '', #285, .T. );
#93 = PLANE( '', #286 );
#94 = SURFACE_STYLE_USAGE( .BOTH., #287 );
#95 = FACE_OUTER_BOUND( '', #288, .T. );
#96 = PLANE( '', #289 );
#97 = SURFACE_STYLE_USAGE( .BOTH., #290 );
#98 = FACE_OUTER_BOUND( '', #291, .T. );
#99 = ( BOUNDED_SURFACE(  )B_SPLINE_SURFACE( 1, 2, ( ( #294, #295, #296, #297, #298, #299, #300, #301, #302, #303, #304, #305, #306, #307, #308, #309, #310, #311, #312, #313, #314, #315, #316, #317, #318, #319, #320, #321, #322, #323, #324, #325, #326, #327, #328, #329, #330, #331, #332, #333, #334, #335, #336, #337, #338, #339, #340, #341, #342, #343, #344, #345, #346, #347, #348, #349, #350, #351, #352, #353, #354, #355, #356, #357, #358, #359, #360, #361, #362, #363, #364, #365, #366 ), ( #367, #368, #369, #370, #371, #372, #373, #374, #375, #376, #377, #378, #379, #380, #381, #382, #383, #384, #385, #386, #387, #388, #389, #390, #391, #392, #393, #394, #395, #396, #397, #398, #399, #400, #401, #402, #403, #404, #405, #406, #407, #408, #409, #410, #411, #412, #413, #414, #415, #416, #417, #418, #419, #420, #421, #422, #423, #424, #425, #426, #427, #428, #429, #430, #431, #432, #433, #434, #435, #436, #437, #438, #439 ) ), .UNSPECIFIED., .F., .F., .F. )B_SPLINE_SURFACE_WITH_KNOTS( ( 2, 2 ), ( 3, 2, 2, 2, 2, 2, 2, 2, 2, 2, 2, 2, 2, 2, 2, 2, 2, 2, 2, 2, 2, 2, 2, 2, 2, 2, 2, 2, 2, 2, 2, 2, 2, 2, 2, 2, 3 ), ( 0.000000000000000, 1.00000000000000 ), ( 0.000000000000000, 0.0277777777777778, 0.0555555555555556, 0.0833333333333333, 0.111111111111111, 0.138888888888889, 0.166666666666667, 0.194444444444445, 0.222222222222222, 0.250000000000000, 0.277777777777778, 0.305555555555555, 0.333333333333334, 0.361111111111111, 0.388888888888889, 0.416666666666667, 0.444444444444444, 0.472222222222222, 0.500000000000000, 0.527777777777778, 0.555555555555556, 0.583333333333333, 0.611111111111111, 0.638888888888889, 0.666666666666667, 0.694444444444444, 0.722222222222222, 0.750000000000000, 0.777777777777778, 0.805555555555556, 0.833333333333333, 0.861111111111111, 0.888888888888889, 0.916666666666667, 0.944444444444444, 0.972222222222222, 1.00000000000000 ), .UNSPECIFIED. )GEOMETRIC_REPRESENTATION_ITEM(  )RATIONAL_B_SPLINE_SURFACE( ( ( 1.00000000000000, 0.866025403784439, 1.00000000000000, 0.866025403784439, 1.00000000000000, 0.866025403784439, 1.00000000000000, 0.866025403784439, 1.00000000000000, 0.866025403784439, 1.00000000000000, 0.866025403784439, 1.00000000000000, 0.866025403784439, 1.00000000000000, 0.866025403784439, 1.00000000000000, 0.866025403784439, 1.00000000000000, 0.866025403784439, 1.00000000000000, 0.866025403784439, 1.00000000000000, 0.866025403784439, 1.00000000000000, 0.866025403784439, 1.00000000000000, 0.866025403784439, 1.00000000000000, 0.866025403784439, 1.00000000000000, 0.866025403784439, 1.00000000000000, 0.866025403784439, 1.00000000000000, 0.866025403784439, 1.00000000000000, 0.866025403784439, 1.00000000000000, 0.866025403784439, 1.00000000000000, 0.866025403784439, 1.00000000000000, 0.866025403784439, 1.00000000000000, 0.866025403784439, 1.00000000000000, 0.866025403784439, 1.00000000000000, 0.866025403784439, 1.00000000000000, 0.866025403784439, 1.00000000000000, 0.866025403784439, 1.00000000000000, 0.866025403784439, 1.00000000000000, 0.866025403784439, 1.00000000000000, 0.866025403784439, 1.00000000000000, 0.866025403784439, 1.00000000000000, 0.866025403784439, 1.00000000000000, 0.866025403784439, 1.00000000000000, 0.866025403784439, 1.00000000000000, 0.866025403784439, 1.00000000000000, 0.866025403784439, 1.00000000000000 ), ( 1.00000000000000, 0.866025403784439, 1.00000000000000, 0.866025403784439, 1.00000000000000, 0.866025403784439, 1.00000000000000, 0.866025403784439, 1.00000000000000, 0.866025403784439, 1.00000000000000, 0.866025403784439, 1.00000000000000, 0.866025403784439, 1.00000000000000, 0.866025403784439, 1.00000000000000, 0.866025403784439, 1.00000000000000, 0.866025403784439, 1.00000000000000, 0.866025403784439, 1.00000000000000, 0.866025403784439, 1.00000000000000, 0.866025403784439, 1.00000000000000, 0.866025403784439, 1.00000000000000, 0.866025403784439, 1.00000000000000, 0.866025403784439, 1.00000000000000, 0.866025403784439, 1.00000000000000, 0.866025403784439, 1.00000000000000, 0.866025403784439, 1.00000000000000, 0.866025403784439, 1.00000000000000, 0.866025403784439, 1.00000000000000, 0.866025403784439, 1.00000000000000, 0.866025403784439, 1.00000000000000, 0.866025403784439, 1.00000000000000, 0.866025403784439, 1.00000000000000, 0.866025403784439, 1.00000000000000, 0.866025403784439, 1.00000000000000, 0.866025403784439, 1.00000000000000, 0.866025403784439, 1.00000000000000, 0.866025403784439, 1.00000000000000, 0.866025403784439, 1.00000000000000, 0.866025403784439, 1.00000000000000, 0.866025403784439, 1.00000000000000, 0.866025403784439, 1.00000000000000, 0.866025403784439, 1.00000000000000, 0.866025403784439, 1.00000000000000 ) ) )REPRESENTATION_ITEM( '' )SURFACE(  ) );
#100 = SURFACE_STYLE_USAGE( .BOTH., #445 );
#101 = FACE_OUTER_BOUND( '', #446, .T. );
#102 = FACE_BOUND( '', #447, .T. );
#103 = CONICAL_SURFACE( '', #448, 1.62000000000000, 1.02974425867665 );
#104 = PRODUCT_CONTEXT( '', #20, 'mechanical' );
#105 = PRODUCT_DEFINITION_FORMATION_WITH_SPECIFIED_SOURCE( ' ', 'NONE', #53, .NOT_KNOWN. );
#106 = CLOSED_SHELL( '', ( #36, #46, #34, #48, #40, #52, #50, #38, #42, #44 ) );
#107 = CARTESIAN_POINT( '', ( 0.000000000000000, 0.000000000000000, 0.000000000000000 ) );
#108 = DIRECTION( '', ( 0.000000000000000, 0.000000000000000, 1.00000000000000 ) );
#109 = DIRECTION( '', ( 1.00000000000000, 0.000000000000000, 0.000000000000000 ) );
#110 =  ( LENGTH_UNIT(  )NAMED_UNIT( #62 )SI_UNIT( .MILLI., .METRE. ) );
#111 = SURFACE_SIDE_STYLE( '', ( #450 ) );
#112 = EDGE_LOOP( '', ( #451, #452, #453, #454 ) );
#113 = AXIS2_PLACEMENT_3D( '', #455, #456, #457 );
#114 = SURFACE_SIDE_STYLE( '', ( #458 ) );
#115 = EDGE_LOOP( '', ( #459 ) );
#116 = EDGE_LOOP( '', ( #460 ) );
#117 = AXIS2_PLACEMENT_3D( '', #461, #462, #463 );
#118 = SURFACE_SIDE_STYLE( '', ( #464 ) );
#119 = EDGE_LOOP( '', ( #465, #466, #467 ) );
#120 = AXIS2_PLACEMENT_3D( '', #468, #469, #470 );
#121 = SURFACE_SIDE_STYLE( '', ( #471 ) );
#122 = EDGE_LOOP( '', ( #472, #473, #474, #475, #476 ) );
#125 = CARTESIAN_POINT( '', ( 7.30599564267050, 2.00000000000000, 0.000000000000000 ) );
#126 = CARTESIAN_POINT( '', ( 7.24766230933717, 1.99999999999999, -1.15470053837925 ) );
#127 = CARTESIAN_POINT( '', ( 7.18932897600384, 1.00000000000000, -1.73205080756887 ) );
#128 = CARTESIAN_POINT( '', ( 7.13099564267051, 1.41410031829987E-016, -2.30940107675850 ) );
#129 = CARTESIAN_POINT( '', ( 7.07266230933717, -1.00000000000000, -1.73205080756887 ) );
#130 = CARTESIAN_POINT( '', ( 7.01432897600383, -1.99999999999999, -1.15470053837925 ) );
#131 = CARTESIAN_POINT( '', ( 6.95599564267050, -2.00000000000000, -2.44929359829470E-016 ) );
#132 = CARTESIAN_POINT( '', ( 6.89766230933717, -2.00000000000000, 1.15470053837925 ) );
#133 = CARTESIAN_POINT( '', ( 6.83932897600384, -1.00000000000000, 1.73205080756887 ) );
#134 = CARTESIAN_POINT( '', ( 6.78099564267050, -4.24230095489962E-016, 2.30940107675850 ) );
#135 = CARTESIAN_POINT( '', ( 6.72266230933717, 1.00000000000000, 1.73205080756888 ) );
#136 = CARTESIAN_POINT( '', ( 6.66432897600384, 1.99999999999999, 1.15470053837925 ) );
#137 = CARTESIAN_POINT( '', ( 6.60599564267050, 2.00000000000000, 0.000000000000000 ) );
#138 = CARTESIAN_POINT( '', ( 6.54766230933716, 1.99999999999999, -1.15470053837925 ) );
#139 = CARTESIAN_POINT( '', ( 6.48932897600384, 1.00000000000000, -1.73205080756887 ) );
#140 = CARTESIAN_POINT( '', ( 6.43099564267050, 1.41410031829987E-016, -2.30940107675850 ) );
#141 = CARTESIAN_POINT( '', ( 6.37266230933717, -1.00000000000000, -1.73205080756887 ) );
#142 = CARTESIAN_POINT( '', ( 6.31432897600383, -1.99999999999999, -1.15470053837925 ) );
#143 = CARTESIAN_POINT( '', ( 6.25599564267050, -2.00000000000000, -2.44929359829470E-016 ) );
#144 = CARTESIAN_POINT( '', ( 6.19766230933717, -2.00000000000000, 1.15470053837925 ) );
#145 = CARTESIAN_POINT( '', ( 6.13932897600384, -1.00000000000000, 1.73205080756887 ) );
#146 = CARTESIAN_POINT( '', ( 6.08099564267050, -4.24230095489962E-016, 2.30940107675850 ) );
#147 = CARTESIAN_POINT( '', ( 6.02266230933717, 1.00000000000000, 1.73205080756888 ) );
#148 = CARTESIAN_POINT( '', ( 5.96432897600383, 1.99999999999999, 1.15470053837925 ) );
#149 = CARTESIAN_POINT( '', ( 5.90599564267050, 2.00000000000000, 0.000000000000000 ) );
#150 = CARTESIAN_POINT( '', ( 5.84766230933717, 1.99999999999999, -1.15470053837925 ) );
#151 = CARTESIAN_POINT( '', ( 5.78932897600384, 1.00000000000000, -1.73205080756887 ) );
#152 = CARTESIAN_POINT( '', ( 5.73099564267050, 1.41410031829987E-016, -2.30940107675850 ) );
#153 = CARTESIAN_POINT( '', ( 5.67266230933717, -1.00000000000000, -1.73205080756887 ) );
#154 = CARTESIAN_POINT( '', ( 5.61432897600384, -1.99999999999999, -1.15470053837925 ) );
#155 = CARTESIAN_POINT( '', ( 5.55599564267050, -2.00000000000000, -2.44929359829470E-016 ) );
#156 = CARTESIAN_POINT( '', ( 5.49766230933717, -2.00000000000000, 1.15470053837925 ) );
#157 = CARTESIAN_POINT( '', ( 5.43932897600384, -1.00000000000000, 1.73205080756887 ) );
#158 = CARTESIAN_POINT( '', ( 5.38099564267050, -4.24230095489962E-016, 2.30940107675850 ) );
#159 = CARTESIAN_POINT( '', ( 5.32266230933717, 1.00000000000000, 1.73205080756888 ) );
#160 = CARTESIAN_POINT( '', ( 5.26432897600383, 1.99999999999999, 1.15470053837925 ) );
#161 = CARTESIAN_POINT( '', ( 5.20599564267050, 2.00000000000000, 0.000000000000000 ) );
#162 = CARTESIAN_POINT( '', ( 5.14766230933717, 1.99999999999999, -1.15470053837925 ) );
#163 = CARTESIAN_POINT( '', ( 5.08932897600384, 1.00000000000000, -1.73205080756887 ) );
#164 = CARTESIAN_POINT( '', ( 5.03099564267050, 1.41410031829987E-016, -2.30940107675850 ) );
#165 = CARTESIAN_POINT( '', ( 4.97266230933717, -1.00000000000000, -1.73205080756887 ) );
#166 = CARTESIAN_POINT( '', ( 4.91432897600383, -1.99999999999999, -1.15470053837925 ) );
#167 = CARTESIAN_POINT( '', ( 4.85599564267050, -2.00000000000000, -2.44929359829470E-016 ) );
#168 = CARTESIAN_POINT( '', ( 4.79766230933717, -2.00000000000000, 1.15470053837925 ) );
#169 = CARTESIAN_POINT( '', ( 4.73932897600384, -1.00000000000000, 1.73205080756887 ) );
#170 = CARTESIAN_POINT( '', ( 4.68099564267050, -4.24230095489962E-016, 2.30940107675850 ) );
#171 = CARTESIAN_POINT( '', ( 4.62266230933717, 1.00000000000000, 1.73205080756888 ) );
#172 = CARTESIAN_POINT( '', ( 4.56432897600383, 1.99999999999999, 1.15470053837925 ) );
#173 = CARTESIAN_POINT( '', ( 4.50599564267050, 2.00000000000000, 0.000000000000000 ) );
#174 = CARTESIAN_POINT( '', ( 4.44766230933717, 1.99999999999999, -1.15470053837925 ) );
#175 = CARTESIAN_POINT( '', ( 4.38932897600384, 1.00000000000000, -1.73205080756887 ) );
#176 = CARTESIAN_POINT( '', ( 4.33099564267050, 1.41410031829987E-016, -2.30940107675850 ) );
#177 = CARTESIAN_POINT( '', ( 4.27266230933717, -1.00000000000000, -1.73205080756887 ) );
#178 = CARTESIAN_POINT( '', ( 4.21432897600383, -1.99999999999999, -1.15470053837925 ) );
#179 = CARTESIAN_POINT( '', ( 4.15599564267050, -2.00000000000000, -2.44929359829470E-016 ) );
#180 = CARTESIAN_POINT( '', ( 4.09766230933717, -2.00000000000000, 1.15470053837925 ) );
#181 = CARTESIAN_POINT( '', ( 4.03932897600383, -1.00000000000000, 1.73205080756887 ) );
#182 = CARTESIAN_POINT( '', ( 3.98099564267050, -4.24230095489962E-016, 2.30940107675850 ) );
#183 = CARTESIAN_POINT( '', ( 3.92266230933717, 1.00000000000000, 1.73205080756888 ) );
#184 = CARTESIAN_POINT( '', ( 3.86432897600384, 1.99999999999999, 1.15470053837925 ) );
#185 = CARTESIAN_POINT( '', ( 3.80599564267050, 2.00000000000000, 0.000000000000000 ) );
#186 = CARTESIAN_POINT( '', ( 3.74766230933717, 1.99999999999999, -1.15470053837925 ) );
#187 = CARTESIAN_POINT( '', ( 3.68932897600383, 1.00000000000000, -1.73205080756887 ) );
#188 = CARTESIAN_POINT( '', ( 3.63099564267050, 1.41410031829987E-016, -2.30940107675850 ) );
#189 = CARTESIAN_POINT( '', ( 3.57266230933717, -1.00000000000000, -1.73205080756887 ) );
#190 = CARTESIAN_POINT( '', ( 3.51432897600384, -1.99999999999999, -1.15470053837925 ) );
#191 = CARTESIAN_POINT( '', ( 3.45599564267050, -2.00000000000000, -2.44929359829470E-016 ) );
#192 = CARTESIAN_POINT( '', ( 3.39766230933717, -2.00000000000000, 1.15470053837925 ) );
#193 = CARTESIAN_POINT( '', ( 3.33932897600384, -1.00000000000000, 1.73205080756887 ) );
#194 = CARTESIAN_POINT( '', ( 3.28099564267050, -4.24230095489962E-016, 2.30940107675850 ) );
#195 = CARTESIAN_POINT( '', ( 3.22266230933717, 1.00000000000000, 1.73205080756888 ) );
#196 = CARTESIAN_POINT( '', ( 3.16432897600383, 1.99999999999999, 1.15470053837925 ) );
#197 = CARTESIAN_POINT( '', ( 3.10599564267050, 2.00000000000000, 0.000000000000000 ) );
#198 = CARTESIAN_POINT( '', ( 7.52538874496256, 1.62000000000000, 0.000000000000000 ) );
#199 = CARTESIAN_POINT( '', ( 7.46705541162923, 1.61999999999999, -0.935307436087193 ) );
#200 = CARTESIAN_POINT( '', ( 7.40872207829589, 0.810000000000000, -1.40296115413078 ) );
#201 = CARTESIAN_POINT( '', ( 7.35038874496256, 1.14542125782289E-016, -1.87061487217439 ) );
#202 = CARTESIAN_POINT( '', ( 7.29205541162923, -0.810000000000000, -1.40296115413078 ) );
#203 = CARTESIAN_POINT( '', ( 7.23372207829589, -1.61999999999999, -0.935307436087193 ) );
#204 = CARTESIAN_POINT( '', ( 7.17538874496256, -1.62000000000000, -1.98392781461871E-016 ) );
#205 = CARTESIAN_POINT( '', ( 7.11705541162923, -1.61999999999999, 0.935307436087193 ) );
#206 = CARTESIAN_POINT( '', ( 7.05872207829589, -0.810000000000000, 1.40296115413078 ) );
#207 = CARTESIAN_POINT( '', ( 7.00038874496256, -3.43626377346868E-016, 1.87061487217439 ) );
#208 = CARTESIAN_POINT( '', ( 6.94205541162923, 0.810000000000000, 1.40296115413079 ) );
#209 = CARTESIAN_POINT( '', ( 6.88372207829590, 1.61999999999999, 0.935307436087193 ) );
#210 = CARTESIAN_POINT( '', ( 6.82538874496256, 1.62000000000000, 0.000000000000000 ) );
#211 = CARTESIAN_POINT( '', ( 6.76705541162922, 1.61999999999999, -0.935307436087193 ) );
#212 = CARTESIAN_POINT( '', ( 6.70872207829589, 0.810000000000000, -1.40296115413078 ) );
#213 = CARTESIAN_POINT( '', ( 6.65038874496256, 1.14542125782289E-016, -1.87061487217439 ) );
#214 = CARTESIAN_POINT( '', ( 6.59205541162923, -0.810000000000000, -1.40296115413078 ) );
#215 = CARTESIAN_POINT( '', ( 6.53372207829589, -1.61999999999999, -0.935307436087193 ) );
#216 = CARTESIAN_POINT( '', ( 6.47538874496256, -1.62000000000000, -1.98392781461871E-016 ) );
#217 = CARTESIAN_POINT( '', ( 6.41705541162923, -1.61999999999999, 0.935307436087193 ) );
#218 = CARTESIAN_POINT( '', ( 6.35872207829589, -0.810000000000000, 1.40296115413078 ) );
#219 = CARTESIAN_POINT( '', ( 6.30038874496255, -3.43626377346868E-016, 1.87061487217439 ) );
#220 = CARTESIAN_POINT( '', ( 6.24205541162923, 0.810000000000000, 1.40296115413079 ) );
#221 = CARTESIAN_POINT( '', ( 6.18372207829589, 1.61999999999999, 0.935307436087193 ) );
#222 = CARTESIAN_POINT( '', ( 6.12538874496256, 1.62000000000000, 0.000000000000000 ) );
#223 = CARTESIAN_POINT( '', ( 6.06705541162923, 1.61999999999999, -0.935307436087193 ) );
#224 = CARTESIAN_POINT( '', ( 6.00872207829589, 0.810000000000000, -1.40296115413078 ) );
#225 = CARTESIAN_POINT( '', ( 5.95038874496256, 1.14542125782289E-016, -1.87061487217439 ) );
#226 = CARTESIAN_POINT( '', ( 5.89205541162923, -0.810000000000000, -1.40296115413078 ) );
#227 = CARTESIAN_POINT( '', ( 5.83372207829590, -1.61999999999999, -0.935307436087193 ) );
#228 = CARTESIAN_POINT( '', ( 5.77538874496256, -1.62000000000000, -1.98392781461871E-016 ) );
#229 = CARTESIAN_POINT( '', ( 5.71705541162922, -1.61999999999999, 0.935307436087193 ) );
#230 = CARTESIAN_POINT( '', ( 5.65872207829589, -0.810000000000000, 1.40296115413078 ) );
#231 = CARTESIAN_POINT( '', ( 5.60038874496256, -3.43626377346868E-016, 1.87061487217439 ) );
#232 = CARTESIAN_POINT( '', ( 5.54205541162923, 0.810000000000000, 1.40296115413079 ) );
#233 = CARTESIAN_POINT( '', ( 5.48372207829589, 1.61999999999999, 0.935307436087193 ) );
#234 = CARTESIAN_POINT( '', ( 5.42538874496256, 1.62000000000000, 0.000000000000000 ) );
#235 = CARTESIAN_POINT( '', ( 5.36705541162923, 1.61999999999999, -0.935307436087193 ) );
#236 = CARTESIAN_POINT( '', ( 5.30872207829589, 0.810000000000000, -1.40296115413078 ) );
#237 = CARTESIAN_POINT( '', ( 5.25038874496255, 1.14542125782289E-016, -1.87061487217439 ) );
#238 = CARTESIAN_POINT( '', ( 5.19205541162923, -0.810000000000000, -1.40296115413078 ) );
#239 = CARTESIAN_POINT( '', ( 5.13372207829589, -1.61999999999999, -0.935307436087193 ) );
#240 = CARTESIAN_POINT( '', ( 5.07538874496256, -1.62000000000000, -1.98392781461871E-016 ) );
#241 = CARTESIAN_POINT( '', ( 5.01705541162923, -1.61999999999999, 0.935307436087193 ) );
#242 = CARTESIAN_POINT( '', ( 4.95872207829589, -0.810000000000000, 1.40296115413078 ) );
#243 = CARTESIAN_POINT( '', ( 4.90038874496256, -3.43626377346868E-016, 1.87061487217439 ) );
#244 = CARTESIAN_POINT( '', ( 4.84205541162923, 0.810000000000000, 1.40296115413079 ) );
#245 = CARTESIAN_POINT( '', ( 4.78372207829589, 1.61999999999999, 0.935307436087193 ) );
#246 = CARTESIAN_POINT( '', ( 4.72538874496256, 1.62000000000000, 0.000000000000000 ) );
#247 = CARTESIAN_POINT( '', ( 4.66705541162922, 1.61999999999999, -0.935307436087193 ) );
#248 = CARTESIAN_POINT( '', ( 4.60872207829589, 0.810000000000000, -1.40296115413078 ) );
#249 = CARTESIAN_POINT( '', ( 4.55038874496256, 1.14542125782289E-016, -1.87061487217439 ) );
#250 = CARTESIAN_POINT( '', ( 4.49205541162923, -0.810000000000000, -1.40296115413078 ) );
#251 = CARTESIAN_POINT( '', ( 4.43372207829589, -1.61999999999999, -0.935307436087193 ) );
#252 = CARTESIAN_POINT( '', ( 4.37538874496256, -1.62000000000000, -1.98392781461871E-016 ) );
#253 = CARTESIAN_POINT( '', ( 4.31705541162922, -1.61999999999999, 0.935307436087193 ) );
#254 = CARTESIAN_POINT( '', ( 4.25872207829590, -0.810000000000000, 1.40296115413078 ) );
#255 = CARTESIAN_POINT( '', ( 4.20038874496256, -3.43626377346868E-016, 1.87061487217439 ) );
#256 = CARTESIAN_POINT( '', ( 4.14205541162923, 0.810000000000000, 1.40296115413079 ) );
#257 = CARTESIAN_POINT( '', ( 4.08372207829589, 1.61999999999999, 0.935307436087193 ) );
#258 = CARTESIAN_POINT( '', ( 4.02538874496256, 1.62000000000000, 0.000000000000000 ) );
#259 = CARTESIAN_POINT( '', ( 3.96705541162923, 1.61999999999999, -0.935307436087193 ) );
#260 = CARTESIAN_POINT( '', ( 3.90872207829589, 0.810000000000000, -1.40296115413078 ) );
#261 = CARTESIAN_POINT( '', ( 3.85038874496256, 1.14542125782289E-016, -1.87061487217439 ) );
#262 = CARTESIAN_POINT( '', ( 3.79205541162922, -0.810000000000000, -1.40296115413078 ) );
#263 = CARTESIAN_POINT( '', ( 3.73372207829589, -1.61999999999999, -0.935307436087193 ) );
#264 = CARTESIAN_POINT( '', ( 3.67538874496256, -1.62000000000000, -1.98392781461871E-016 ) );
#265 = CARTESIAN_POINT( '', ( 3.61705541162923, -1.61999999999999, 0.935307436087193 ) );
#266 = CARTESIAN_POINT( '', ( 3.55872207829589, -0.810000000000000, 1.40296115413078 ) );
#267 = CARTESIAN_POINT( '', ( 3.50038874496256, -3.43626377346868E-016, 1.87061487217439 ) );
#268 = CARTESIAN_POINT( '', ( 3.44205541162922, 0.810000000000000, 1.40296115413079 ) );
#269 = CARTESIAN_POINT( '', ( 3.38372207829589, 1.61999999999999, 0.935307436087193 ) );
#270 = CARTESIAN_POINT( '', ( 3.32538874496256, 1.62000000000000, 0.000000000000000 ) );
#276 = SURFACE_SIDE_STYLE( '', ( #477 ) );
#277 = EDGE_LOOP( '', ( #478 ) );
#278 = EDGE_LOOP( '', ( #479, #480, #481, #482 ) );
#279 = AXIS2_PLACEMENT_3D( '', #483, #484, #485 );
#280 = SURFACE_SIDE_STYLE( '', ( #486 ) );
#281 = EDGE_LOOP( '', ( #487 ) );
#282 = EDGE_LOOP( '', ( #488 ) );
#283 = AXIS2_PLACEMENT_3D( '', #489, #490, #491 );
#284 = SURFACE_SIDE_STYLE( '', ( #492 ) );
#285 = EDGE_LOOP( '', ( #493 ) );
#286 = AXIS2_PLACEMENT_3D( '', #494, #495, #496 );
#287 = SURFACE_SIDE_STYLE( '', ( #497 ) );
#288 = EDGE_LOOP( '', ( #498, #499, #500, #501 ) );
#289 = AXIS2_PLACEMENT_3D( '', #502, #503, #504 );
#290 = SURFACE_SIDE_STYLE( '', ( #505 ) );
#291 = EDGE_LOOP( '', ( #506, #507, #508, #509, #510 ) );
#294 = CARTESIAN_POINT( '', ( 7.08660254037844, 1.62000000000000, 0.000000000000000 ) );
#295 = CARTESIAN_POINT( '', ( 7.02826920704511, 1.61999999999999, -0.935307436087193 ) );
#296 = CARTESIAN_POINT( '', ( 6.96993587371178, 0.810000000000000, -1.40296115413079 ) );
#297 = CARTESIAN_POINT( '', ( 6.91160254037845, 1.14542125782290E-016, -1.87061487217439 ) );
#298 = CARTESIAN_POINT( '', ( 6.85326920704511, -0.810000000000000, -1.40296115413079 ) );
#299 = CARTESIAN_POINT( '', ( 6.79493587371178, -1.61999999999999, -0.935307436087193 ) );
#300 = CARTESIAN_POINT( '', ( 6.73660254037845, -1.62000000000000, -1.98392781461871E-016 ) );
#301 = CARTESIAN_POINT( '', ( 6.67826920704511, -1.61999999999999, 0.935307436087193 ) );
#302 = CARTESIAN_POINT( '', ( 6.61993587371178, -0.810000000000000, 1.40296115413078 ) );
#303 = CARTESIAN_POINT( '', ( 6.56160254037844, -3.43626377346868E-016, 1.87061487217439 ) );
#304 = CARTESIAN_POINT( '', ( 6.50326920704511, 0.810000000000000, 1.40296115413079 ) );
#305 = CARTESIAN_POINT( '', ( 6.44493587371178, 1.61999999999999, 0.935307436087193 ) );
#306 = CARTESIAN_POINT( '', ( 6.38660254037844, 1.62000000000000, 0.000000000000000 ) );
#307 = CARTESIAN_POINT( '', ( 6.32826920704511, 1.61999999999999, -0.935307436087193 ) );
#308 = CARTESIAN_POINT( '', ( 6.26993587371178, 0.810000000000000, -1.40296115413079 ) );
#309 = CARTESIAN_POINT( '', ( 6.21160254037845, 1.14542125782290E-016, -1.87061487217439 ) );
#310 = CARTESIAN_POINT( '', ( 6.15326920704511, -0.810000000000000, -1.40296115413079 ) );
#311 = CARTESIAN_POINT( '', ( 6.09493587371177, -1.61999999999999, -0.935307436087193 ) );
#312 = CARTESIAN_POINT( '', ( 6.03660254037845, -1.62000000000000, -1.98392781461871E-016 ) );
#313 = CARTESIAN_POINT( '', ( 5.97826920704511, -1.61999999999999, 0.935307436087193 ) );
#314 = CARTESIAN_POINT( '', ( 5.91993587371178, -0.810000000000000, 1.40296115413078 ) );
#315 = CARTESIAN_POINT( '', ( 5.86160254037844, -3.43626377346868E-016, 1.87061487217439 ) );
#316 = CARTESIAN_POINT( '', ( 5.80326920704511, 0.810000000000000, 1.40296115413079 ) );
#317 = CARTESIAN_POINT( '', ( 5.74493587371178, 1.61999999999999, 0.935307436087193 ) );
#318 = CARTESIAN_POINT( '', ( 5.68660254037844, 1.62000000000000, 0.000000000000000 ) );
#319 = CARTESIAN_POINT( '', ( 5.62826920704512, 1.61999999999999, -0.935307436087193 ) );
#320 = CARTESIAN_POINT( '', ( 5.56993587371178, 0.810000000000000, -1.40296115413079 ) );
#321 = CARTESIAN_POINT( '', ( 5.51160254037844, 1.14542125782290E-016, -1.87061487217439 ) );
#322 = CARTESIAN_POINT( '', ( 5.45326920704511, -0.810000000000000, -1.40296115413079 ) );
#323 = CARTESIAN_POINT( '', ( 5.39493587371178, -1.61999999999999, -0.935307436087193 ) );
#324 = CARTESIAN_POINT( '', ( 5.33660254037844, -1.62000000000000, -1.98392781461871E-016 ) );
#325 = CARTESIAN_POINT( '', ( 5.27826920704511, -1.61999999999999, 0.935307436087193 ) );
#326 = CARTESIAN_POINT( '', ( 5.21993587371178, -0.810000000000000, 1.40296115413078 ) );
#327 = CARTESIAN_POINT( '', ( 5.16160254037845, -3.43626377346868E-016, 1.87061487217439 ) );
#328 = CARTESIAN_POINT( '', ( 5.10326920704511, 0.810000000000000, 1.40296115413079 ) );
#329 = CARTESIAN_POINT( '', ( 5.04493587371178, 1.61999999999999, 0.935307436087193 ) );
#330 = CARTESIAN_POINT( '', ( 4.98660254037845, 1.62000000000000, 0.000000000000000 ) );
#331 = CARTESIAN_POINT( '', ( 4.92826920704511, 1.61999999999999, -0.935307436087193 ) );
#332 = CARTESIAN_POINT( '', ( 4.86993587371178, 0.810000000000000, -1.40296115413079 ) );
#333 = CARTESIAN_POINT( '', ( 4.81160254037844, 1.14542125782290E-016, -1.87061487217439 ) );
#334 = CARTESIAN_POINT( '', ( 4.75326920704511, -0.810000000000000, -1.40296115413079 ) );
#335 = CARTESIAN_POINT( '', ( 4.69493587371178, -1.61999999999999, -0.935307436087193 ) );
#336 = CARTESIAN_POINT( '', ( 4.63660254037844, -1.62000000000000, -1.98392781461871E-016 ) );
#337 = CARTESIAN_POINT( '', ( 4.57826920704511, -1.61999999999999, 0.935307436087193 ) );
#338 = CARTESIAN_POINT( '', ( 4.51993587371178, -0.810000000000000, 1.40296115413078 ) );
#339 = CARTESIAN_POINT( '', ( 4.46160254037844, -3.43626377346868E-016, 1.87061487217439 ) );
#340 = CARTESIAN_POINT( '', ( 4.40326920704511, 0.810000000000000, 1.40296115413079 ) );
#341 = CARTESIAN_POINT( '', ( 4.34493587371178, 1.61999999999999, 0.935307436087193 ) );
#342 = CARTESIAN_POINT( '', ( 4.28660254037844, 1.62000000000000, 0.000000000000000 ) );
#343 = CARTESIAN_POINT( '', ( 4.22826920704511, 1.61999999999999, -0.935307436087193 ) );
#344 = CARTESIAN_POINT( '', ( 4.16993587371178, 0.810000000000000, -1.40296115413079 ) );
#345 = CARTESIAN_POINT( '', ( 4.11160254037844, 1.14542125782290E-016, -1.87061487217439 ) );
#346 = CARTESIAN_POINT( '', ( 4.05326920704511, -0.810000000000000, -1.40296115413079 ) );
#347 = CARTESIAN_POINT( '', ( 3.99493587371177, -1.61999999999999, -0.935307436087193 ) );
#348 = CARTESIAN_POINT( '', ( 3.93660254037845, -1.62000000000000, -1.98392781461871E-016 ) );
#349 = CARTESIAN_POINT( '', ( 3.87826920704511, -1.61999999999999, 0.935307436087193 ) );
#350 = CARTESIAN_POINT( '', ( 3.81993587371178, -0.810000000000000, 1.40296115413078 ) );
#351 = CARTESIAN_POINT( '', ( 3.76160254037845, -3.43626377346868E-016, 1.87061487217439 ) );
#352 = CARTESIAN_POINT( '', ( 3.70326920704511, 0.810000000000000, 1.40296115413079 ) );
#353 = CARTESIAN_POINT( '', ( 3.64493587371178, 1.61999999999999, 0.935307436087193 ) );
#354 = CARTESIAN_POINT( '', ( 3.58660254037845, 1.62000000000000, 0.000000000000000 ) );
#355 = CARTESIAN_POINT( '', ( 3.52826920704511, 1.61999999999999, -0.935307436087193 ) );
#356 = CARTESIAN_POINT( '', ( 3.46993587371178, 0.810000000000000, -1.40296115413079 ) );
#357 = CARTESIAN_POINT( '', ( 3.41160254037844, 1.14542125782290E-016, -1.87061487217439 ) );
#358 = CARTESIAN_POINT( '', ( 3.35326920704511, -0.810000000000000, -1.40296115413079 ) );
#359 = CARTESIAN_POINT( '', ( 3.29493587371178, -1.61999999999999, -0.935307436087193 ) );
#360 = CARTESIAN_POINT( '', ( 3.23660254037845, -1.62000000000000, -1.98392781461871E-016 ) );
#361 = CARTESIAN_POINT( '', ( 3.17826920704511, -1.61999999999999, 0.935307436087193 ) );
#362 = CARTESIAN_POINT( '', ( 3.11993587371178, -0.810000000000000, 1.40296115413078 ) );
#363 = CARTESIAN_POINT( '', ( 3.06160254037844, -3.43626377346868E-016, 1.87061487217439 ) );
#364 = CARTESIAN_POINT( '', ( 3.00326920704511, 0.810000000000000, 1.40296115413079 ) );
#365 = CARTESIAN_POINT( '', ( 2.94493587371178, 1.61999999999999, 0.935307436087193 ) );
#366 = CARTESIAN_POINT( '', ( 2.88660254037845, 1.62000000000000, 0.000000000000000 ) );
#367 = CARTESIAN_POINT( '', ( 7.30599564267050, 2.00000000000000, 0.000000000000000 ) );
#368 = CARTESIAN_POINT( '', ( 7.24766230933717, 1.99999999999999, -1.15470053837925 ) );
#369 = CARTESIAN_POINT( '', ( 7.18932897600384, 1.00000000000000, -1.73205080756887 ) );
#370 = CARTESIAN_POINT( '', ( 7.13099564267051, 1.41410031829987E-016, -2.30940107675850 ) );
#371 = CARTESIAN_POINT( '', ( 7.07266230933717, -1.00000000000000, -1.73205080756887 ) );
#372 = CARTESIAN_POINT( '', ( 7.01432897600383, -1.99999999999999, -1.15470053837925 ) );
#373 = CARTESIAN_POINT( '', ( 6.95599564267050, -2.00000000000000, -2.44929359829470E-016 ) );
#374 = CARTESIAN_POINT( '', ( 6.89766230933717, -2.00000000000000, 1.15470053837925 ) );
#375 = CARTESIAN_POINT( '', ( 6.83932897600384, -1.00000000000000, 1.73205080756887 ) );
#376 = CARTESIAN_POINT( '', ( 6.78099564267050, -4.24230095489962E-016, 2.30940107675850 ) );
#377 = CARTESIAN_POINT( '', ( 6.72266230933717, 1.00000000000000, 1.73205080756888 ) );
#378 = CARTESIAN_POINT( '', ( 6.66432897600384, 1.99999999999999, 1.15470053837925 ) );
#379 = CARTESIAN_POINT( '', ( 6.60599564267050, 2.00000000000000, 0.000000000000000 ) );
#380 = CARTESIAN_POINT( '', ( 6.54766230933716, 1.99999999999999, -1.15470053837925 ) );
#381 = CARTESIAN_POINT( '', ( 6.48932897600384, 1.00000000000000, -1.73205080756887 ) );
#382 = CARTESIAN_POINT( '', ( 6.43099564267050, 1.41410031829987E-016, -2.30940107675850 ) );
#383 = CARTESIAN_POINT( '', ( 6.37266230933717, -1.00000000000000, -1.73205080756887 ) );
#384 = CARTESIAN_POINT( '', ( 6.31432897600383, -1.99999999999999, -1.15470053837925 ) );
#385 = CARTESIAN_POINT( '', ( 6.25599564267050, -2.00000000000000, -2.44929359829470E-016 ) );
#386 = CARTESIAN_POINT( '', ( 6.19766230933717, -2.00000000000000, 1.15470053837925 ) );
#387 = CARTESIAN_POINT( '', ( 6.13932897600384, -1.00000000000000, 1.73205080756887 ) );
#388 = CARTESIAN_POINT( '', ( 6.08099564267050, -4.24230095489962E-016, 2.30940107675850 ) );
#389 = CARTESIAN_POINT( '', ( 6.02266230933717, 1.00000000000000, 1.73205080756888 ) );
#390 = CARTESIAN_POINT( '', ( 5.96432897600383, 1.99999999999999, 1.15470053837925 ) );
#391 = CARTESIAN_POINT( '', ( 5.90599564267050, 2.00000000000000, 0.000000000000000 ) );
#392 = CARTESIAN_POINT( '', ( 5.84766230933717, 1.99999999999999, -1.15470053837925 ) );
#393 = CARTESIAN_POINT( '', ( 5.78932897600384, 1.00000000000000, -1.73205080756887 ) );
#394 = CARTESIAN_POINT( '', ( 5.73099564267050, 1.41410031829987E-016, -2.30940107675850 ) );
#395 = CARTESIAN_POINT( '', ( 5.67266230933717, -1.00000000000000, -1.73205080756887 ) );
#396 = CARTESIAN_POINT( '', ( 5.61432897600384, -1.99999999999999, -1.15470053837925 ) );
#397 = CARTESIAN_POINT( '', ( 5.55599564267050, -2.00000000000000, -2.44929359829470E-016 ) );
#398 = CARTESIAN_POINT( '', ( 5.49766230933717, -2.00000000000000, 1.15470053837925 ) );
#399 = CARTESIAN_POINT( '', ( 5.43932897600384, -1.00000000000000, 1.73205080756887 ) );
#400 = CARTESIAN_POINT( '', ( 5.38099564267050, -4.24230095489962E-016, 2.30940107675850 ) );
#401 = CARTESIAN_POINT( '', ( 5.32266230933717, 1.00000000000000, 1.73205080756888 ) );
#402 = CARTESIAN_POINT( '', ( 5.26432897600383, 1.99999999999999, 1.15470053837925 ) );
#403 = CARTESIAN_POINT( '', ( 5.20599564267050, 2.00000000000000, 0.000000000000000 ) );
#404 = CARTESIAN_POINT( '', ( 5.14766230933717, 1.99999999999999, -1.15470053837925 ) );
#405 = CARTESIAN_POINT( '', ( 5.08932897600384, 1.00000000000000, -1.73205080756887 ) );
#406 = CARTESIAN_POINT( '', ( 5.03099564267050, 1.41410031829987E-016, -2.30940107675850 ) );
#407 = CARTESIAN_POINT( '', ( 4.97266230933717, -1.00000000000000, -1.73205080756887 ) );
#408 = CARTESIAN_POINT( '', ( 4.91432897600383, -1.99999999999999, -1.15470053837925 ) );
#409 = CARTESIAN_POINT( '', ( 4.85599564267050, -2.00000000000000, -2.44929359829470E-016 ) );
#410 = CARTESIAN_POINT( '', ( 4.79766230933717, -2.00000000000000, 1.15470053837925 ) );
#411 = CARTESIAN_POINT( '', ( 4.73932897600384, -1.00000000000000, 1.73205080756887 ) );
#412 = CARTESIAN_POINT( '', ( 4.68099564267050, -4.24230095489962E-016, 2.30940107675850 ) );
#413 = CARTESIAN_POINT( '', ( 4.62266230933717, 1.00000000000000, 1.73205080756888 ) );
#414 = CARTESIAN_POINT( '', ( 4.56432897600383, 1.99999999999999, 1.15470053837925 ) );
#415 = CARTESIAN_POINT( '', ( 4.50599564267050, 2.00000000000000, 0.000000000000000 ) );
#416 = CARTESIAN_POINT( '', ( 4.44766230933717, 1.99999999999999, -1.15470053837925 ) );
#417 = CARTESIAN_POINT( '', ( 4.38932897600384, 1.00000000000000, -1.73205080756887 ) );
#418 = CARTESIAN_POINT( '', ( 4.33099564267050, 1.41410031829987E-016, -2.30940107675850 ) );
#419 = CARTESIAN_POINT( '', ( 4.27266230933717, -1.00000000000000, -1.73205080756887 ) );
#420 = CARTESIAN_POINT( '', ( 4.21432897600383, -1.99999999999999, -1.15470053837925 ) );
#421 = CARTESIAN_POINT( '', ( 4.15599564267050, -2.00000000000000, -2.44929359829470E-016 ) );
#422 = CARTESIAN_POINT( '', ( 4.09766230933717, -2.00000000000000, 1.15470053837925 ) );
#423 = CARTESIAN_POINT( '', ( 4.03932897600383, -1.00000000000000, 1.73205080756887 ) );
#424 = CARTESIAN_POINT( '', ( 3.98099564267050, -4.24230095489962E-016, 2.30940107675850 ) );
#425 = CARTESIAN_POINT( '', ( 3.92266230933717, 1.00000000000000, 1.73205080756888 ) );
#426 = CARTESIAN_POINT( '', ( 3.86432897600384, 1.99999999999999, 1.15470053837925 ) );
#427 = CARTESIAN_POINT( '', ( 3.80599564267050, 2.00000000000000, 0.000000000000000 ) );
#428 = CARTESIAN_POINT( '', ( 3.74766230933717, 1.99999999999999, -1.15470053837925 ) );
#429 = CARTESIAN_POINT( '', ( 3.68932897600383, 1.00000000000000, -1.73205080756887 ) );
#430 = CARTESIAN_POINT( '', ( 3.63099564267050, 1.41410031829987E-016, -2.30940107675850 ) );
#431 = CARTESIAN_POINT( '', ( 3.57266230933717, -1.00000000000000, -1.73205080756887 ) );
#432 = CARTESIAN_POINT( '', ( 3.51432897600384, -1.99999999999999, -1.15470053837925 ) );
#433 = CARTESIAN_POINT( '', ( 3.45599564267050, -2.00000000000000, -2.44929359829470E-016 ) );
#434 = CARTESIAN_POINT( '', ( 3.39766230933717, -2.00000000000000, 1.15470053837925 ) );
#435 = CARTESIAN_POINT( '', ( 3.33932897600384, -1.00000000000000, 1.73205080756887 ) );
#436 = CARTESIAN_POINT( '', ( 3.28099564267050, -4.24230095489962E-016, 2.30940107675850 ) );
#437 = CARTESIAN_POINT( '', ( 3.22266230933717, 1.00000000000000, 1.73205080756888 ) );
#438 = CARTESIAN_POINT( '', ( 3.16432897600383, 1.99999999999999, 1.15470053837925 ) );
#439 = CARTESIAN_POINT( '', ( 3.10599564267050, 2.00000000000000, 0.000000000000000 ) );
#445 = SURFACE_SIDE_STYLE( '', ( #511 ) );
#446 = EDGE_LOOP( '', ( #512 ) );
#447 = VERTEX_LOOP( '', #513 );
#448 = AXIS2_PLACEMENT_3D( '', #514, #515, #516 );
#450 = SURFACE_STYLE_FILL_AREA( #517 );
#451 = ORIENTED_EDGE( '', *, *, #518, .T. );
#452 = ORIENTED_EDGE( '', *, *, #519, .T. );
#453 = ORIENTED_EDGE( '', *, *, #520, .T. );
#454 = ORIENTED_EDGE( '', *, *, #521, .F. );
#455 = CARTESIAN_POINT( '', ( 7.00000000000000, 0.000000000000000, 0.000000000000000 ) );
#456 = DIRECTION( '', ( 1.00000000000000, -0.000000000000000, 0.000000000000000 ) );
#457 = DIRECTION( '', ( 0.000000000000000, 0.000000000000000, -1.00000000000000 ) );
#458 = SURFACE_STYLE_FILL_AREA( #522 );
#459 = ORIENTED_EDGE( '', *, *, #523, .F. );
#460 = ORIENTED_EDGE( '', *, *, #521, .T. );
#461 = CARTESIAN_POINT( '', ( 7.00000000000000, 0.000000000000000, 0.000000000000000 ) );
#462 = DIRECTION( '', ( -1.00000000000000, 0.000000000000000, 0.000000000000000 ) );
#463 = DIRECTION( '', ( 0.000000000000000, 0.000000000000000, 1.00000000000000 ) );
#464 = SURFACE_STYLE_FILL_AREA( #524 );
#465 = ORIENTED_EDGE( '', *, *, #525, .T. );
#466 = ORIENTED_EDGE( '', *, *, #526, .F. );
#467 = ORIENTED_EDGE( '', *, *, #527, .F. );
#468 = CARTESIAN_POINT( '', ( 3.61199128534100, -0.371609959707058, 1.62812961334364 ) );
#469 = DIRECTION( '', ( 0.000000000000000, -0.974927912181822, -0.222520933956322 ) );
#470 = DIRECTION( '', ( 1.00000000000000, 0.000000000000000, 0.000000000000000 ) );
#471 = SURFACE_STYLE_FILL_AREA( #528 );
#472 = ORIENTED_EDGE( '', *, *, #518, .F. );
#473 = ORIENTED_EDGE( '', *, *, #529, .T. );
#474 = ORIENTED_EDGE( '', *, *, #526, .T. );
#475 = ORIENTED_EDGE( '', *, *, #530, .F. );
#476 = ORIENTED_EDGE( '', *, *, #531, .F. );
#477 = SURFACE_STYLE_FILL_AREA( #532 );
#478 = ORIENTED_EDGE( '', *, *, #533, .T. );
#479 = ORIENTED_EDGE( '', *, *, #534, .F. );
#480 = ORIENTED_EDGE( '', *, *, #530, .T. );
#481 = ORIENTED_EDGE( '', *, *, #525, .F. );
#482 = ORIENTED_EDGE( '', *, *, #535, .F. );
#483 = CARTESIAN_POINT( '', ( 7.00000000000000, 0.000000000000000, 0.000000000000000 ) );
#484 = DIRECTION( '', ( 1.00000000000000, -0.000000000000000, -0.000000000000000 ) );
#485 = DIRECTION( '', ( 0.000000000000000, 0.000000000000000, -1.00000000000000 ) );
#486 = SURFACE_STYLE_FILL_AREA( #536 );
#487 = ORIENTED_EDGE( '', *, *, #537, .F. );
#488 = ORIENTED_EDGE( '', *, *, #523, .T. );
#489 = CARTESIAN_POINT( '', ( 0.000000000000000, 0.000000000000000, 0.000000000000000 ) );
#490 = DIRECTION( '', ( 1.00000000000000, -0.000000000000000, -0.000000000000000 ) );
#491 = DIRECTION( '', ( 0.000000000000000, 0.000000000000000, 1.00000000000000 ) );
#492 = SURFACE_STYLE_FILL_AREA( #538 );
#493 = ORIENTED_EDGE( '', *, *, #537, .T. );
#494 = CARTESIAN_POINT( '', ( 0.000000000000000, 0.000000000000000, 3.50000000000000 ) );
#495 = DIRECTION( '', ( 1.00000000000000, 0.000000000000000, 0.000000000000000 ) );
#496 = DIRECTION( '', ( 0.000000000000000, 0.000000000000000, -1.00000000000000 ) );
#497 = SURFACE_STYLE_FILL_AREA( #539 );
#498 = ORIENTED_EDGE( '', *, *, #531, .T. );
#499 = ORIENTED_EDGE( '', *, *, #534, .T. );
#500 = ORIENTED_EDGE( '', *, *, #540, .T. );
#501 = ORIENTED_EDGE( '', *, *, #519, .F. );
#502 = CARTESIAN_POINT( '', ( 6.80000000000000, 0.000000000000000, 1.80000000000000 ) );
#503 = DIRECTION( '', ( 1.00000000000000, 0.000000000000000, 0.000000000000000 ) );
#504 = DIRECTION( '', ( 0.000000000000000, 0.000000000000000, -1.00000000000000 ) );
#505 = SURFACE_STYLE_FILL_AREA( #541 );
#506 = ORIENTED_EDGE( '', *, *, #520, .F. );
#507 = ORIENTED_EDGE( '', *, *, #540, .F. );
#508 = ORIENTED_EDGE( '', *, *, #535, .T. );
#509 = ORIENTED_EDGE( '', *, *, #527, .T. );
#510 = ORIENTED_EDGE( '', *, *, #529, .F. );
#511 = SURFACE_STYLE_FILL_AREA( #542 );
#512 = ORIENTED_EDGE( '', *, *, #533, .F. );
#513 = VERTEX_POINT( '', #543 );
#514 = CARTESIAN_POINT( '', ( 2.47339420282465, 0.000000000000000, 0.000000000000000 ) );
#515 = DIRECTION( '', ( 1.00000000000000, -0.000000000000000, -0.000000000000000 ) );
#516 = DIRECTION( '', ( 0.000000000000000, 0.000000000000000, 1.00000000000000 ) );
#517 = FILL_AREA_STYLE( '', ( #544 ) );
#518 = EDGE_CURVE( '', #545, #546, #547, .T. );
#519 = EDGE_CURVE( '', #546, #548, #549, .T. );
#520 = EDGE_CURVE( '', #548, #545, #550, .T. );
#521 = EDGE_CURVE( '', #545, #545, #551, .T. );
#522 = FILL_AREA_STYLE( '', ( #552 ) );
#523 = EDGE_CURVE( '', #553, #553, #554, .T. );
#524 = FILL_AREA_STYLE( '', ( #555 ) );
#525 = EDGE_CURVE( '', #556, #557, #558, .F. );
#526 = EDGE_CURVE( '', #559, #557, #560, .F. );
#527 = EDGE_CURVE( '', #556, #559, #561, .F. );
#528 = FILL_AREA_STYLE( '', ( #562 ) );
#529 = EDGE_CURVE( '', #545, #559, #563, .T. );
#530 = EDGE_CURVE( '', #564, #557, #565, .T. );
#531 = EDGE_CURVE( '', #546, #564, #566, .T. );
#532 = FILL_AREA_STYLE( '', ( #567 ) );
#533 = EDGE_CURVE( '', #568, #568, #569, .T. );
#534 = EDGE_CURVE( '', #564, #570, #571, .F. );
#535 = EDGE_CURVE( '', #570, #556, #572, .T. );
#536 = FILL_AREA_STYLE( '', ( #573 ) );
#537 = EDGE_CURVE( '', #574, #574, #575, .T. );
#538 = FILL_AREA_STYLE( '', ( #576 ) );
#539 = FILL_AREA_STYLE( '', ( #577 ) );
#540 = EDGE_CURVE( '', #570, #548, #578, .T. );
#541 = FILL_AREA_STYLE( '', ( #579 ) );
#542 = FILL_AREA_STYLE( '', ( #580 ) );
#543 = CARTESIAN_POINT( '', ( 1.50000000000000, 0.000000000000000, 0.000000000000000 ) );
#544 = FILL_AREA_STYLE_COLOUR( '', #581 );
#545 = VERTEX_POINT( '', #582 );
#546 = VERTEX_POINT( '', #583 );
#547 = B_SPLINE_CURVE_WITH_KNOTS( '', 3, ( #584, #585, #586, #587, #588, #589, #590, #591, #592, #593, #594, #595, #596, #597, #598, #599, #600, #601, #602, #603, #604, #605 ), .UNSPECIFIED., .F., .F., ( 4, 2, 2, 2, 2, 2, 2, 2, 2, 2, 4 ), ( 6.94512526840959E-017, 0.000672864271533304, 0.00134572854306654, 0.00201859281459977, 0.00269145708613301, 0.00336432135766624, 0.00370075349343286, 0.00403718562919948, 0.00437361776496609, 0.00471004990073271, 0.00538291417226595 ), .UNSPECIFIED. );
#548 = VERTEX_POINT( '', #606 );
#549 = CIRCLE( '', #607, 1.80000000000000 );
#550 = B_SPLINE_CURVE_WITH_KNOTS( '', 3, ( #608, #609, #610, #611, #612, #613, #614, #615 ), .UNSPECIFIED., .F., .F., ( 4, 2, 2, 4 ), ( 1.37403110476280E-017, 0.000371808735183457, 0.000743617470366900, 0.00148723494073379 ), .UNSPECIFIED. );
#551 = CIRCLE( '', #616, 2.00000000000000 );
#552 = FILL_AREA_STYLE_COLOUR( '', #617 );
#553 = VERTEX_POINT( '', #618 );
#554 = CIRCLE( '', #619, 3.50000000000000 );
#555 = FILL_AREA_STYLE_COLOUR( '', #620 );
#556 = VERTEX_POINT( '', #621 );
#557 = VERTEX_POINT( '', #622 );
#558 = LINE( '', #623, #624 );
#559 = VERTEX_POINT( '', #625 );
#560 = ( BOUNDED_CURVE(  )B_SPLINE_CURVE( 1, ( #628, #629 ), .UNSPECIFIED., .F., .F. )B_SPLINE_CURVE_WITH_KNOTS( ( 2, 2 ), ( 0.000000000000000, 1.00000000000000 ), .UNSPECIFIED. )CURVE(  )GEOMETRIC_REPRESENTATION_ITEM(  )RATIONAL_B_SPLINE_CURVE( ( 0.944854577760970, 0.944854577760970 ) )REPRESENTATION_ITEM( '' ) );
#561 = ( BOUNDED_CURVE(  )B_SPLINE_CURVE( 1, ( #637, #638 ), .UNSPECIFIED., .F., .F. )B_SPLINE_CURVE_WITH_KNOTS( ( 2, 2 ), ( 0.000000000000000, 1.00000000000000 ), .UNSPECIFIED. )CURVE(  )GEOMETRIC_REPRESENTATION_ITEM(  )RATIONAL_B_SPLINE_CURVE( ( 0.944854577760970, 0.944854577760970 ) )REPRESENTATION_ITEM( '' ) );
#562 = FILL_AREA_STYLE_COLOUR( '', #644 );
#563 = ( BOUNDED_CURVE(  )B_SPLINE_CURVE( 2, ( #647, #648, #649, #650, #651, #652, #653, #654, #655, #656, #657, #658, #659, #660, #661, #662, #663, #664, #665, #666, #667, #668, #669, #670, #671, #672, #673, #674, #675, #676, #677, #678, #679, #680, #681, #682, #683, #684, #685, #686, #687, #688, #689, #690, #691, #692, #693, #694, #695, #696, #697, #698, #699, #700, #701, #702, #703, #704, #705, #706, #707, #708, #709, #710, #711, #712, #713 ), .UNSPECIFIED., .F., .F. )B_SPLINE_CURVE_WITH_KNOTS( ( 3, 2, 2, 2, 2, 2, 2, 2, 2, 2, 2, 2, 2, 2, 2, 2, 2, 2, 2, 2, 2, 2, 2, 2, 2, 2, 2, 2, 2, 2, 2, 2, 2, 3 ), ( 0.0726396629657714, 0.0833333333333333, 0.111111111111111, 0.138888888888889, 0.166666666666667, 0.194444444444445, 0.222222222222222, 0.250000000000000, 0.277777777777778, 0.305555555555555, 0.333333333333334, 0.361111111111111, 0.388888888888889, 0.416666666666667, 0.444444444444444, 0.472222222222222, 0.500000000000000, 0.527777777777778, 0.555555555555556, 0.583333333333333, 0.611111111111111, 0.638888888888889, 0.666666666666667, 0.694444444444444, 0.722222222222222, 0.750000000000000, 0.777777777777778, 0.805555555555556, 0.833333333333333, 0.861111111111111, 0.888888888888889, 0.916666666666667, 0.944444444444444, 0.952493683264407 ), .UNSPECIFIED. )CURVE(  )GEOMETRIC_REPRESENTATION_ITEM(  )RATIONAL_B_SPLINE_CURVE( ( 0.936558047552120, 0.948423513895969, 1.00000000000000, 0.866025403784439, 1.00000000000000, 0.866025403784439, 1.00000000000000, 0.866025403784439, 1.00000000000000, 0.866025403784439, 1.00000000000000, 0.866025403784439, 1.00000000000000, 0.866025403784439, 1.00000000000000, 0.866025403784439, 1.00000000000000, 0.866025403784439, 1.00000000000000, 0.866025403784439, 1.00000000000000, 0.866025403784439, 1.00000000000000, 0.866025403784439, 1.00000000000000, 0.866025403784439, 1.00000000000000, 0.866025403784439, 1.00000000000000, 0.866025403784439, 1.00000000000000, 0.866025403784439, 1.00000000000000, 0.866025403784439, 1.00000000000000, 0.866025403784439, 1.00000000000000, 0.866025403784439, 1.00000000000000, 0.866025403784439, 1.00000000000000, 0.866025403784439, 1.00000000000000, 0.866025403784439, 1.00000000000000, 0.866025403784439, 1.00000000000000, 0.866025403784439, 1.00000000000000, 0.866025403784439, 1.00000000000000, 0.866025403784439, 1.00000000000000, 0.866025403784439, 1.00000000000000, 0.866025403784439, 1.00000000000000, 0.866025403784439, 1.00000000000000, 0.866025403784439, 1.00000000000000, 0.866025403784439, 1.00000000000000, 0.866025403784439, 1.00000000000000, 0.961177833253102, 0.944854866705308 ) )REPRESENTATION_ITEM( '' ) );
#564 = VERTEX_POINT( '', #719 );
#565 = ( BOUNDED_CURVE(  )B_SPLINE_CURVE( 2, ( #722, #723, #724, #725, #726, #727, #728, #729, #730, #731, #732, #733, #734, #735, #736, #737, #738, #739, #740, #741, #742, #743, #744, #745, #746, #747, #748, #749, #750, #751, #752, #753, #754, #755, #756, #757, #758, #759, #760, #761, #762, #763, #764, #765, #766, #767, #768, #769, #770, #771, #772, #773, #774, #775, #776, #777, #778, #779, #780 ), .UNSPECIFIED., .F., .F. )B_SPLINE_CURVE_WITH_KNOTS( ( 3, 2, 2, 2, 2, 2, 2, 2, 2, 2, 2, 2, 2, 2, 2, 2, 2, 2, 2, 2, 2, 2, 2, 2, 2, 2, 2, 2, 2, 3 ), ( 0.173085033224565, 0.194444444444445, 0.222222222222222, 0.250000000000000, 0.277777777777778, 0.305555555555555, 0.333333333333334, 0.361111111111111, 0.388888888888889, 0.416666666666667, 0.444444444444444, 0.472222222222222, 0.500000000000000, 0.527777777777778, 0.555555555555556, 0.583333333333333, 0.611111111111111, 0.638888888888889, 0.666666666666667, 0.694444444444444, 0.722222222222222, 0.750000000000000, 0.777777777777778, 0.805555555555556, 0.833333333333333, 0.861111111111111, 0.888888888888889, 0.916666666666667, 0.944444444444444, 0.952493943939394 ), .UNSPECIFIED. )CURVE(  )GEOMETRIC_REPRESENTATION_ITEM(  )RATIONAL_B_SPLINE_CURVE( ( 0.952392952585722, 0.896981734230926, 1.00000000000000, 0.866025403784439, 1.00000000000000, 0.866025403784439, 1.00000000000000, 0.866025403784439, 1.00000000000000, 0.866025403784439, 1.00000000000000, 0.866025403784439, 1.00000000000000, 0.866025403784439, 1.00000000000000, 0.866025403784439, 1.00000000000000, 0.866025403784439, 1.00000000000000, 0.866025403784439, 1.00000000000000, 0.866025403784439, 1.00000000000000, 0.866025403784439, 1.00000000000000, 0.866025403784439, 1.00000000000000, 0.866025403784439, 1.00000000000000, 0.866025403784439, 1.00000000000000, 0.866025403784439, 1.00000000000000, 0.866025403784439, 1.00000000000000, 0.866025403784439, 1.00000000000000, 0.866025403784439, 1.00000000000000, 0.866025403784439, 1.00000000000000, 0.866025403784439, 1.00000000000000, 0.866025403784439, 1.00000000000000, 0.866025403784439, 1.00000000000000, 0.866025403784439, 1.00000000000000, 0.866025403784439, 1.00000000000000, 0.866025403784439, 1.00000000000000, 0.866025403784439, 1.00000000000000, 0.866025403784439, 1.00000000000000, 0.961176575995362, 0.944853809488789 ) )REPRESENTATION_ITEM( '' ) );
#566 = B_SPLINE_CURVE_WITH_KNOTS( '', 3, ( #786, #787, #788, #789, #790, #791, #792, #793, #794, #795 ), .UNSPECIFIED., .F., .F., ( 4, 2, 2, 2, 4 ), ( 0.00106213448688952, 0.00146094558144640, 0.00185975667600328, 0.00225856777056015, 0.00265737886511703 ), .UNSPECIFIED. );
#567 = FILL_AREA_STYLE_COLOUR( '', #796 );
#568 = VERTEX_POINT( '', #797 );
#569 = CIRCLE( '', #798, 1.62000000000000 );
#570 = VERTEX_POINT( '', #799 );
#571 = CIRCLE( '', #800, 1.62000000000000 );
#572 = ( BOUNDED_CURVE(  )B_SPLINE_CURVE( 2, ( #803, #804, #805, #806, #807, #808, #809, #810, #811, #812, #813, #814, #815, #816, #817, #818, #819, #820, #821, #822, #823, #824, #825, #826, #827, #828, #829, #830, #831, #832, #833, #834, #835, #836, #837, #838, #839, #840, #841, #842, #843, #844, #845, #846, #847, #848, #849, #850, #851, #852, #853, #854, #855, #856, #857, #858, #859, #860, #861, #862, #863, #864, #865, #866, #867, #868, #869 ), .UNSPECIFIED., .F., .F. )B_SPLINE_CURVE_WITH_KNOTS( ( 3, 2, 2, 2, 2, 2, 2, 2, 2, 2, 2, 2, 2, 2, 2, 2, 2, 2, 2, 2, 2, 2, 2, 2, 2, 2, 2, 2, 2, 2, 2, 2, 2, 3 ), ( 0.0683189392414955, 0.0833333333333333, 0.111111111111111, 0.138888888888889, 0.166666666666667, 0.194444444444445, 0.222222222222222, 0.250000000000000, 0.277777777777778, 0.305555555555555, 0.333333333333334, 0.361111111111111, 0.388888888888889, 0.416666666666667, 0.444444444444444, 0.472222222222222, 0.500000000000000, 0.527777777777778, 0.555555555555556, 0.583333333333333, 0.611111111111111, 0.638888888888889, 0.666666666666667, 0.694444444444444, 0.722222222222222, 0.750000000000000, 0.777777777777778, 0.805555555555556, 0.833333333333333, 0.861111111111111, 0.888888888888889, 0.916666666666667, 0.944444444444444, 0.952493945100042 ), .UNSPECIFIED. )CURVE(  )GEOMETRIC_REPRESENTATION_ITEM(  )RATIONAL_B_SPLINE_CURVE( ( 0.933452600378930, 0.927584294108490, 1.00000000000000, 0.866025403784439, 1.00000000000000, 0.866025403784439, 1.00000000000000, 0.866025403784439, 1.00000000000000, 0.866025403784439, 1.00000000000000, 0.866025403784439, 1.00000000000000, 0.866025403784439, 1.00000000000000, 0.866025403784439, 1.00000000000000, 0.866025403784439, 1.00000000000000, 0.866025403784439, 1.00000000000000, 0.866025403784439, 1.00000000000000, 0.866025403784439, 1.00000000000000, 0.866025403784439, 1.00000000000000, 0.866025403784439, 1.00000000000000, 0.866025403784439, 1.00000000000000, 0.866025403784439, 1.00000000000000, 0.866025403784439, 1.00000000000000, 0.866025403784439, 1.00000000000000, 0.866025403784439, 1.00000000000000, 0.866025403784439, 1.00000000000000, 0.866025403784439, 1.00000000000000, 0.866025403784439, 1.00000000000000, 0.866025403784439, 1.00000000000000, 0.866025403784439, 1.00000000000000, 0.866025403784439, 1.00000000000000, 0.866025403784439, 1.00000000000000, 0.866025403784439, 1.00000000000000, 0.866025403784439, 1.00000000000000, 0.866025403784439, 1.00000000000000, 0.866025403784439, 1.00000000000000, 0.866025403784439, 1.00000000000000, 0.866025403784439, 1.00000000000000, 0.961176570397458, 0.944853804781668 ) )REPRESENTATION_ITEM( '' ) );
#573 = FILL_AREA_STYLE_COLOUR( '', #875 );
#574 = VERTEX_POINT( '', #876 );
#575 = CIRCLE( '', #877, 3.50000000000000 );
#576 = FILL_AREA_STYLE_COLOUR( '', #878 );
#577 = FILL_AREA_STYLE_COLOUR( '', #879 );
#578 = B_SPLINE_CURVE_WITH_KNOTS( '', 3, ( #880, #881, #882, #883, #884, #885, #886, #887, #888, #889 ), .UNSPECIFIED., .F., .F., ( 4, 2, 2, 2, 4 ), ( 3.68533061331011E-017, 0.000402167579709806, 0.000804335159419576, 0.00120650273912935, 0.00160867031883912 ), .UNSPECIFIED. );
#579 = FILL_AREA_STYLE_COLOUR( '', #890 );
#580 = FILL_AREA_STYLE_COLOUR( '', #891 );
#581 = COLOUR_RGB( '', 0.643137276172638, 0.678431391716003, 0.698039233684540 );
#582 = CARTESIAN_POINT( '', ( 7.00000000000000, -1.84175722609748, -0.779698865022712 ) );
#583 = CARTESIAN_POINT( '', ( 6.80000000000000, 1.37946371047170, 1.15632169896255 ) );
#584 = CARTESIAN_POINT( '', ( 7.00000000000000, -1.84175722609751, -0.779698865022647 ) );
#585 = CARTESIAN_POINT( '', ( 6.99166091460512, -1.92265621933400, -0.567213656182070 ) );
#586 = CARTESIAN_POINT( '', ( 6.98367313074866, -1.96620046724981, -0.347338111886641 ) );
#587 = CARTESIAN_POINT( '', ( 6.96845279709236, -1.97862232195524, 0.107187094229624 ) );
#588 = CARTESIAN_POINT( '', ( 6.96111987276905, -1.94663214123919, 0.328970225160266 ) );
#589 = CARTESIAN_POINT( '', ( 6.94440775213159, -1.80382882100803, 0.760611621018215 ) );
#590 = CARTESIAN_POINT( '', ( 6.93586327347291, -1.69713176631447, 0.958562785895269 ) );
#591 = CARTESIAN_POINT( '', ( 6.91853891096438, -1.41534077055628, 1.31496550876489 ) );
#592 = CARTESIAN_POINT( '', ( 6.91017091230330, -1.24676484286285, 1.46481613883327 ) );
#593 = CARTESIAN_POINT( '', ( 6.89438111163078, -0.860668108314394, 1.70272903986794 ) );
#594 = CARTESIAN_POINT( '', ( 6.88668262007119, -0.650100501729173, 1.78553334540721 ) );
#595 = CARTESIAN_POINT( '', ( 6.87366811152421, -0.316685386830890, 1.85017289142615 ) );
#596 = CARTESIAN_POINT( '', ( 6.86927908918073, -0.205007268045079, 1.86138324348284 ) );
#597 = CARTESIAN_POINT( '', ( 6.86039611624081, 0.0194000800913322, 1.86367073058466 ) );
#598 = CARTESIAN_POINT( '', ( 6.85585563260974, 0.133283695012294, 1.85449689712074 ) );
#599 = CARTESIAN_POINT( '', ( 6.84692200725351, 0.355721863728033, 1.81584856533812 ) );
#600 = CARTESIAN_POINT( '', ( 6.84253920377214, 0.464039965687113, 1.78668174712038 ) );
#601 = CARTESIAN_POINT( '', ( 6.83394585906750, 0.674950735378388, 1.70892157708122 ) );
#602 = CARTESIAN_POINT( '', ( 6.82969835637693, 0.778428619407931, 1.65966911057625 ) );
#603 = CARTESIAN_POINT( '', ( 6.81769883603955, 1.06886870322222, 1.48733827388233 ) );
#604 = CARTESIAN_POINT( '', ( 6.80920449852017, 1.24041105580267, 1.33653641643374 ) );
#605 = CARTESIAN_POINT( '', ( 6.80000000000225, 1.37946371043770, 1.15632169900662 ) );
#606 = CARTESIAN_POINT( '', ( 6.80000000000000, -1.67795350714517, 0.651515178533259 ) );
#607 = AXIS2_PLACEMENT_3D( '', #892, #893, #894 );
#608 = CARTESIAN_POINT( '', ( 6.80000000000000, -1.67795350714516, 0.651515178533272 ) );
#609 = CARTESIAN_POINT( '', ( 6.81854684057260, -1.73953705093013, 0.544150050980613 ) );
#610 = CARTESIAN_POINT( '', ( 6.83627170310213, -1.78893852372796, 0.431795926530571 ) );
#611 = CARTESIAN_POINT( '', ( 6.87033917084498, -1.86388713003112, 0.197353431017091 ) );
#612 = CARTESIAN_POINT( '', ( 6.88631774999787, -1.88874518687518, 0.0750937074008554 ) );
#613 = CARTESIAN_POINT( '', ( 6.93283685900617, -1.92624548095650, -0.290943015281015 ) );
#614 = CARTESIAN_POINT( '', ( 6.96639074459456, -1.90646493095357, -0.540639399660671 ) );
#615 = CARTESIAN_POINT( '', ( 6.99999999999891, -1.84175722609958, -0.779698865014939 ) );
#616 = AXIS2_PLACEMENT_3D( '', #895, #896, #897 );
#617 = COLOUR_RGB( '', 0.643137276172638, 0.678431391716003, 0.698039233684540 );
#618 = CARTESIAN_POINT( '', ( 7.00000000000000, 0.000000000000000, 3.50000000000000 ) );
#619 = AXIS2_PLACEMENT_3D( '', #898, #899, #900 );
#620 = COLOUR_RGB( '', 0.643137276172638, 0.678431391716003, 0.698039233684540 );
#621 = CARTESIAN_POINT( '', ( 3.08737171292146, -0.360468844434828, 1.57947875373472 ) );
#622 = CARTESIAN_POINT( '', ( 3.52577821750028, -0.360450275554199, 1.57929823796602 ) );
#623 = CARTESIAN_POINT( '', ( 7.00000000000000, -0.360483913009243, 1.57938321773455 ) );
#624 = VECTOR( '', #901, 1000.00000000000 );
#625 = CARTESIAN_POINT( '', ( 3.30650414767379, -0.445022294466994, 1.94987802176683 ) );
#628 = CARTESIAN_POINT( '', ( 3.52634642315549, -0.360440902907562, 1.57939303389345 ) );
#629 = CARTESIAN_POINT( '', ( 3.30695332086343, -0.444988769021681, 1.94986794307834 ) );
#637 = CARTESIAN_POINT( '', ( 3.30695332086343, -0.444988769021681, 1.94986794307834 ) );
#638 = CARTESIAN_POINT( '', ( 3.08756021857138, -0.360440902907562, 1.57939303389345 ) );
#644 = COLOUR_RGB( '', 0.643137276172638, 0.678431391716003, 0.698039233684540 );
#647 = CARTESIAN_POINT( '', ( 7.00000000000000, -1.84175722609748, -0.779698865022712 ) );
#648 = CARTESIAN_POINT( '', ( 6.97650133356794, -2.00000000000000, -0.405907411184722 ) );
#649 = CARTESIAN_POINT( '', ( 6.95599564267050, -2.00000000000000, -2.44929359829470E-016 ) );
#650 = CARTESIAN_POINT( '', ( 6.89766230933717, -2.00000000000000, 1.15470053837925 ) );
#651 = CARTESIAN_POINT( '', ( 6.83932897600384, -1.00000000000000, 1.73205080756887 ) );
#652 = CARTESIAN_POINT( '', ( 6.78099564267050, -4.24230095489962E-016, 2.30940107675850 ) );
#653 = CARTESIAN_POINT( '', ( 6.72266230933717, 1.00000000000000, 1.73205080756888 ) );
#654 = CARTESIAN_POINT( '', ( 6.66432897600384, 1.99999999999999, 1.15470053837925 ) );
#655 = CARTESIAN_POINT( '', ( 6.60599564267050, 2.00000000000000, 4.89858719658940E-016 ) );
#656 = CARTESIAN_POINT( '', ( 6.54766230933716, 2.00000000000000, -1.15470053837925 ) );
#657 = CARTESIAN_POINT( '', ( 6.48932897600384, 1.00000000000000, -1.73205080756887 ) );
#658 = CARTESIAN_POINT( '', ( 6.43099564267050, 2.75821035795906E-015, -2.30940107675850 ) );
#659 = CARTESIAN_POINT( '', ( 6.37266230933717, -1.00000000000000, -1.73205080756888 ) );
#660 = CARTESIAN_POINT( '', ( 6.31432897600383, -1.99999999999999, -1.15470053837925 ) );
#661 = CARTESIAN_POINT( '', ( 6.25599564267050, -2.00000000000000, -7.34788079488410E-016 ) );
#662 = CARTESIAN_POINT( '', ( 6.19766230933717, -2.00000000000000, 1.15470053837925 ) );
#663 = CARTESIAN_POINT( '', ( 6.13932897600384, -1.00000000000000, 1.73205080756887 ) );
#664 = CARTESIAN_POINT( '', ( 6.08099564267050, -9.89870222809910E-016, 2.30940107675850 ) );
#665 = CARTESIAN_POINT( '', ( 6.02266230933717, 1.00000000000000, 1.73205080756888 ) );
#666 = CARTESIAN_POINT( '', ( 5.96432897600383, 1.99999999999999, 1.15470053837925 ) );
#667 = CARTESIAN_POINT( '', ( 5.90599564267050, 2.00000000000000, 9.79717439317880E-016 ) );
#668 = CARTESIAN_POINT( '', ( 5.84766230933717, 2.00000000000000, -1.15470053837925 ) );
#669 = CARTESIAN_POINT( '', ( 5.78932897600384, 1.00000000000000, -1.73205080756887 ) );
#670 = CARTESIAN_POINT( '', ( 5.73099564267050, 5.37501068408815E-015, -2.30940107675850 ) );
#671 = CARTESIAN_POINT( '', ( 5.67266230933717, -1.00000000000000, -1.73205080756888 ) );
#672 = CARTESIAN_POINT( '', ( 5.61432897600384, -1.99999999999999, -1.15470053837925 ) );
#673 = CARTESIAN_POINT( '', ( 5.55599564267050, -2.00000000000000, -4.77736047794784E-015 ) );
#674 = CARTESIAN_POINT( '', ( 5.49766230933717, -2.00000000000000, 1.15470053837925 ) );
#675 = CARTESIAN_POINT( '', ( 5.43932897600384, -1.00000000000000, 1.73205080756887 ) );
#676 = CARTESIAN_POINT( '', ( 5.38099564267050, -5.65783074774812E-015, 2.30940107675850 ) );
#677 = CARTESIAN_POINT( '', ( 5.32266230933717, 1.00000000000000, 1.73205080756888 ) );
#678 = CARTESIAN_POINT( '', ( 5.26432897600383, 1.99999999999999, 1.15470053837925 ) );
#679 = CARTESIAN_POINT( '', ( 5.20599564267050, 2.00000000000000, 1.46957615897682E-015 ) );
#680 = CARTESIAN_POINT( '', ( 5.14766230933717, 2.00000000000000, -1.15470053837925 ) );
#681 = CARTESIAN_POINT( '', ( 5.08932897600384, 1.00000000000000, -1.73205080756887 ) );
#682 = CARTESIAN_POINT( '', ( 5.03099564267050, 5.94065081140808E-015, -2.30940107675850 ) );
#683 = CARTESIAN_POINT( '', ( 4.97266230933717, -1.00000000000000, -1.73205080756888 ) );
#684 = CARTESIAN_POINT( '', ( 4.91432897600383, -1.99999999999999, -1.15470053837925 ) );
#685 = CARTESIAN_POINT( '', ( 4.85599564267050, -2.00000000000000, -1.71450551880629E-015 ) );
#686 = CARTESIAN_POINT( '', ( 4.79766230933717, -2.00000000000000, 1.15470053837925 ) );
#687 = CARTESIAN_POINT( '', ( 4.73932897600384, -1.00000000000000, 1.73205080756887 ) );
#688 = CARTESIAN_POINT( '', ( 4.68099564267050, -6.22347087506806E-015, 2.30940107675850 ) );
#689 = CARTESIAN_POINT( '', ( 4.62266230933717, 1.00000000000000, 1.73205080756888 ) );
#690 = CARTESIAN_POINT( '', ( 4.56432897600383, 1.99999999999999, 1.15470053837925 ) );
#691 = CARTESIAN_POINT( '', ( 4.50599564267050, 2.00000000000000, 1.95943487863576E-015 ) );
#692 = CARTESIAN_POINT( '', ( 4.44766230933717, 2.00000000000000, -1.15470053837925 ) );
#693 = CARTESIAN_POINT( '', ( 4.38932897600384, 1.00000000000000, -1.73205080756887 ) );
#694 = CARTESIAN_POINT( '', ( 4.33099564267050, 6.50629093872803E-015, -2.30940107675850 ) );
#695 = CARTESIAN_POINT( '', ( 4.27266230933717, -1.00000000000000, -1.73205080756888 ) );
#696 = CARTESIAN_POINT( '', ( 4.21432897600383, -1.99999999999999, -1.15470053837925 ) );
#697 = CARTESIAN_POINT( '', ( 4.15599564267050, -2.00000000000000, -9.30979159606621E-015 ) );
#698 = CARTESIAN_POINT( '', ( 4.09766230933717, -2.00000000000000, 1.15470053837925 ) );
#699 = CARTESIAN_POINT( '', ( 4.03932897600383, -1.00000000000000, 1.73205080756887 ) );
#700 = CARTESIAN_POINT( '', ( 3.98099564267050, -6.78911100238801E-015, 2.30940107675850 ) );
#701 = CARTESIAN_POINT( '', ( 3.92266230933717, 1.00000000000000, 1.73205080756888 ) );
#702 = CARTESIAN_POINT( '', ( 3.86432897600384, 1.99999999999999, 1.15470053837925 ) );
#703 = CARTESIAN_POINT( '', ( 3.80599564267050, 2.00000000000000, 9.55472095589568E-015 ) );
#704 = CARTESIAN_POINT( '', ( 3.74766230933717, 2.00000000000000, -1.15470053837925 ) );
#705 = CARTESIAN_POINT( '', ( 3.68932897600383, 1.00000000000000, -1.73205080756887 ) );
#706 = CARTESIAN_POINT( '', ( 3.63099564267050, 1.52765718612845E-014, -2.30940107675850 ) );
#707 = CARTESIAN_POINT( '', ( 3.57266230933717, -1.00000000000000, -1.73205080756888 ) );
#708 = CARTESIAN_POINT( '', ( 3.51432897600384, -1.99999999999999, -1.15470053837925 ) );
#709 = CARTESIAN_POINT( '', ( 3.45599564267050, -2.00000000000000, -9.79965031572515E-015 ) );
#710 = CARTESIAN_POINT( '', ( 3.39766230933717, -2.00000000000000, 1.15470053837925 ) );
#711 = CARTESIAN_POINT( '', ( 3.33932897600384, -1.00000000000000, 1.73205080756887 ) );
#712 = CARTESIAN_POINT( '', ( 3.32409893779248, -0.738913630662469, 1.88278909318763 ) );
#713 = CARTESIAN_POINT( '', ( 3.30695362960982, -0.444994061816911, 1.94986673517645 ) );
#719 = CARTESIAN_POINT( '', ( 6.80000000000000, 1.57459299261435, -0.380863371315419 ) );
#722 = CARTESIAN_POINT( '', ( 6.79999999999999, 1.57459299261434, -0.380863371315499 ) );
#723 = CARTESIAN_POINT( '', ( 6.75202882941778, 1.41134517272104, -1.05577435678441 ) );
#724 = CARTESIAN_POINT( '', ( 6.70872207829589, 0.810000000000000, -1.40296115413078 ) );
#725 = CARTESIAN_POINT( '', ( 6.65038874496256, 2.23415038994684E-015, -1.87061487217439 ) );
#726 = CARTESIAN_POINT( '', ( 6.59205541162923, -0.810000000000000, -1.40296115413079 ) );
#727 = CARTESIAN_POINT( '', ( 6.53372207829589, -1.61999999999999, -0.935307436087193 ) );
#728 = CARTESIAN_POINT( '', ( 6.47538874496256, -1.62000000000000, -5.95178344385611E-016 ) );
#729 = CARTESIAN_POINT( '', ( 6.41705541162923, -1.61999999999999, 0.935307436087193 ) );
#730 = CARTESIAN_POINT( '', ( 6.35872207829589, -0.810000000000000, 1.40296115413078 ) );
#731 = CARTESIAN_POINT( '', ( 6.30038874496255, -8.01794880476027E-016, 1.87061487217439 ) );
#732 = CARTESIAN_POINT( '', ( 6.24205541162923, 0.810000000000000, 1.40296115413079 ) );
#733 = CARTESIAN_POINT( '', ( 6.18372207829589, 1.61999999999999, 0.935307436087193 ) );
#734 = CARTESIAN_POINT( '', ( 6.12538874496256, 1.62000000000000, 7.93571125847482E-016 ) );
#735 = CARTESIAN_POINT( '', ( 6.06705541162923, 1.61999999999999, -0.935307436087193 ) );
#736 = CARTESIAN_POINT( '', ( 6.00872207829589, 0.810000000000000, -1.40296115413078 ) );
#737 = CARTESIAN_POINT( '', ( 5.95038874496256, 4.35375865411139E-015, -1.87061487217439 ) );
#738 = CARTESIAN_POINT( '', ( 5.89205541162923, -0.810000000000000, -1.40296115413079 ) );
#739 = CARTESIAN_POINT( '', ( 5.83372207829590, -1.61999999999999, -0.935307436087193 ) );
#740 = CARTESIAN_POINT( '', ( 5.77538874496256, -1.62000000000000, -3.86966198713774E-015 ) );
#741 = CARTESIAN_POINT( '', ( 5.71705541162922, -1.61999999999999, 0.935307436087193 ) );
#742 = CARTESIAN_POINT( '', ( 5.65872207829589, -0.810000000000000, 1.40296115413078 ) );
#743 = CARTESIAN_POINT( '', ( 5.60038874496256, -4.58284290567597E-015, 1.87061487217439 ) );
#744 = CARTESIAN_POINT( '', ( 5.54205541162923, 0.810000000000000, 1.40296115413079 ) );
#745 = CARTESIAN_POINT( '', ( 5.48372207829589, 1.61999999999999, 0.935307436087193 ) );
#746 = CARTESIAN_POINT( '', ( 5.42538874496256, 1.62000000000000, 1.19035668877122E-015 ) );
#747 = CARTESIAN_POINT( '', ( 5.36705541162923, 1.61999999999999, -0.935307436087193 ) );
#748 = CARTESIAN_POINT( '', ( 5.30872207829589, 0.810000000000000, -1.40296115413078 ) );
#749 = CARTESIAN_POINT( '', ( 5.25038874496255, 4.81192715724055E-015, -1.87061487217439 ) );
#750 = CARTESIAN_POINT( '', ( 5.19205541162923, -0.810000000000000, -1.40296115413079 ) );
#751 = CARTESIAN_POINT( '', ( 5.13372207829589, -1.61999999999999, -0.935307436087193 ) );
#752 = CARTESIAN_POINT( '', ( 5.07538874496256, -1.62000000000000, -1.38874947023309E-015 ) );
#753 = CARTESIAN_POINT( '', ( 5.01705541162923, -1.61999999999999, 0.935307436087193 ) );
#754 = CARTESIAN_POINT( '', ( 4.95872207829589, -0.810000000000000, 1.40296115413078 ) );
#755 = CARTESIAN_POINT( '', ( 4.90038874496256, -5.04101140880513E-015, 1.87061487217439 ) );
#756 = CARTESIAN_POINT( '', ( 4.84205541162923, 0.810000000000000, 1.40296115413079 ) );
#757 = CARTESIAN_POINT( '', ( 4.78372207829589, 1.61999999999999, 0.935307436087193 ) );
#758 = CARTESIAN_POINT( '', ( 4.72538874496256, 1.62000000000000, 1.58714225169497E-015 ) );
#759 = CARTESIAN_POINT( '', ( 4.66705541162922, 1.61999999999999, -0.935307436087193 ) );
#760 = CARTESIAN_POINT( '', ( 4.60872207829589, 0.810000000000000, -1.40296115413078 ) );
#761 = CARTESIAN_POINT( '', ( 4.55038874496256, 5.27009566036970E-015, -1.87061487217439 ) );
#762 = CARTESIAN_POINT( '', ( 4.49205541162923, -0.810000000000000, -1.40296115413079 ) );
#763 = CARTESIAN_POINT( '', ( 4.43372207829589, -1.61999999999999, -0.935307436087193 ) );
#764 = CARTESIAN_POINT( '', ( 4.37538874496256, -1.62000000000000, -7.54093119281362E-015 ) );
#765 = CARTESIAN_POINT( '', ( 4.31705541162922, -1.61999999999999, 0.935307436087193 ) );
#766 = CARTESIAN_POINT( '', ( 4.25872207829590, -0.810000000000000, 1.40296115413078 ) );
#767 = CARTESIAN_POINT( '', ( 4.20038874496256, -5.49917991193428E-015, 1.87061487217439 ) );
#768 = CARTESIAN_POINT( '', ( 4.14205541162923, 0.810000000000000, 1.40296115413079 ) );
#769 = CARTESIAN_POINT( '', ( 4.08372207829589, 1.61999999999999, 0.935307436087193 ) );
#770 = CARTESIAN_POINT( '', ( 4.02538874496256, 1.62000000000000, 7.73932397427549E-015 ) );
#771 = CARTESIAN_POINT( '', ( 3.96705541162923, 1.61999999999999, -0.935307436087193 ) );
#772 = CARTESIAN_POINT( '', ( 3.90872207829589, 0.810000000000000, -1.40296115413078 ) );
#773 = CARTESIAN_POINT( '', ( 3.85038874496256, 1.23740232076404E-014, -1.87061487217439 ) );
#774 = CARTESIAN_POINT( '', ( 3.79205541162922, -0.810000000000000, -1.40296115413079 ) );
#775 = CARTESIAN_POINT( '', ( 3.73372207829589, -1.61999999999999, -0.935307436087193 ) );
#776 = CARTESIAN_POINT( '', ( 3.67538874496256, -1.62000000000000, -7.93771675573737E-015 ) );
#777 = CARTESIAN_POINT( '', ( 3.61705541162923, -1.61999999999999, 0.935307436087193 ) );
#778 = CARTESIAN_POINT( '', ( 3.55872207829589, -0.810000000000000, 1.40296115413078 ) );
#779 = CARTESIAN_POINT( '', ( 3.54349152693687, -0.598512915414658, 1.52506327934626 ) );
#780 = CARTESIAN_POINT( '', ( 3.52634560221206, -0.360429503521588, 1.57939563535903 ) );
#786 = CARTESIAN_POINT( '', ( 6.80000000000000, 1.37946371047171, 1.15632169896255 ) );
#787 = CARTESIAN_POINT( '', ( 6.80000000000000, 1.45319581946439, 1.04560480124414 ) );
#788 = CARTESIAN_POINT( '', ( 6.80000000000000, 1.51534541118886, 0.924276334513629 ) );
#789 = CARTESIAN_POINT( '', ( 6.80000000000000, 1.60895904204285, 0.674396693734649 ) );
#790 = CARTESIAN_POINT( '', ( 6.80000000000000, 1.64133860688552, 0.545126094764167 ) );
#791 = CARTESIAN_POINT( '', ( 6.80000000000000, 1.67629920360479, 0.277639959770863 ) );
#792 = CARTESIAN_POINT( '', ( 6.80000000000005, 1.67820925559350, 0.143990360040582 ) );
#793 = CARTESIAN_POINT( '', ( 6.80000000000005, 1.65205960617663, -0.121222450861396 ) );
#794 = CARTESIAN_POINT( '', ( 6.80000000000000, 1.62179066878204, -0.254095667420560 ) );
#795 = CARTESIAN_POINT( '', ( 6.80000000000000, 1.57459299261435, -0.380863371315423 ) );
#796 = COLOUR_RGB( '', 0.643137276172638, 0.678431391716003, 0.698039233684540 );
#797 = CARTESIAN_POINT( '', ( 2.47339420282465, 0.000000000000000, 1.62000000000000 ) );
#798 = AXIS2_PLACEMENT_3D( '', #902, #903, #904 );
#799 = CARTESIAN_POINT( '', ( 6.80000000000000, -1.36647933097083, -0.870134609143601 ) );
#800 = AXIS2_PLACEMENT_3D( '', #905, #906, #907 );
#803 = CARTESIAN_POINT( '', ( 6.80000000000000, -1.36647933097083, -0.870134609143604 ) );
#804 = CARTESIAN_POINT( '', ( 6.76604027262117, -1.62000000000000, -0.471999940597080 ) );
#805 = CARTESIAN_POINT( '', ( 6.73660254037845, -1.62000000000000, -1.98392781461871E-016 ) );
#806 = CARTESIAN_POINT( '', ( 6.67826920704511, -1.61999999999999, 0.935307436087193 ) );
#807 = CARTESIAN_POINT( '', ( 6.61993587371178, -0.810000000000000, 1.40296115413078 ) );
#808 = CARTESIAN_POINT( '', ( 6.56160254037844, -3.43626377346868E-016, 1.87061487217439 ) );
#809 = CARTESIAN_POINT( '', ( 6.50326920704511, 0.810000000000000, 1.40296115413079 ) );
#810 = CARTESIAN_POINT( '', ( 6.44493587371178, 1.61999999999999, 0.935307436087193 ) );
#811 = CARTESIAN_POINT( '', ( 6.38660254037844, 1.62000000000000, 3.96785562923741E-016 ) );
#812 = CARTESIAN_POINT( '', ( 6.32826920704511, 1.61999999999999, -0.935307436087193 ) );
#813 = CARTESIAN_POINT( '', ( 6.26993587371178, 0.810000000000000, -1.40296115413078 ) );
#814 = CARTESIAN_POINT( '', ( 6.21160254037845, 2.23415038994684E-015, -1.87061487217439 ) );
#815 = CARTESIAN_POINT( '', ( 6.15326920704511, -0.810000000000000, -1.40296115413079 ) );
#816 = CARTESIAN_POINT( '', ( 6.09493587371177, -1.61999999999999, -0.935307436087193 ) );
#817 = CARTESIAN_POINT( '', ( 6.03660254037845, -1.62000000000000, -5.95178344385611E-016 ) );
#818 = CARTESIAN_POINT( '', ( 5.97826920704511, -1.61999999999999, 0.935307436087193 ) );
#819 = CARTESIAN_POINT( '', ( 5.91993587371178, -0.810000000000000, 1.40296115413078 ) );
#820 = CARTESIAN_POINT( '', ( 5.86160254037844, -8.01794880476027E-016, 1.87061487217439 ) );
#821 = CARTESIAN_POINT( '', ( 5.80326920704511, 0.810000000000000, 1.40296115413079 ) );
#822 = CARTESIAN_POINT( '', ( 5.74493587371178, 1.61999999999999, 0.935307436087193 ) );
#823 = CARTESIAN_POINT( '', ( 5.68660254037844, 1.62000000000000, 7.93571125847482E-016 ) );
#824 = CARTESIAN_POINT( '', ( 5.62826920704512, 1.61999999999999, -0.935307436087193 ) );
#825 = CARTESIAN_POINT( '', ( 5.56993587371178, 0.810000000000000, -1.40296115413078 ) );
#826 = CARTESIAN_POINT( '', ( 5.51160254037844, 4.35375865411139E-015, -1.87061487217439 ) );
#827 = CARTESIAN_POINT( '', ( 5.45326920704511, -0.810000000000000, -1.40296115413079 ) );
#828 = CARTESIAN_POINT( '', ( 5.39493587371178, -1.61999999999999, -0.935307436087193 ) );
#829 = CARTESIAN_POINT( '', ( 5.33660254037844, -1.62000000000000, -3.86966198713774E-015 ) );
#830 = CARTESIAN_POINT( '', ( 5.27826920704511, -1.61999999999999, 0.935307436087193 ) );
#831 = CARTESIAN_POINT( '', ( 5.21993587371178, -0.810000000000000, 1.40296115413078 ) );
#832 = CARTESIAN_POINT( '', ( 5.16160254037845, -4.58284290567597E-015, 1.87061487217439 ) );
#833 = CARTESIAN_POINT( '', ( 5.10326920704511, 0.810000000000000, 1.40296115413079 ) );
#834 = CARTESIAN_POINT( '', ( 5.04493587371178, 1.61999999999999, 0.935307436087193 ) );
#835 = CARTESIAN_POINT( '', ( 4.98660254037845, 1.62000000000000, 1.19035668877122E-015 ) );
#836 = CARTESIAN_POINT( '', ( 4.92826920704511, 1.61999999999999, -0.935307436087193 ) );
#837 = CARTESIAN_POINT( '', ( 4.86993587371178, 0.810000000000000, -1.40296115413078 ) );
#838 = CARTESIAN_POINT( '', ( 4.81160254037844, 4.81192715724055E-015, -1.87061487217439 ) );
#839 = CARTESIAN_POINT( '', ( 4.75326920704511, -0.810000000000000, -1.40296115413079 ) );
#840 = CARTESIAN_POINT( '', ( 4.69493587371178, -1.61999999999999, -0.935307436087193 ) );
#841 = CARTESIAN_POINT( '', ( 4.63660254037844, -1.62000000000000, -1.38874947023309E-015 ) );
#842 = CARTESIAN_POINT( '', ( 4.57826920704511, -1.61999999999999, 0.935307436087193 ) );
#843 = CARTESIAN_POINT( '', ( 4.51993587371178, -0.810000000000000, 1.40296115413078 ) );
#844 = CARTESIAN_POINT( '', ( 4.46160254037844, -5.04101140880513E-015, 1.87061487217439 ) );
#845 = CARTESIAN_POINT( '', ( 4.40326920704511, 0.810000000000000, 1.40296115413079 ) );
#846 = CARTESIAN_POINT( '', ( 4.34493587371178, 1.61999999999999, 0.935307436087193 ) );
#847 = CARTESIAN_POINT( '', ( 4.28660254037844, 1.62000000000000, 1.58714225169497E-015 ) );
#848 = CARTESIAN_POINT( '', ( 4.22826920704511, 1.61999999999999, -0.935307436087193 ) );
#849 = CARTESIAN_POINT( '', ( 4.16993587371178, 0.810000000000000, -1.40296115413078 ) );
#850 = CARTESIAN_POINT( '', ( 4.11160254037844, 5.27009566036970E-015, -1.87061487217439 ) );
#851 = CARTESIAN_POINT( '', ( 4.05326920704511, -0.810000000000000, -1.40296115413079 ) );
#852 = CARTESIAN_POINT( '', ( 3.99493587371177, -1.61999999999999, -0.935307436087193 ) );
#853 = CARTESIAN_POINT( '', ( 3.93660254037845, -1.62000000000000, -7.54093119281362E-015 ) );
#854 = CARTESIAN_POINT( '', ( 3.87826920704511, -1.61999999999999, 0.935307436087193 ) );
#855 = CARTESIAN_POINT( '', ( 3.81993587371178, -0.810000000000000, 1.40296115413078 ) );
#856 = CARTESIAN_POINT( '', ( 3.76160254037845, -5.49917991193428E-015, 1.87061487217439 ) );
#857 = CARTESIAN_POINT( '', ( 3.70326920704511, 0.810000000000000, 1.40296115413079 ) );
#858 = CARTESIAN_POINT( '', ( 3.64493587371178, 1.61999999999999, 0.935307436087193 ) );
#859 = CARTESIAN_POINT( '', ( 3.58660254037845, 1.62000000000000, 7.73932397427549E-015 ) );
#860 = CARTESIAN_POINT( '', ( 3.52826920704511, 1.61999999999999, -0.935307436087193 ) );
#861 = CARTESIAN_POINT( '', ( 3.46993587371178, 0.810000000000000, -1.40296115413078 ) );
#862 = CARTESIAN_POINT( '', ( 3.41160254037844, 1.23740232076404E-014, -1.87061487217439 ) );
#863 = CARTESIAN_POINT( '', ( 3.35326920704511, -0.810000000000000, -1.40296115413079 ) );
#864 = CARTESIAN_POINT( '', ( 3.29493587371178, -1.61999999999999, -0.935307436087193 ) );
#865 = CARTESIAN_POINT( '', ( 3.23660254037845, -1.62000000000000, -7.93771675573737E-015 ) );
#866 = CARTESIAN_POINT( '', ( 3.17826920704511, -1.61999999999999, 0.935307436087193 ) );
#867 = CARTESIAN_POINT( '', ( 3.11993587371178, -0.810000000000000, 1.40296115413078 ) );
#868 = CARTESIAN_POINT( '', ( 3.10470532006797, -0.598512883688879, 1.52506329766315 ) );
#869 = CARTESIAN_POINT( '', ( 3.08755939259802, -0.360429433677555, 1.57939565129795 ) );
#875 = COLOUR_RGB( '', 0.643137276172638, 0.678431391716003, 0.698039233684540 );
#876 = CARTESIAN_POINT( '', ( 0.000000000000000, 0.000000000000000, 3.50000000000000 ) );
#877 = AXIS2_PLACEMENT_3D( '', #908, #909, #910 );
#878 = COLOUR_RGB( '', 0.643137276172638, 0.678431391716003, 0.698039233684540 );
#879 = COLOUR_RGB( '', 0.643137276172638, 0.678431391716003, 0.698039233684540 );
#880 = CARTESIAN_POINT( '', ( 6.80000000000000, -1.36647933097081, -0.870134609143632 ) );
#881 = CARTESIAN_POINT( '', ( 6.80000000000000, -1.45293824001894, -0.765591450408375 ) );
#882 = CARTESIAN_POINT( '', ( 6.80000000000000, -1.52477391680376, -0.652343671924833 ) );
#883 = CARTESIAN_POINT( '', ( 6.80000000000000, -1.63989675998155, -0.408854339377630 ) );
#884 = CARTESIAN_POINT( '', ( 6.80000000000018, -1.68222458486242, -0.279520107443129 ) );
#885 = CARTESIAN_POINT( '', ( 6.80000000000018, -1.73353684552258, -0.0169017198234184 ) );
#886 = CARTESIAN_POINT( '', ( 6.80000000000000, -1.74288376893334, 0.119465576778587 ) );
#887 = CARTESIAN_POINT( '', ( 6.80000000000000, -1.73257836540210, 0.387712271289960 ) );
#888 = CARTESIAN_POINT( '', ( 6.80000000000000, -1.71273744388782, 0.520688935349619 ) );
#889 = CARTESIAN_POINT( '', ( 6.80000000000000, -1.67795350714517, 0.651515178533257 ) );
#890 = COLOUR_RGB( '', 0.643137276172638, 0.678431391716003, 0.698039233684540 );
#891 = COLOUR_RGB( '', 0.643137276172638, 0.678431391716003, 0.698039233684540 );
#892 = CARTESIAN_POINT( '', ( 6.80000000000000, 0.000000000000000, 0.000000000000000 ) );
#893 = DIRECTION( '', ( -1.00000000000000, 0.000000000000000, 0.000000000000000 ) );
#894 = DIRECTION( '', ( 0.000000000000000, 0.000000000000000, 1.00000000000000 ) );
#895 = CARTESIAN_POINT( '', ( 7.00000000000000, 0.000000000000000, 0.000000000000000 ) );
#896 = DIRECTION( '', ( -1.00000000000000, 0.000000000000000, 0.000000000000000 ) );
#897 = DIRECTION( '', ( 0.000000000000000, 0.000000000000000, 1.00000000000000 ) );
#898 = CARTESIAN_POINT( '', ( 7.00000000000000, 0.000000000000000, 0.000000000000000 ) );
#899 = DIRECTION( '', ( -1.00000000000000, 0.000000000000000, 0.000000000000000 ) );
#900 = DIRECTION( '', ( 0.000000000000000, 0.000000000000000, 1.00000000000000 ) );
#901 = DIRECTION( '', ( -1.00000000000000, 0.000000000000000, 0.000000000000000 ) );
#902 = CARTESIAN_POINT( '', ( 2.47339420282465, 0.000000000000000, 0.000000000000000 ) );
#903 = DIRECTION( '', ( -1.00000000000000, 0.000000000000000, 0.000000000000000 ) );
#904 = DIRECTION( '', ( 0.000000000000000, 0.000000000000000, 1.00000000000000 ) );
#905 = CARTESIAN_POINT( '', ( 6.80000000000000, 0.000000000000000, 0.000000000000000 ) );
#906 = DIRECTION( '', ( 1.00000000000000, 0.000000000000000, 0.000000000000000 ) );
#907 = DIRECTION( '', ( 0.000000000000000, 0.000000000000000, -1.00000000000000 ) );
#908 = CARTESIAN_POINT( '', ( 0.000000000000000, 0.000000000000000, 0.000000000000000 ) );
#909 = DIRECTION( '', ( -1.00000000000000, 0.000000000000000, 0.000000000000000 ) );
#910 = DIRECTION( '', ( 0.000000000000000, 0.000000000000000, 1.00000000000000 ) );
ENDSEC;
END-ISO-10303-21;
