ISO-10303-21;
HEADER;
FILE_DESCRIPTION((''),'2;1');
FILE_NAME('SRU5028','2012-07-13T',('ryans'),('Bourns, Inc.'),
'PRO/ENGINEER BY PARAMETRIC TECHNOLOGY CORPORATION, 2010100',
'PRO/ENGINEER BY PARAMETRIC TECHNOLOGY CORPORATION, 2010100','');
FILE_SCHEMA(('CONFIG_CONTROL_DESIGN'));
ENDSEC;
DATA;
#1=CARTESIAN_POINT('',(0.E0,2.6E0,0.E0));
#2=DIRECTION('',(0.E0,1.E0,0.E0));
#3=DIRECTION('',(1.E0,0.E0,0.E0));
#4=AXIS2_PLACEMENT_3D('',#1,#2,#3);
#6=CARTESIAN_POINT('',(0.E0,2.6E0,0.E0));
#7=DIRECTION('',(0.E0,1.E0,0.E0));
#8=DIRECTION('',(-1.E0,0.E0,0.E0));
#9=AXIS2_PLACEMENT_3D('',#6,#7,#8);
#11=CARTESIAN_POINT('',(0.E0,2.6E0,0.E0));
#12=DIRECTION('',(0.E0,-1.E0,0.E0));
#13=DIRECTION('',(1.E0,0.E0,0.E0));
#14=AXIS2_PLACEMENT_3D('',#11,#12,#13);
#16=CARTESIAN_POINT('',(0.E0,2.6E0,0.E0));
#17=DIRECTION('',(0.E0,-1.E0,0.E0));
#18=DIRECTION('',(-1.E0,0.E0,0.E0));
#19=AXIS2_PLACEMENT_3D('',#16,#17,#18);
#21=DIRECTION('',(-7.071067811865E-1,0.E0,7.071067811865E-1));
#22=VECTOR('',#21,2.153910524340E0);
#23=CARTESIAN_POINT('',(-1.076955262170E0,2.6E0,-2.6E0));
#24=LINE('',#23,#22);
#25=DIRECTION('',(-1.E0,0.E0,0.E0));
#26=VECTOR('',#25,2.153910524340E0);
#27=CARTESIAN_POINT('',(1.076955262170E0,2.6E0,-2.6E0));
#28=LINE('',#27,#26);
#29=DIRECTION('',(-7.071067811865E-1,0.E0,-7.071067811865E-1));
#30=VECTOR('',#29,2.153910524340E0);
#31=CARTESIAN_POINT('',(2.6E0,2.6E0,-1.076955262170E0));
#32=LINE('',#31,#30);
#33=DIRECTION('',(0.E0,0.E0,-1.E0));
#34=VECTOR('',#33,2.153910524340E0);
#35=CARTESIAN_POINT('',(2.6E0,2.6E0,1.076955262170E0));
#36=LINE('',#35,#34);
#37=DIRECTION('',(7.071067811865E-1,0.E0,-7.071067811865E-1));
#38=VECTOR('',#37,2.153910524340E0);
#39=CARTESIAN_POINT('',(1.076955262170E0,2.6E0,2.6E0));
#40=LINE('',#39,#38);
#41=DIRECTION('',(1.E0,0.E0,0.E0));
#42=VECTOR('',#41,2.153910524340E0);
#43=CARTESIAN_POINT('',(-1.076955262170E0,2.6E0,2.6E0));
#44=LINE('',#43,#42);
#45=DIRECTION('',(7.071067811865E-1,0.E0,7.071067811865E-1));
#46=VECTOR('',#45,2.153910524340E0);
#47=CARTESIAN_POINT('',(-2.6E0,2.6E0,1.076955262170E0));
#48=LINE('',#47,#46);
#49=DIRECTION('',(0.E0,0.E0,1.E0));
#50=VECTOR('',#49,2.153910524340E0);
#51=CARTESIAN_POINT('',(-2.6E0,2.6E0,-1.076955262170E0));
#52=LINE('',#51,#50);
#53=CARTESIAN_POINT('',(0.E0,0.E0,0.E0));
#54=DIRECTION('',(0.E0,-1.E0,0.E0));
#55=DIRECTION('',(9.736842105263E-1,0.E0,-2.279014220485E-1));
#56=AXIS2_PLACEMENT_3D('',#53,#54,#55);
#58=DIRECTION('',(0.E0,1.E0,0.E0));
#59=VECTOR('',#58,2.6E0);
#60=CARTESIAN_POINT('',(1.9E0,0.E0,0.E0));
#61=LINE('',#60,#59);
#62=CARTESIAN_POINT('',(0.E0,0.E0,0.E0));
#63=DIRECTION('',(0.E0,-1.E0,0.E0));
#64=DIRECTION('',(-1.E0,0.E0,0.E0));
#65=AXIS2_PLACEMENT_3D('',#62,#63,#64);
#67=CARTESIAN_POINT('',(0.E0,0.E0,0.E0));
#68=DIRECTION('',(0.E0,-1.E0,0.E0));
#69=DIRECTION('',(-2.279014220485E-1,0.E0,-9.736842105263E-1));
#70=AXIS2_PLACEMENT_3D('',#67,#68,#69);
#72=DIRECTION('',(0.E0,0.E0,-1.E0));
#73=VECTOR('',#72,4.669872981078E-1);
#74=CARTESIAN_POINT('',(1.85E0,-1.E-1,-4.330127018922E-1));
#75=LINE('',#74,#73);
#76=DIRECTION('',(0.E0,-1.E0,0.E0));
#77=VECTOR('',#76,1.E-1);
#78=CARTESIAN_POINT('',(1.85E0,0.E0,-9.E-1));
#79=LINE('',#78,#77);
#80=DIRECTION('',(0.E0,1.E0,-1.043609643148E-13));
#81=VECTOR('',#80,1.E-1);
#82=CARTESIAN_POINT('',(1.85E0,-1.E-1,-4.330127018922E-1));
#83=LINE('',#82,#81);
#84=DIRECTION('',(0.E0,0.E0,-1.E0));
#85=VECTOR('',#84,4.669872981078E-1);
#86=CARTESIAN_POINT('',(1.85E0,-1.E-1,9.E-1));
#87=LINE('',#86,#85);
#88=DIRECTION('',(2.664535259100E-14,1.E0,-1.681987882307E-13));
#89=VECTOR('',#88,1.E-1);
#90=CARTESIAN_POINT('',(1.85E0,-1.E-1,4.330127018922E-1));
#91=LINE('',#90,#89);
#92=DIRECTION('',(-7.071067811865E-1,-7.071067811865E-1,0.E0));
#93=VECTOR('',#92,1.414213562373E-1);
#94=CARTESIAN_POINT('',(2.6E0,-1.E-1,-9.E-1));
#95=LINE('',#94,#93);
#96=DIRECTION('',(0.E0,-1.E0,0.E0));
#97=VECTOR('',#96,1.E-1);
#98=CARTESIAN_POINT('',(2.6E0,0.E0,-9.E-1));
#99=LINE('',#98,#97);
#100=DIRECTION('',(-7.071067811865E-1,7.071067811865E-1,0.E0));
#101=VECTOR('',#100,1.414213562373E-1);
#102=CARTESIAN_POINT('',(1.95E0,-2.E-1,-9.E-1));
#103=LINE('',#102,#101);
#104=DIRECTION('',(7.071067811865E-1,7.071067811865E-1,0.E0));
#105=VECTOR('',#104,1.414213562373E-1);
#106=CARTESIAN_POINT('',(2.5E0,-2.E-1,9.E-1));
#107=LINE('',#106,#105);
#108=DIRECTION('',(7.071067811865E-1,-7.071067811865E-1,0.E0));
#109=VECTOR('',#108,1.414213562373E-1);
#110=CARTESIAN_POINT('',(1.85E0,-1.E-1,9.E-1));
#111=LINE('',#110,#109);
#112=DIRECTION('',(0.E0,-1.E0,0.E0));
#113=VECTOR('',#112,1.E-1);
#114=CARTESIAN_POINT('',(1.85E0,0.E0,9.E-1));
#115=LINE('',#114,#113);
#116=DIRECTION('',(0.E0,0.E0,1.E0));
#117=VECTOR('',#116,1.8E0);
#118=CARTESIAN_POINT('',(2.5E0,-2.E-1,-9.E-1));
#119=LINE('',#118,#117);
#120=DIRECTION('',(-1.E0,0.E0,0.E0));
#121=VECTOR('',#120,5.5E-1);
#122=CARTESIAN_POINT('',(2.5E0,-2.E-1,-9.E-1));
#123=LINE('',#122,#121);
#124=DIRECTION('',(0.E0,0.E0,-1.E0));
#125=VECTOR('',#124,1.8E0);
#126=CARTESIAN_POINT('',(1.95E0,-2.E-1,9.E-1));
#127=LINE('',#126,#125);
#128=DIRECTION('',(1.E0,0.E0,0.E0));
#129=VECTOR('',#128,5.5E-1);
#130=CARTESIAN_POINT('',(1.95E0,-2.E-1,9.E-1));
#131=LINE('',#130,#129);
#132=DIRECTION('',(-1.E0,0.E0,0.E0));
#133=VECTOR('',#132,1.8E0);
#134=CARTESIAN_POINT('',(9.E-1,-2.E-1,2.5E0));
#135=LINE('',#134,#133);
#136=DIRECTION('',(0.E0,0.E0,-1.E0));
#137=VECTOR('',#136,5.5E-1);
#138=CARTESIAN_POINT('',(9.E-1,-2.E-1,2.5E0));
#139=LINE('',#138,#137);
#140=DIRECTION('',(1.E0,0.E0,0.E0));
#141=VECTOR('',#140,1.8E0);
#142=CARTESIAN_POINT('',(-9.E-1,-2.E-1,1.95E0));
#143=LINE('',#142,#141);
#144=DIRECTION('',(0.E0,0.E0,1.E0));
#145=VECTOR('',#144,5.5E-1);
#146=CARTESIAN_POINT('',(-9.E-1,-2.E-1,1.95E0));
#147=LINE('',#146,#145);
#148=DIRECTION('',(0.E0,0.E0,1.E0));
#149=VECTOR('',#148,1.8E0);
#150=CARTESIAN_POINT('',(-1.95E0,-2.E-1,-9.E-1));
#151=LINE('',#150,#149);
#152=DIRECTION('',(-1.E0,0.E0,0.E0));
#153=VECTOR('',#152,5.5E-1);
#154=CARTESIAN_POINT('',(-1.95E0,-2.E-1,-9.E-1));
#155=LINE('',#154,#153);
#156=DIRECTION('',(0.E0,0.E0,-1.E0));
#157=VECTOR('',#156,1.8E0);
#158=CARTESIAN_POINT('',(-2.5E0,-2.E-1,9.E-1));
#159=LINE('',#158,#157);
#160=DIRECTION('',(1.E0,0.E0,0.E0));
#161=VECTOR('',#160,5.5E-1);
#162=CARTESIAN_POINT('',(-2.5E0,-2.E-1,9.E-1));
#163=LINE('',#162,#161);
#164=DIRECTION('',(-1.E0,0.E0,0.E0));
#165=VECTOR('',#164,1.8E0);
#166=CARTESIAN_POINT('',(9.E-1,-2.E-1,-1.95E0));
#167=LINE('',#166,#165);
#168=DIRECTION('',(0.E0,0.E0,-1.E0));
#169=VECTOR('',#168,5.5E-1);
#170=CARTESIAN_POINT('',(9.E-1,-2.E-1,-1.95E0));
#171=LINE('',#170,#169);
#172=DIRECTION('',(1.E0,0.E0,0.E0));
#173=VECTOR('',#172,1.8E0);
#174=CARTESIAN_POINT('',(-9.E-1,-2.E-1,-2.5E0));
#175=LINE('',#174,#173);
#176=DIRECTION('',(0.E0,0.E0,1.E0));
#177=VECTOR('',#176,5.5E-1);
#178=CARTESIAN_POINT('',(-9.E-1,-2.E-1,-2.5E0));
#179=LINE('',#178,#177);
#180=DIRECTION('',(0.E0,7.071067811865E-1,7.071067811865E-1));
#181=VECTOR('',#180,1.414213562373E-1);
#182=CARTESIAN_POINT('',(-9.E-1,-2.E-1,2.5E0));
#183=LINE('',#182,#181);
#184=DIRECTION('',(0.E0,-7.071067811865E-1,7.071067811865E-1));
#185=VECTOR('',#184,1.414213562373E-1);
#186=CARTESIAN_POINT('',(-9.E-1,-1.E-1,1.85E0));
#187=LINE('',#186,#185);
#188=DIRECTION('',(0.E0,-1.E0,0.E0));
#189=VECTOR('',#188,1.E-1);
#190=CARTESIAN_POINT('',(-9.E-1,0.E0,1.85E0));
#191=LINE('',#190,#189);
#192=DIRECTION('',(0.E0,-7.071067811865E-1,-7.071067811865E-1));
#193=VECTOR('',#192,1.414213562373E-1);
#194=CARTESIAN_POINT('',(9.E-1,-1.E-1,2.6E0));
#195=LINE('',#194,#193);
#196=DIRECTION('',(0.E0,-1.E0,0.E0));
#197=VECTOR('',#196,1.E-1);
#198=CARTESIAN_POINT('',(9.E-1,0.E0,2.6E0));
#199=LINE('',#198,#197);
#200=DIRECTION('',(0.E0,7.071067811865E-1,-7.071067811865E-1));
#201=VECTOR('',#200,1.414213562373E-1);
#202=CARTESIAN_POINT('',(9.E-1,-2.E-1,1.95E0));
#203=LINE('',#202,#201);
#204=DIRECTION('',(-1.E0,0.E0,0.E0));
#205=VECTOR('',#204,1.8E0);
#206=CARTESIAN_POINT('',(9.E-1,-1.E-1,2.6E0));
#207=LINE('',#206,#205);
#208=DIRECTION('',(0.E0,-1.E0,0.E0));
#209=VECTOR('',#208,1.E-1);
#210=CARTESIAN_POINT('',(-9.E-1,0.E0,2.6E0));
#211=LINE('',#210,#209);
#212=DIRECTION('',(0.E0,1.E0,0.E0));
#213=VECTOR('',#212,2.6E0);
#214=CARTESIAN_POINT('',(-1.076955262170E0,0.E0,2.6E0));
#215=LINE('',#214,#213);
#216=DIRECTION('',(-1.E0,0.E0,0.E0));
#217=VECTOR('',#216,7.5E-1);
#218=CARTESIAN_POINT('',(2.6E0,0.E0,-9.E-1));
#219=LINE('',#218,#217);
#220=DIRECTION('',(0.E0,0.E0,-1.E0));
#221=VECTOR('',#220,1.769552621700E-1);
#222=CARTESIAN_POINT('',(2.6E0,0.E0,-9.E-1));
#223=LINE('',#222,#221);
#224=DIRECTION('',(-7.071067811865E-1,0.E0,-7.071067811865E-1));
#225=VECTOR('',#224,2.153910524340E0);
#226=CARTESIAN_POINT('',(2.6E0,0.E0,-1.076955262170E0));
#227=LINE('',#226,#225);
#228=DIRECTION('',(-1.E0,0.E0,0.E0));
#229=VECTOR('',#228,1.769552621700E-1);
#230=CARTESIAN_POINT('',(1.076955262170E0,0.E0,-2.6E0));
#231=LINE('',#230,#229);
#232=DIRECTION('',(0.E0,0.E0,1.E0));
#233=VECTOR('',#232,7.5E-1);
#234=CARTESIAN_POINT('',(9.E-1,0.E0,-2.6E0));
#235=LINE('',#234,#233);
#236=DIRECTION('',(1.E0,0.E0,0.E0));
#237=VECTOR('',#236,2.835585997031E-1);
#238=CARTESIAN_POINT('',(6.164414002969E-1,0.E0,-1.85E0));
#239=LINE('',#238,#237);
#240=CARTESIAN_POINT('',(0.E0,0.E0,0.E0));
#241=DIRECTION('',(0.E0,-1.E0,0.E0));
#242=DIRECTION('',(3.161237950240E-1,0.E0,-9.487179487179E-1));
#243=AXIS2_PLACEMENT_3D('',#240,#241,#242);
#245=DIRECTION('',(0.E0,0.E0,1.E0));
#246=VECTOR('',#245,2.835585997031E-1);
#247=CARTESIAN_POINT('',(1.85E0,0.E0,-9.E-1));
#248=LINE('',#247,#246);
#249=DIRECTION('',(0.E0,0.E0,1.E0));
#250=VECTOR('',#249,2.835585997031E-1);
#251=CARTESIAN_POINT('',(1.85E0,0.E0,6.164414002969E-1));
#252=LINE('',#251,#250);
#253=CARTESIAN_POINT('',(0.E0,0.E0,0.E0));
#254=DIRECTION('',(0.E0,-1.E0,0.E0));
#255=DIRECTION('',(9.487179487179E-1,0.E0,3.161237950240E-1));
#256=AXIS2_PLACEMENT_3D('',#253,#254,#255);
#258=DIRECTION('',(-1.E0,0.E0,0.E0));
#259=VECTOR('',#258,2.835585997031E-1);
#260=CARTESIAN_POINT('',(9.E-1,0.E0,1.85E0));
#261=LINE('',#260,#259);
#262=DIRECTION('',(0.E0,0.E0,-1.E0));
#263=VECTOR('',#262,7.5E-1);
#264=CARTESIAN_POINT('',(9.E-1,0.E0,2.6E0));
#265=LINE('',#264,#263);
#266=DIRECTION('',(1.E0,0.E0,0.E0));
#267=VECTOR('',#266,1.769552621700E-1);
#268=CARTESIAN_POINT('',(9.E-1,0.E0,2.6E0));
#269=LINE('',#268,#267);
#270=DIRECTION('',(7.071067811865E-1,0.E0,-7.071067811865E-1));
#271=VECTOR('',#270,2.153910524340E0);
#272=CARTESIAN_POINT('',(1.076955262170E0,0.E0,2.6E0));
#273=LINE('',#272,#271);
#274=DIRECTION('',(0.E0,0.E0,-1.E0));
#275=VECTOR('',#274,1.769552621700E-1);
#276=CARTESIAN_POINT('',(2.6E0,0.E0,1.076955262170E0));
#277=LINE('',#276,#275);
#278=DIRECTION('',(-1.E0,0.E0,0.E0));
#279=VECTOR('',#278,7.5E-1);
#280=CARTESIAN_POINT('',(2.6E0,0.E0,9.E-1));
#281=LINE('',#280,#279);
#282=DIRECTION('',(1.E0,0.E0,0.E0));
#283=VECTOR('',#282,7.5E-1);
#284=CARTESIAN_POINT('',(-2.6E0,0.E0,9.E-1));
#285=LINE('',#284,#283);
#286=DIRECTION('',(0.E0,0.E0,1.E0));
#287=VECTOR('',#286,1.769552621700E-1);
#288=CARTESIAN_POINT('',(-2.6E0,0.E0,9.E-1));
#289=LINE('',#288,#287);
#290=DIRECTION('',(7.071067811865E-1,0.E0,7.071067811865E-1));
#291=VECTOR('',#290,2.153910524340E0);
#292=CARTESIAN_POINT('',(-2.6E0,0.E0,1.076955262170E0));
#293=LINE('',#292,#291);
#294=DIRECTION('',(1.E0,0.E0,0.E0));
#295=VECTOR('',#294,1.769552621700E-1);
#296=CARTESIAN_POINT('',(-1.076955262170E0,0.E0,2.6E0));
#297=LINE('',#296,#295);
#298=DIRECTION('',(0.E0,0.E0,-1.E0));
#299=VECTOR('',#298,7.5E-1);
#300=CARTESIAN_POINT('',(-9.E-1,0.E0,2.6E0));
#301=LINE('',#300,#299);
#302=DIRECTION('',(-1.E0,0.E0,0.E0));
#303=VECTOR('',#302,2.835585997031E-1);
#304=CARTESIAN_POINT('',(-6.164414002969E-1,0.E0,1.85E0));
#305=LINE('',#304,#303);
#306=CARTESIAN_POINT('',(0.E0,0.E0,0.E0));
#307=DIRECTION('',(0.E0,-1.E0,0.E0));
#308=DIRECTION('',(-3.161237950240E-1,0.E0,9.487179487179E-1));
#309=AXIS2_PLACEMENT_3D('',#306,#307,#308);
#311=DIRECTION('',(0.E0,0.E0,-1.E0));
#312=VECTOR('',#311,2.835585997031E-1);
#313=CARTESIAN_POINT('',(-1.85E0,0.E0,9.E-1));
#314=LINE('',#313,#312);
#315=DIRECTION('',(0.E0,0.E0,-1.E0));
#316=VECTOR('',#315,2.835585997031E-1);
#317=CARTESIAN_POINT('',(-1.85E0,0.E0,-6.164414002969E-1));
#318=LINE('',#317,#316);
#319=CARTESIAN_POINT('',(0.E0,0.E0,0.E0));
#320=DIRECTION('',(0.E0,-1.E0,0.E0));
#321=DIRECTION('',(-9.487179487179E-1,0.E0,-3.161237950241E-1));
#322=AXIS2_PLACEMENT_3D('',#319,#320,#321);
#324=DIRECTION('',(1.E0,0.E0,0.E0));
#325=VECTOR('',#324,2.835585997031E-1);
#326=CARTESIAN_POINT('',(-9.E-1,0.E0,-1.85E0));
#327=LINE('',#326,#325);
#328=DIRECTION('',(0.E0,0.E0,1.E0));
#329=VECTOR('',#328,7.5E-1);
#330=CARTESIAN_POINT('',(-9.E-1,0.E0,-2.6E0));
#331=LINE('',#330,#329);
#332=DIRECTION('',(-1.E0,0.E0,0.E0));
#333=VECTOR('',#332,1.769552621700E-1);
#334=CARTESIAN_POINT('',(-9.E-1,0.E0,-2.6E0));
#335=LINE('',#334,#333);
#336=DIRECTION('',(-7.071067811865E-1,0.E0,7.071067811865E-1));
#337=VECTOR('',#336,2.153910524340E0);
#338=CARTESIAN_POINT('',(-1.076955262170E0,0.E0,-2.6E0));
#339=LINE('',#338,#337);
#340=DIRECTION('',(0.E0,0.E0,1.E0));
#341=VECTOR('',#340,1.769552621700E-1);
#342=CARTESIAN_POINT('',(-2.6E0,0.E0,-1.076955262170E0));
#343=LINE('',#342,#341);
#344=DIRECTION('',(1.E0,0.E0,0.E0));
#345=VECTOR('',#344,7.5E-1);
#346=CARTESIAN_POINT('',(-2.6E0,0.E0,-9.E-1));
#347=LINE('',#346,#345);
#348=DIRECTION('',(0.E0,0.E0,1.E0));
#349=VECTOR('',#348,1.8E0);
#350=CARTESIAN_POINT('',(2.6E0,-1.E-1,-9.E-1));
#351=LINE('',#350,#349);
#352=DIRECTION('',(0.E0,-1.E0,0.E0));
#353=VECTOR('',#352,1.E-1);
#354=CARTESIAN_POINT('',(2.6E0,0.E0,9.E-1));
#355=LINE('',#354,#353);
#356=DIRECTION('',(0.E0,1.E0,0.E0));
#357=VECTOR('',#356,2.6E0);
#358=CARTESIAN_POINT('',(2.6E0,0.E0,1.076955262170E0));
#359=LINE('',#358,#357);
#360=DIRECTION('',(0.E0,1.E0,0.E0));
#361=VECTOR('',#360,2.6E0);
#362=CARTESIAN_POINT('',(1.076955262170E0,0.E0,2.6E0));
#363=LINE('',#362,#361);
#364=DIRECTION('',(0.E0,1.E0,0.E0));
#365=VECTOR('',#364,2.6E0);
#366=CARTESIAN_POINT('',(2.6E0,0.E0,-1.076955262170E0));
#367=LINE('',#366,#365);
#368=DIRECTION('',(1.E0,0.E0,0.E0));
#369=VECTOR('',#368,1.8E0);
#370=CARTESIAN_POINT('',(-9.E-1,-1.E-1,-2.6E0));
#371=LINE('',#370,#369);
#372=DIRECTION('',(0.E0,-1.E0,0.E0));
#373=VECTOR('',#372,1.E-1);
#374=CARTESIAN_POINT('',(9.E-1,0.E0,-2.6E0));
#375=LINE('',#374,#373);
#376=DIRECTION('',(0.E0,1.E0,0.E0));
#377=VECTOR('',#376,2.6E0);
#378=CARTESIAN_POINT('',(1.076955262170E0,0.E0,-2.6E0));
#379=LINE('',#378,#377);
#380=DIRECTION('',(0.E0,-7.071067811865E-1,-7.071067811865E-1));
#381=VECTOR('',#380,1.414213562373E-1);
#382=CARTESIAN_POINT('',(9.E-1,-1.E-1,-1.85E0));
#383=LINE('',#382,#381);
#384=DIRECTION('',(0.E0,-1.E0,0.E0));
#385=VECTOR('',#384,1.E-1);
#386=CARTESIAN_POINT('',(9.E-1,0.E0,-1.85E0));
#387=LINE('',#386,#385);
#388=DIRECTION('',(0.E0,7.071067811865E-1,-7.071067811865E-1));
#389=VECTOR('',#388,1.414213562373E-1);
#390=CARTESIAN_POINT('',(9.E-1,-2.E-1,-2.5E0));
#391=LINE('',#390,#389);
#392=DIRECTION('',(0.E0,7.071067811865E-1,7.071067811865E-1));
#393=VECTOR('',#392,1.414213562373E-1);
#394=CARTESIAN_POINT('',(-9.E-1,-2.E-1,-1.95E0));
#395=LINE('',#394,#393);
#396=DIRECTION('',(0.E0,-7.071067811865E-1,7.071067811865E-1));
#397=VECTOR('',#396,1.414213562373E-1);
#398=CARTESIAN_POINT('',(-9.E-1,-1.E-1,-2.6E0));
#399=LINE('',#398,#397);
#400=DIRECTION('',(0.E0,-1.E0,0.E0));
#401=VECTOR('',#400,1.E-1);
#402=CARTESIAN_POINT('',(-9.E-1,0.E0,-2.6E0));
#403=LINE('',#402,#401);
#404=DIRECTION('',(-1.E0,0.E0,0.E0));
#405=VECTOR('',#404,4.669872981077E-1);
#406=CARTESIAN_POINT('',(-4.330127018922E-1,-1.E-1,-1.85E0));
#407=LINE('',#406,#405);
#408=DIRECTION('',(0.E0,-1.E0,0.E0));
#409=VECTOR('',#408,1.E-1);
#410=CARTESIAN_POINT('',(-9.E-1,0.E0,-1.85E0));
#411=LINE('',#410,#409);
#412=DIRECTION('',(1.293409823688E-13,1.E0,0.E0));
#413=VECTOR('',#412,1.E-1);
#414=CARTESIAN_POINT('',(-4.330127018922E-1,-1.E-1,-1.85E0));
#415=LINE('',#414,#413);
#416=DIRECTION('',(-1.E0,0.E0,0.E0));
#417=VECTOR('',#416,4.669872981078E-1);
#418=CARTESIAN_POINT('',(9.E-1,-1.E-1,-1.85E0));
#419=LINE('',#418,#417);
#420=DIRECTION('',(1.076916333886E-13,1.E0,2.220446049250E-14));
#421=VECTOR('',#420,1.E-1);
#422=CARTESIAN_POINT('',(4.330127018922E-1,-1.E-1,-1.85E0));
#423=LINE('',#422,#421);
#424=DIRECTION('',(1.694731792782E-14,0.E0,1.E0));
#425=VECTOR('',#424,1.834286984047E-1);
#426=CARTESIAN_POINT('',(1.85E0,0.E0,-6.164414002969E-1));
#427=LINE('',#426,#425);
#428=DIRECTION('',(-1.452627250956E-14,0.E0,1.E0));
#429=VECTOR('',#428,1.834286984047E-1);
#430=CARTESIAN_POINT('',(1.85E0,0.E0,4.330127018922E-1));
#431=LINE('',#430,#429);
#432=DIRECTION('',(1.573679521869E-14,0.E0,-1.E0));
#433=VECTOR('',#432,1.834286984047E-1);
#434=CARTESIAN_POINT('',(-1.85E0,0.E0,6.164414002969E-1));
#435=LINE('',#434,#433);
#436=DIRECTION('',(-1.694731792782E-14,0.E0,-1.E0));
#437=VECTOR('',#436,1.834286984046E-1);
#438=CARTESIAN_POINT('',(-1.85E0,0.E0,-4.330127018922E-1));
#439=LINE('',#438,#437);
#440=DIRECTION('',(1.E0,0.E0,1.331574980043E-14));
#441=VECTOR('',#440,1.834286984047E-1);
#442=CARTESIAN_POINT('',(-6.164414002969E-1,0.E0,-1.85E0));
#443=LINE('',#442,#441);
#444=DIRECTION('',(1.E0,0.E0,-1.210522709130E-14));
#445=VECTOR('',#444,1.834286984047E-1);
#446=CARTESIAN_POINT('',(4.330127018922E-1,0.E0,-1.85E0));
#447=LINE('',#446,#445);
#448=DIRECTION('',(-1.E0,0.E0,1.210522709130E-14));
#449=VECTOR('',#448,1.834286984047E-1);
#450=CARTESIAN_POINT('',(6.164414002969E-1,0.E0,1.85E0));
#451=LINE('',#450,#449);
#452=DIRECTION('',(-1.E0,0.E0,0.E0));
#453=VECTOR('',#452,1.834286984047E-1);
#454=CARTESIAN_POINT('',(-4.330127018922E-1,0.E0,1.85E0));
#455=LINE('',#454,#453);
#456=CARTESIAN_POINT('',(0.E0,0.E0,0.E0));
#457=DIRECTION('',(0.E0,-1.E0,0.E0));
#458=DIRECTION('',(9.487179487179E-1,0.E0,-3.161237950240E-1));
#459=AXIS2_PLACEMENT_3D('',#456,#457,#458);
#461=CARTESIAN_POINT('',(0.E0,0.E0,0.E0));
#462=DIRECTION('',(0.E0,-1.E0,0.E0));
#463=DIRECTION('',(-3.161237950240E-1,0.E0,-9.487179487179E-1));
#464=AXIS2_PLACEMENT_3D('',#461,#462,#463);
#466=CARTESIAN_POINT('',(0.E0,0.E0,0.E0));
#467=DIRECTION('',(0.E0,-1.E0,0.E0));
#468=DIRECTION('',(-1.E0,0.E0,0.E0));
#469=AXIS2_PLACEMENT_3D('',#466,#467,#468);
#471=DIRECTION('',(0.E0,1.E0,0.E0));
#472=VECTOR('',#471,2.6E0);
#473=CARTESIAN_POINT('',(-1.95E0,0.E0,0.E0));
#474=LINE('',#473,#472);
#475=CARTESIAN_POINT('',(0.E0,0.E0,0.E0));
#476=DIRECTION('',(0.E0,-1.E0,0.E0));
#477=DIRECTION('',(-9.487179487179E-1,0.E0,3.161237950240E-1));
#478=AXIS2_PLACEMENT_3D('',#475,#476,#477);
#480=CARTESIAN_POINT('',(0.E0,0.E0,0.E0));
#481=DIRECTION('',(0.E0,-1.E0,0.E0));
#482=DIRECTION('',(3.161237950241E-1,0.E0,9.487179487179E-1));
#483=AXIS2_PLACEMENT_3D('',#480,#481,#482);
#485=CARTESIAN_POINT('',(0.E0,0.E0,0.E0));
#486=DIRECTION('',(0.E0,-1.E0,0.E0));
#487=DIRECTION('',(1.E0,0.E0,0.E0));
#488=AXIS2_PLACEMENT_3D('',#485,#486,#487);
#490=DIRECTION('',(0.E0,1.E0,0.E0));
#491=VECTOR('',#490,2.6E0);
#492=CARTESIAN_POINT('',(1.95E0,0.E0,0.E0));
#493=LINE('',#492,#491);
#494=CARTESIAN_POINT('',(0.E0,0.E0,0.E0));
#495=DIRECTION('',(0.E0,-1.E0,0.E0));
#496=DIRECTION('',(2.279014220485E-1,0.E0,9.736842105263E-1));
#497=AXIS2_PLACEMENT_3D('',#494,#495,#496);
#499=CARTESIAN_POINT('',(0.E0,0.E0,0.E0));
#500=DIRECTION('',(0.E0,-1.E0,0.E0));
#501=DIRECTION('',(-9.736842105263E-1,0.E0,2.279014220485E-1));
#502=AXIS2_PLACEMENT_3D('',#499,#500,#501);
#504=DIRECTION('',(0.E0,1.E0,0.E0));
#505=VECTOR('',#504,2.6E0);
#506=CARTESIAN_POINT('',(-1.9E0,0.E0,0.E0));
#507=LINE('',#506,#505);
#508=CARTESIAN_POINT('',(0.E0,0.E0,0.E0));
#509=DIRECTION('',(0.E0,-1.E0,0.E0));
#510=DIRECTION('',(1.E0,0.E0,0.E0));
#511=AXIS2_PLACEMENT_3D('',#508,#509,#510);
#513=DIRECTION('',(0.E0,0.E0,-1.E0));
#514=VECTOR('',#513,8.660254037844E-1);
#515=CARTESIAN_POINT('',(1.85E0,-1.E-1,4.330127018922E-1));
#516=LINE('',#515,#514);
#517=CARTESIAN_POINT('',(0.E0,-1.E-1,0.E0));
#518=DIRECTION('',(0.E0,1.E0,0.E0));
#519=DIRECTION('',(9.736842105263E-1,0.E0,-2.279014220485E-1));
#520=AXIS2_PLACEMENT_3D('',#517,#518,#519);
#522=DIRECTION('',(-1.E0,0.E0,0.E0));
#523=VECTOR('',#522,8.660254037845E-1);
#524=CARTESIAN_POINT('',(4.330127018922E-1,-1.E-1,-1.85E0));
#525=LINE('',#524,#523);
#526=CARTESIAN_POINT('',(0.E0,-1.E-1,0.E0));
#527=DIRECTION('',(0.E0,1.E0,0.E0));
#528=DIRECTION('',(-2.279014220486E-1,0.E0,-9.736842105263E-1));
#529=AXIS2_PLACEMENT_3D('',#526,#527,#528);
#531=DIRECTION('',(0.E0,0.E0,1.E0));
#532=VECTOR('',#531,8.660254037845E-1);
#533=CARTESIAN_POINT('',(-1.85E0,-1.E-1,-4.330127018922E-1));
#534=LINE('',#533,#532);
#535=CARTESIAN_POINT('',(0.E0,-1.E-1,0.E0));
#536=DIRECTION('',(0.E0,1.E0,0.E0));
#537=DIRECTION('',(-9.736842105263E-1,0.E0,2.279014220486E-1));
#538=AXIS2_PLACEMENT_3D('',#535,#536,#537);
#540=DIRECTION('',(1.E0,0.E0,0.E0));
#541=VECTOR('',#540,8.660254037844E-1);
#542=CARTESIAN_POINT('',(-4.330127018922E-1,-1.E-1,1.85E0));
#543=LINE('',#542,#541);
#544=CARTESIAN_POINT('',(0.E0,-1.E-1,0.E0));
#545=DIRECTION('',(0.E0,1.E0,0.E0));
#546=DIRECTION('',(2.279014220485E-1,0.E0,9.736842105263E-1));
#547=AXIS2_PLACEMENT_3D('',#544,#545,#546);
#549=DIRECTION('',(7.071067811865E-1,7.071067811865E-1,0.E0));
#550=VECTOR('',#549,1.414213562373E-1);
#551=CARTESIAN_POINT('',(-1.95E0,-2.E-1,9.E-1));
#552=LINE('',#551,#550);
#553=DIRECTION('',(7.071067811865E-1,-7.071067811865E-1,0.E0));
#554=VECTOR('',#553,1.414213562373E-1);
#555=CARTESIAN_POINT('',(-2.6E0,-1.E-1,9.E-1));
#556=LINE('',#555,#554);
#557=DIRECTION('',(0.E0,-1.E0,0.E0));
#558=VECTOR('',#557,1.E-1);
#559=CARTESIAN_POINT('',(-2.6E0,0.E0,9.E-1));
#560=LINE('',#559,#558);
#561=DIRECTION('',(-7.071067811865E-1,-7.071067811865E-1,0.E0));
#562=VECTOR('',#561,1.414213562373E-1);
#563=CARTESIAN_POINT('',(-1.85E0,-1.E-1,-9.E-1));
#564=LINE('',#563,#562);
#565=DIRECTION('',(0.E0,-1.E0,0.E0));
#566=VECTOR('',#565,1.E-1);
#567=CARTESIAN_POINT('',(-1.85E0,0.E0,-9.E-1));
#568=LINE('',#567,#566);
#569=DIRECTION('',(-7.071067811865E-1,7.071067811865E-1,0.E0));
#570=VECTOR('',#569,1.414213562373E-1);
#571=CARTESIAN_POINT('',(-2.5E0,-2.E-1,-9.E-1));
#572=LINE('',#571,#570);
#573=DIRECTION('',(0.E0,0.E0,1.E0));
#574=VECTOR('',#573,4.669872981077E-1);
#575=CARTESIAN_POINT('',(-1.85E0,-1.E-1,4.330127018923E-1));
#576=LINE('',#575,#574);
#577=DIRECTION('',(0.E0,-1.E0,0.E0));
#578=VECTOR('',#577,1.E-1);
#579=CARTESIAN_POINT('',(-1.85E0,0.E0,9.E-1));
#580=LINE('',#579,#578);
#581=DIRECTION('',(0.E0,1.E0,-1.032507412901E-13));
#582=VECTOR('',#581,1.E-1);
#583=CARTESIAN_POINT('',(-1.85E0,-1.E-1,4.330127018923E-1));
#584=LINE('',#583,#582);
#585=DIRECTION('',(0.E0,0.E0,1.E0));
#586=VECTOR('',#585,4.669872981078E-1);
#587=CARTESIAN_POINT('',(-1.85E0,-1.E-1,-9.E-1));
#588=LINE('',#587,#586);
#589=DIRECTION('',(3.108624468950E-14,1.E0,-1.632027846199E-13));
#590=VECTOR('',#589,1.E-1);
#591=CARTESIAN_POINT('',(-1.85E0,-1.E-1,-4.330127018922E-1));
#592=LINE('',#591,#590);
#593=DIRECTION('',(0.E0,0.E0,-1.E0));
#594=VECTOR('',#593,1.8E0);
#595=CARTESIAN_POINT('',(-2.6E0,-1.E-1,9.E-1));
#596=LINE('',#595,#594);
#597=DIRECTION('',(0.E0,-1.E0,0.E0));
#598=VECTOR('',#597,1.E-1);
#599=CARTESIAN_POINT('',(-2.6E0,0.E0,-9.E-1));
#600=LINE('',#599,#598);
#601=DIRECTION('',(0.E0,1.E0,0.E0));
#602=VECTOR('',#601,2.6E0);
#603=CARTESIAN_POINT('',(-2.6E0,0.E0,-1.076955262170E0));
#604=LINE('',#603,#602);
#605=DIRECTION('',(0.E0,1.E0,0.E0));
#606=VECTOR('',#605,2.6E0);
#607=CARTESIAN_POINT('',(-1.076955262170E0,0.E0,-2.6E0));
#608=LINE('',#607,#606);
#609=DIRECTION('',(0.E0,1.E0,0.E0));
#610=VECTOR('',#609,2.6E0);
#611=CARTESIAN_POINT('',(-2.6E0,0.E0,1.076955262170E0));
#612=LINE('',#611,#610);
#613=DIRECTION('',(1.E0,0.E0,0.E0));
#614=VECTOR('',#613,4.669872981078E-1);
#615=CARTESIAN_POINT('',(4.330127018922E-1,-1.E-1,1.85E0));
#616=LINE('',#615,#614);
#617=DIRECTION('',(0.E0,-1.E0,0.E0));
#618=VECTOR('',#617,1.E-1);
#619=CARTESIAN_POINT('',(9.E-1,0.E0,1.85E0));
#620=LINE('',#619,#618);
#621=DIRECTION('',(1.254552017826E-13,1.E0,0.E0));
#622=VECTOR('',#621,1.E-1);
#623=CARTESIAN_POINT('',(4.330127018922E-1,-1.E-1,1.85E0));
#624=LINE('',#623,#622);
#625=DIRECTION('',(1.E0,0.E0,0.E0));
#626=VECTOR('',#625,4.669872981078E-1);
#627=CARTESIAN_POINT('',(-9.E-1,-1.E-1,1.85E0));
#628=LINE('',#627,#626);
#629=DIRECTION('',(1.054711873394E-13,1.E0,1.776356839400E-14));
#630=VECTOR('',#629,1.E-1);
#631=CARTESIAN_POINT('',(-4.330127018922E-1,-1.E-1,1.85E0));
#632=LINE('',#631,#630);
#633=CARTESIAN_POINT('',(-1.076955262170E0,0.E0,-2.6E0));
#634=CARTESIAN_POINT('',(-2.6E0,0.E0,-1.076955262170E0));
#635=VERTEX_POINT('',#633);
#636=VERTEX_POINT('',#634);
#637=CARTESIAN_POINT('',(-2.6E0,0.E0,1.076955262170E0));
#638=CARTESIAN_POINT('',(-1.076955262170E0,0.E0,2.6E0));
#639=VERTEX_POINT('',#637);
#640=VERTEX_POINT('',#638);
#641=CARTESIAN_POINT('',(1.076955262170E0,0.E0,2.6E0));
#642=CARTESIAN_POINT('',(2.6E0,0.E0,1.076955262170E0));
#643=VERTEX_POINT('',#641);
#644=VERTEX_POINT('',#642);
#645=CARTESIAN_POINT('',(2.6E0,0.E0,-1.076955262170E0));
#646=CARTESIAN_POINT('',(1.076955262170E0,0.E0,-2.6E0));
#647=VERTEX_POINT('',#645);
#648=VERTEX_POINT('',#646);
#649=CARTESIAN_POINT('',(-1.9E0,2.6E0,0.E0));
#650=CARTESIAN_POINT('',(1.9E0,2.6E0,0.E0));
#651=VERTEX_POINT('',#649);
#652=VERTEX_POINT('',#650);
#653=CARTESIAN_POINT('',(-1.95E0,2.6E0,0.E0));
#654=CARTESIAN_POINT('',(1.95E0,2.6E0,0.E0));
#655=VERTEX_POINT('',#653);
#656=VERTEX_POINT('',#654);
#657=CARTESIAN_POINT('',(-1.076955262170E0,2.6E0,-2.6E0));
#658=CARTESIAN_POINT('',(-2.6E0,2.6E0,-1.076955262170E0));
#659=VERTEX_POINT('',#657);
#660=VERTEX_POINT('',#658);
#661=CARTESIAN_POINT('',(-2.6E0,2.6E0,1.076955262170E0));
#662=VERTEX_POINT('',#661);
#663=CARTESIAN_POINT('',(-1.076955262170E0,2.6E0,2.6E0));
#664=VERTEX_POINT('',#663);
#665=CARTESIAN_POINT('',(1.076955262170E0,2.6E0,2.6E0));
#666=VERTEX_POINT('',#665);
#667=CARTESIAN_POINT('',(2.6E0,2.6E0,1.076955262170E0));
#668=VERTEX_POINT('',#667);
#669=CARTESIAN_POINT('',(2.6E0,2.6E0,-1.076955262170E0));
#670=VERTEX_POINT('',#669);
#671=CARTESIAN_POINT('',(1.076955262170E0,2.6E0,-2.6E0));
#672=VERTEX_POINT('',#671);
#673=CARTESIAN_POINT('',(2.6E0,0.E0,-9.E-1));
#674=CARTESIAN_POINT('',(1.85E0,0.E0,-9.E-1));
#675=VERTEX_POINT('',#673);
#676=VERTEX_POINT('',#674);
#677=CARTESIAN_POINT('',(1.85E0,0.E0,-6.164414002969E-1));
#678=VERTEX_POINT('',#677);
#679=CARTESIAN_POINT('',(1.85E0,0.E0,6.164414002969E-1));
#680=CARTESIAN_POINT('',(1.85E0,0.E0,9.E-1));
#681=VERTEX_POINT('',#679);
#682=VERTEX_POINT('',#680);
#683=CARTESIAN_POINT('',(2.6E0,0.E0,9.E-1));
#684=VERTEX_POINT('',#683);
#685=CARTESIAN_POINT('',(-2.6E0,0.E0,9.E-1));
#686=CARTESIAN_POINT('',(-1.85E0,0.E0,9.E-1));
#687=VERTEX_POINT('',#685);
#688=VERTEX_POINT('',#686);
#689=CARTESIAN_POINT('',(-1.85E0,0.E0,6.164414002969E-1));
#690=VERTEX_POINT('',#689);
#691=CARTESIAN_POINT('',(-1.85E0,0.E0,-6.164414002969E-1));
#692=CARTESIAN_POINT('',(-1.85E0,0.E0,-9.E-1));
#693=VERTEX_POINT('',#691);
#694=VERTEX_POINT('',#692);
#695=CARTESIAN_POINT('',(-2.6E0,0.E0,-9.E-1));
#696=VERTEX_POINT('',#695);
#697=CARTESIAN_POINT('',(1.95E0,0.E0,0.E0));
#698=VERTEX_POINT('',#697);
#699=CARTESIAN_POINT('',(-6.164414002969E-1,0.E0,-1.85E0));
#700=CARTESIAN_POINT('',(6.164414002969E-1,0.E0,-1.85E0));
#701=VERTEX_POINT('',#699);
#702=VERTEX_POINT('',#700);
#703=CARTESIAN_POINT('',(-1.95E0,0.E0,0.E0));
#704=VERTEX_POINT('',#703);
#705=CARTESIAN_POINT('',(6.164414002969E-1,0.E0,1.85E0));
#706=CARTESIAN_POINT('',(-6.164414002969E-1,0.E0,1.85E0));
#707=VERTEX_POINT('',#705);
#708=VERTEX_POINT('',#706);
#709=CARTESIAN_POINT('',(-1.9E0,0.E0,0.E0));
#710=VERTEX_POINT('',#709);
#711=CARTESIAN_POINT('',(1.9E0,0.E0,0.E0));
#712=VERTEX_POINT('',#711);
#713=CARTESIAN_POINT('',(1.85E0,0.E0,-4.330127018922E-1));
#714=VERTEX_POINT('',#713);
#715=CARTESIAN_POINT('',(1.85E0,0.E0,4.330127018922E-1));
#716=VERTEX_POINT('',#715);
#717=CARTESIAN_POINT('',(-1.85E0,0.E0,4.330127018922E-1));
#718=VERTEX_POINT('',#717);
#719=CARTESIAN_POINT('',(-1.85E0,0.E0,-4.330127018922E-1));
#720=VERTEX_POINT('',#719);
#721=CARTESIAN_POINT('',(-9.E-1,0.E0,-2.6E0));
#722=CARTESIAN_POINT('',(-9.E-1,0.E0,-1.85E0));
#723=VERTEX_POINT('',#721);
#724=VERTEX_POINT('',#722);
#725=CARTESIAN_POINT('',(9.E-1,0.E0,-1.85E0));
#726=VERTEX_POINT('',#725);
#727=CARTESIAN_POINT('',(9.E-1,0.E0,-2.6E0));
#728=VERTEX_POINT('',#727);
#729=CARTESIAN_POINT('',(9.E-1,0.E0,2.6E0));
#730=CARTESIAN_POINT('',(9.E-1,0.E0,1.85E0));
#731=VERTEX_POINT('',#729);
#732=VERTEX_POINT('',#730);
#733=CARTESIAN_POINT('',(-9.E-1,0.E0,1.85E0));
#734=VERTEX_POINT('',#733);
#735=CARTESIAN_POINT('',(-9.E-1,0.E0,2.6E0));
#736=VERTEX_POINT('',#735);
#737=CARTESIAN_POINT('',(-4.330127018922E-1,0.E0,-1.85E0));
#738=VERTEX_POINT('',#737);
#739=CARTESIAN_POINT('',(4.330127018922E-1,0.E0,-1.85E0));
#740=VERTEX_POINT('',#739);
#741=CARTESIAN_POINT('',(4.330127018922E-1,0.E0,1.85E0));
#742=VERTEX_POINT('',#741);
#743=CARTESIAN_POINT('',(-4.330127018922E-1,0.E0,1.85E0));
#744=VERTEX_POINT('',#743);
#745=CARTESIAN_POINT('',(2.5E0,-2.E-1,9.E-1));
#746=CARTESIAN_POINT('',(2.6E0,-1.E-1,9.E-1));
#747=VERTEX_POINT('',#745);
#748=VERTEX_POINT('',#746);
#749=CARTESIAN_POINT('',(2.6E0,-1.E-1,-9.E-1));
#750=VERTEX_POINT('',#749);
#751=CARTESIAN_POINT('',(2.5E0,-2.E-1,-9.E-1));
#752=VERTEX_POINT('',#751);
#753=CARTESIAN_POINT('',(1.95E0,-2.E-1,-9.E-1));
#754=CARTESIAN_POINT('',(1.85E0,-1.E-1,-9.E-1));
#755=VERTEX_POINT('',#753);
#756=VERTEX_POINT('',#754);
#757=CARTESIAN_POINT('',(1.85E0,-1.E-1,-4.330127018922E-1));
#758=VERTEX_POINT('',#757);
#759=CARTESIAN_POINT('',(1.85E0,-1.E-1,4.330127018922E-1));
#760=VERTEX_POINT('',#759);
#761=CARTESIAN_POINT('',(1.85E0,-1.E-1,9.E-1));
#762=VERTEX_POINT('',#761);
#763=CARTESIAN_POINT('',(1.95E0,-2.E-1,9.E-1));
#764=VERTEX_POINT('',#763);
#765=CARTESIAN_POINT('',(-9.E-1,-2.E-1,2.5E0));
#766=CARTESIAN_POINT('',(-9.E-1,-1.E-1,2.6E0));
#767=VERTEX_POINT('',#765);
#768=VERTEX_POINT('',#766);
#769=CARTESIAN_POINT('',(9.E-1,-1.E-1,2.6E0));
#770=VERTEX_POINT('',#769);
#771=CARTESIAN_POINT('',(9.E-1,-2.E-1,2.5E0));
#772=VERTEX_POINT('',#771);
#773=CARTESIAN_POINT('',(9.E-1,-2.E-1,1.95E0));
#774=CARTESIAN_POINT('',(9.E-1,-1.E-1,1.85E0));
#775=VERTEX_POINT('',#773);
#776=VERTEX_POINT('',#774);
#777=CARTESIAN_POINT('',(4.330127018922E-1,-1.E-1,1.85E0));
#778=VERTEX_POINT('',#777);
#779=CARTESIAN_POINT('',(-4.330127018922E-1,-1.E-1,1.85E0));
#780=VERTEX_POINT('',#779);
#781=CARTESIAN_POINT('',(-9.E-1,-1.E-1,1.85E0));
#782=VERTEX_POINT('',#781);
#783=CARTESIAN_POINT('',(-9.E-1,-2.E-1,1.95E0));
#784=VERTEX_POINT('',#783);
#785=CARTESIAN_POINT('',(-1.95E0,-2.E-1,9.E-1));
#786=CARTESIAN_POINT('',(-1.85E0,-1.E-1,9.E-1));
#787=VERTEX_POINT('',#785);
#788=VERTEX_POINT('',#786);
#789=CARTESIAN_POINT('',(-1.85E0,-1.E-1,4.330127018923E-1));
#790=VERTEX_POINT('',#789);
#791=CARTESIAN_POINT('',(-1.85E0,-1.E-1,-4.330127018922E-1));
#792=VERTEX_POINT('',#791);
#793=CARTESIAN_POINT('',(-1.85E0,-1.E-1,-9.E-1));
#794=VERTEX_POINT('',#793);
#795=CARTESIAN_POINT('',(-1.95E0,-2.E-1,-9.E-1));
#796=VERTEX_POINT('',#795);
#797=CARTESIAN_POINT('',(-2.5E0,-2.E-1,-9.E-1));
#798=CARTESIAN_POINT('',(-2.6E0,-1.E-1,-9.E-1));
#799=VERTEX_POINT('',#797);
#800=VERTEX_POINT('',#798);
#801=CARTESIAN_POINT('',(-2.6E0,-1.E-1,9.E-1));
#802=VERTEX_POINT('',#801);
#803=CARTESIAN_POINT('',(-2.5E0,-2.E-1,9.E-1));
#804=VERTEX_POINT('',#803);
#805=CARTESIAN_POINT('',(-9.E-1,-2.E-1,-1.95E0));
#806=CARTESIAN_POINT('',(-9.E-1,-1.E-1,-1.85E0));
#807=VERTEX_POINT('',#805);
#808=VERTEX_POINT('',#806);
#809=CARTESIAN_POINT('',(-4.330127018922E-1,-1.E-1,-1.85E0));
#810=VERTEX_POINT('',#809);
#811=CARTESIAN_POINT('',(4.330127018922E-1,-1.E-1,-1.85E0));
#812=VERTEX_POINT('',#811);
#813=CARTESIAN_POINT('',(9.E-1,-1.E-1,-1.85E0));
#814=VERTEX_POINT('',#813);
#815=CARTESIAN_POINT('',(9.E-1,-2.E-1,-1.95E0));
#816=VERTEX_POINT('',#815);
#817=CARTESIAN_POINT('',(9.E-1,-2.E-1,-2.5E0));
#818=CARTESIAN_POINT('',(9.E-1,-1.E-1,-2.6E0));
#819=VERTEX_POINT('',#817);
#820=VERTEX_POINT('',#818);
#821=CARTESIAN_POINT('',(-9.E-1,-1.E-1,-2.6E0));
#822=VERTEX_POINT('',#821);
#823=CARTESIAN_POINT('',(-9.E-1,-2.E-1,-2.5E0));
#824=VERTEX_POINT('',#823);
#825=CARTESIAN_POINT('',(0.E0,2.6E0,0.E0));
#826=DIRECTION('',(0.E0,1.E0,0.E0));
#827=DIRECTION('',(1.E0,0.E0,0.E0));
#828=AXIS2_PLACEMENT_3D('',#825,#826,#827);
#829=PLANE('',#828);
#831=ORIENTED_EDGE('',*,*,#830,.F.);
#833=ORIENTED_EDGE('',*,*,#832,.F.);
#834=EDGE_LOOP('',(#831,#833));
#835=FACE_OUTER_BOUND('',#834,.F.);
#837=CARTESIAN_POINT('',(0.E0,2.6E0,0.E0));
#838=DIRECTION('',(0.E0,1.E0,0.E0));
#839=DIRECTION('',(1.E0,0.E0,0.E0));
#840=AXIS2_PLACEMENT_3D('',#837,#838,#839);
#841=PLANE('',#840);
#843=ORIENTED_EDGE('',*,*,#842,.F.);
#845=ORIENTED_EDGE('',*,*,#844,.F.);
#847=ORIENTED_EDGE('',*,*,#846,.F.);
#849=ORIENTED_EDGE('',*,*,#848,.F.);
#851=ORIENTED_EDGE('',*,*,#850,.F.);
#853=ORIENTED_EDGE('',*,*,#852,.F.);
#855=ORIENTED_EDGE('',*,*,#854,.F.);
#857=ORIENTED_EDGE('',*,*,#856,.F.);
#858=EDGE_LOOP('',(#843,#845,#847,#849,#851,#853,#855,#857));
#859=FACE_OUTER_BOUND('',#858,.F.);
#861=ORIENTED_EDGE('',*,*,#860,.F.);
#863=ORIENTED_EDGE('',*,*,#862,.F.);
#864=EDGE_LOOP('',(#861,#863));
#865=FACE_BOUND('',#864,.F.);
#867=CARTESIAN_POINT('',(0.E0,0.E0,0.E0));
#868=DIRECTION('',(0.E0,1.E0,0.E0));
#869=DIRECTION('',(1.E0,0.E0,0.E0));
#870=AXIS2_PLACEMENT_3D('',#867,#868,#869);
#871=CYLINDRICAL_SURFACE('',#870,1.9E0);
#873=ORIENTED_EDGE('',*,*,#872,.T.);
#875=ORIENTED_EDGE('',*,*,#874,.T.);
#877=ORIENTED_EDGE('',*,*,#876,.T.);
#878=ORIENTED_EDGE('',*,*,#830,.T.);
#880=ORIENTED_EDGE('',*,*,#879,.F.);
#882=ORIENTED_EDGE('',*,*,#881,.T.);
#884=ORIENTED_EDGE('',*,*,#883,.F.);
#886=ORIENTED_EDGE('',*,*,#885,.F.);
#888=ORIENTED_EDGE('',*,*,#887,.T.);
#890=ORIENTED_EDGE('',*,*,#889,.T.);
#892=ORIENTED_EDGE('',*,*,#891,.F.);
#894=ORIENTED_EDGE('',*,*,#893,.F.);
#895=EDGE_LOOP('',(#873,#875,#877,#878,#880,#882,#884,#886,#888,#890,#892,
#894));
#896=FACE_OUTER_BOUND('',#895,.F.);
#898=CARTESIAN_POINT('',(1.85E0,0.E0,-9.E-1));
#899=DIRECTION('',(-1.E0,0.E0,0.E0));
#900=DIRECTION('',(0.E0,0.E0,1.E0));
#901=AXIS2_PLACEMENT_3D('',#898,#899,#900);
#902=PLANE('',#901);
#904=ORIENTED_EDGE('',*,*,#903,.T.);
#906=ORIENTED_EDGE('',*,*,#905,.F.);
#908=ORIENTED_EDGE('',*,*,#907,.T.);
#910=ORIENTED_EDGE('',*,*,#909,.T.);
#911=ORIENTED_EDGE('',*,*,#872,.F.);
#912=EDGE_LOOP('',(#904,#906,#908,#910,#911));
#913=FACE_OUTER_BOUND('',#912,.F.);
#915=CARTESIAN_POINT('',(1.85E0,0.E0,-9.E-1));
#916=DIRECTION('',(-1.E0,0.E0,0.E0));
#917=DIRECTION('',(0.E0,0.E0,1.E0));
#918=AXIS2_PLACEMENT_3D('',#915,#916,#917);
#919=PLANE('',#918);
#921=ORIENTED_EDGE('',*,*,#920,.T.);
#923=ORIENTED_EDGE('',*,*,#922,.T.);
#925=ORIENTED_EDGE('',*,*,#924,.T.);
#927=ORIENTED_EDGE('',*,*,#926,.T.);
#929=ORIENTED_EDGE('',*,*,#928,.T.);
#930=EDGE_LOOP('',(#921,#923,#925,#927,#929));
#931=FACE_OUTER_BOUND('',#930,.F.);
#933=CARTESIAN_POINT('',(1.9E0,-1.5E-1,0.E0));
#934=DIRECTION('',(-7.071067811865E-1,-7.071067811865E-1,0.E0));
#935=DIRECTION('',(-7.071067811865E-1,7.071067811865E-1,0.E0));
#936=AXIS2_PLACEMENT_3D('',#933,#934,#935);
#937=PLANE('',#936);
#939=ORIENTED_EDGE('',*,*,#938,.T.);
#940=ORIENTED_EDGE('',*,*,#903,.F.);
#942=ORIENTED_EDGE('',*,*,#941,.F.);
#943=ORIENTED_EDGE('',*,*,#920,.F.);
#945=ORIENTED_EDGE('',*,*,#944,.T.);
#947=ORIENTED_EDGE('',*,*,#946,.T.);
#948=EDGE_LOOP('',(#939,#940,#942,#943,#945,#947));
#949=FACE_OUTER_BOUND('',#948,.F.);
#951=CARTESIAN_POINT('',(2.6E0,0.E0,-9.E-1));
#952=DIRECTION('',(0.E0,0.E0,-1.E0));
#953=DIRECTION('',(-1.E0,0.E0,0.E0));
#954=AXIS2_PLACEMENT_3D('',#951,#952,#953);
#955=PLANE('',#954);
#957=ORIENTED_EDGE('',*,*,#956,.F.);
#959=ORIENTED_EDGE('',*,*,#958,.F.);
#961=ORIENTED_EDGE('',*,*,#960,.T.);
#962=ORIENTED_EDGE('',*,*,#905,.T.);
#963=ORIENTED_EDGE('',*,*,#938,.F.);
#965=ORIENTED_EDGE('',*,*,#964,.F.);
#966=EDGE_LOOP('',(#957,#959,#961,#962,#963,#965));
#967=FACE_OUTER_BOUND('',#966,.F.);
#969=CARTESIAN_POINT('',(2.55E0,-1.5E-1,0.E0));
#970=DIRECTION('',(7.071067811865E-1,-7.071067811865E-1,0.E0));
#971=DIRECTION('',(7.071067811865E-1,7.071067811865E-1,0.E0));
#972=AXIS2_PLACEMENT_3D('',#969,#970,#971);
#973=PLANE('',#972);
#975=ORIENTED_EDGE('',*,*,#974,.T.);
#977=ORIENTED_EDGE('',*,*,#976,.F.);
#978=ORIENTED_EDGE('',*,*,#956,.T.);
#980=ORIENTED_EDGE('',*,*,#979,.T.);
#981=EDGE_LOOP('',(#975,#977,#978,#980));
#982=FACE_OUTER_BOUND('',#981,.F.);
#984=CARTESIAN_POINT('',(1.85E0,0.E0,9.E-1));
#985=DIRECTION('',(0.E0,0.E0,1.E0));
#986=DIRECTION('',(1.E0,0.E0,0.E0));
#987=AXIS2_PLACEMENT_3D('',#984,#985,#986);
#988=PLANE('',#987);
#989=ORIENTED_EDGE('',*,*,#974,.F.);
#991=ORIENTED_EDGE('',*,*,#990,.F.);
#992=ORIENTED_EDGE('',*,*,#944,.F.);
#993=ORIENTED_EDGE('',*,*,#928,.F.);
#995=ORIENTED_EDGE('',*,*,#994,.F.);
#997=ORIENTED_EDGE('',*,*,#996,.T.);
#998=EDGE_LOOP('',(#989,#991,#992,#993,#995,#997));
#999=FACE_OUTER_BOUND('',#998,.F.);
#1001=CARTESIAN_POINT('',(0.E0,-2.E-1,0.E0));
#1002=DIRECTION('',(0.E0,1.E0,0.E0));
#1003=DIRECTION('',(1.E0,0.E0,0.E0));
#1004=AXIS2_PLACEMENT_3D('',#1001,#1002,#1003);
#1005=PLANE('',#1004);
#1006=ORIENTED_EDGE('',*,*,#979,.F.);
#1007=ORIENTED_EDGE('',*,*,#964,.T.);
#1008=ORIENTED_EDGE('',*,*,#946,.F.);
#1009=ORIENTED_EDGE('',*,*,#990,.T.);
#1010=EDGE_LOOP('',(#1006,#1007,#1008,#1009));
#1011=FACE_OUTER_BOUND('',#1010,.F.);
#1013=CARTESIAN_POINT('',(0.E0,-2.E-1,0.E0));
#1014=DIRECTION('',(0.E0,1.E0,0.E0));
#1015=DIRECTION('',(1.E0,0.E0,0.E0));
#1016=AXIS2_PLACEMENT_3D('',#1013,#1014,#1015);
#1017=PLANE('',#1016);
#1019=ORIENTED_EDGE('',*,*,#1018,.F.);
#1021=ORIENTED_EDGE('',*,*,#1020,.T.);
#1023=ORIENTED_EDGE('',*,*,#1022,.F.);
#1025=ORIENTED_EDGE('',*,*,#1024,.T.);
#1026=EDGE_LOOP('',(#1019,#1021,#1023,#1025));
#1027=FACE_OUTER_BOUND('',#1026,.F.);
#1029=CARTESIAN_POINT('',(0.E0,-2.E-1,0.E0));
#1030=DIRECTION('',(0.E0,1.E0,0.E0));
#1031=DIRECTION('',(1.E0,0.E0,0.E0));
#1032=AXIS2_PLACEMENT_3D('',#1029,#1030,#1031);
#1033=PLANE('',#1032);
#1035=ORIENTED_EDGE('',*,*,#1034,.F.);
#1037=ORIENTED_EDGE('',*,*,#1036,.T.);
#1039=ORIENTED_EDGE('',*,*,#1038,.F.);
#1041=ORIENTED_EDGE('',*,*,#1040,.T.);
#1042=EDGE_LOOP('',(#1035,#1037,#1039,#1041));
#1043=FACE_OUTER_BOUND('',#1042,.F.);
#1045=CARTESIAN_POINT('',(0.E0,-2.E-1,0.E0));
#1046=DIRECTION('',(0.E0,1.E0,0.E0));
#1047=DIRECTION('',(1.E0,0.E0,0.E0));
#1048=AXIS2_PLACEMENT_3D('',#1045,#1046,#1047);
#1049=PLANE('',#1048);
#1051=ORIENTED_EDGE('',*,*,#1050,.F.);
#1053=ORIENTED_EDGE('',*,*,#1052,.T.);
#1055=ORIENTED_EDGE('',*,*,#1054,.F.);
#1057=ORIENTED_EDGE('',*,*,#1056,.T.);
#1058=EDGE_LOOP('',(#1051,#1053,#1055,#1057));
#1059=FACE_OUTER_BOUND('',#1058,.F.);
#1061=CARTESIAN_POINT('',(1.199040866595E-14,-1.5E-1,2.55E0));
#1062=DIRECTION('',(0.E0,-7.071067811865E-1,7.071067811865E-1));
#1063=DIRECTION('',(0.E0,7.071067811865E-1,7.071067811865E-1));
#1064=AXIS2_PLACEMENT_3D('',#1061,#1062,#1063);
#1065=PLANE('',#1064);
#1067=ORIENTED_EDGE('',*,*,#1066,.T.);
#1069=ORIENTED_EDGE('',*,*,#1068,.F.);
#1071=ORIENTED_EDGE('',*,*,#1070,.T.);
#1072=ORIENTED_EDGE('',*,*,#1018,.T.);
#1073=EDGE_LOOP('',(#1067,#1069,#1071,#1072));
#1074=FACE_OUTER_BOUND('',#1073,.F.);
#1076=CARTESIAN_POINT('',(-9.E-1,0.E0,1.85E0));
#1077=DIRECTION('',(-1.E0,0.E0,0.E0));
#1078=DIRECTION('',(0.E0,0.E0,1.E0));
#1079=AXIS2_PLACEMENT_3D('',#1076,#1077,#1078);
#1080=PLANE('',#1079);
#1081=ORIENTED_EDGE('',*,*,#1066,.F.);
#1082=ORIENTED_EDGE('',*,*,#1024,.F.);
#1084=ORIENTED_EDGE('',*,*,#1083,.F.);
#1086=ORIENTED_EDGE('',*,*,#1085,.F.);
#1088=ORIENTED_EDGE('',*,*,#1087,.F.);
#1090=ORIENTED_EDGE('',*,*,#1089,.T.);
#1091=EDGE_LOOP('',(#1081,#1082,#1084,#1086,#1088,#1090));
#1092=FACE_OUTER_BOUND('',#1091,.F.);
#1094=CARTESIAN_POINT('',(0.E0,-1.5E-1,1.9E0));
#1095=DIRECTION('',(0.E0,-7.071067811865E-1,-7.071067811865E-1));
#1096=DIRECTION('',(0.E0,7.071067811865E-1,-7.071067811865E-1));
#1097=AXIS2_PLACEMENT_3D('',#1094,#1095,#1096);
#1098=PLANE('',#1097);
#1100=ORIENTED_EDGE('',*,*,#1099,.T.);
#1102=ORIENTED_EDGE('',*,*,#1101,.F.);
#1104=ORIENTED_EDGE('',*,*,#1103,.F.);
#1106=ORIENTED_EDGE('',*,*,#1105,.F.);
#1107=ORIENTED_EDGE('',*,*,#1083,.T.);
#1108=ORIENTED_EDGE('',*,*,#1022,.T.);
#1109=EDGE_LOOP('',(#1100,#1102,#1104,#1106,#1107,#1108));
#1110=FACE_OUTER_BOUND('',#1109,.F.);
#1112=CARTESIAN_POINT('',(9.E-1,0.E0,2.6E0));
#1113=DIRECTION('',(1.E0,0.E0,0.E0));
#1114=DIRECTION('',(0.E0,0.E0,-1.E0));
#1115=AXIS2_PLACEMENT_3D('',#1112,#1113,#1114);
#1116=PLANE('',#1115);
#1117=ORIENTED_EDGE('',*,*,#1070,.F.);
#1119=ORIENTED_EDGE('',*,*,#1118,.F.);
#1121=ORIENTED_EDGE('',*,*,#1120,.T.);
#1123=ORIENTED_EDGE('',*,*,#1122,.T.);
#1124=ORIENTED_EDGE('',*,*,#1099,.F.);
#1125=ORIENTED_EDGE('',*,*,#1020,.F.);
#1126=EDGE_LOOP('',(#1117,#1119,#1121,#1123,#1124,#1125));
#1127=FACE_OUTER_BOUND('',#1126,.F.);
#1129=CARTESIAN_POINT('',(-1.076955262170E0,0.E0,2.6E0));
#1130=DIRECTION('',(0.E0,0.E0,1.E0));
#1131=DIRECTION('',(1.E0,0.E0,0.E0));
#1132=AXIS2_PLACEMENT_3D('',#1129,#1130,#1131);
#1133=PLANE('',#1132);
#1134=ORIENTED_EDGE('',*,*,#1068,.T.);
#1135=ORIENTED_EDGE('',*,*,#1089,.F.);
#1137=ORIENTED_EDGE('',*,*,#1136,.F.);
#1139=ORIENTED_EDGE('',*,*,#1138,.T.);
#1140=ORIENTED_EDGE('',*,*,#852,.T.);
#1142=ORIENTED_EDGE('',*,*,#1141,.F.);
#1144=ORIENTED_EDGE('',*,*,#1143,.F.);
#1145=ORIENTED_EDGE('',*,*,#1118,.T.);
#1146=EDGE_LOOP('',(#1134,#1135,#1137,#1139,#1140,#1142,#1144,#1145));
#1147=FACE_OUTER_BOUND('',#1146,.F.);
#1149=CARTESIAN_POINT('',(0.E0,0.E0,0.E0));
#1150=DIRECTION('',(0.E0,1.E0,0.E0));
#1151=DIRECTION('',(1.E0,0.E0,0.E0));
#1152=AXIS2_PLACEMENT_3D('',#1149,#1150,#1151);
#1153=PLANE('',#1152);
#1154=ORIENTED_EDGE('',*,*,#960,.F.);
#1156=ORIENTED_EDGE('',*,*,#1155,.T.);
#1158=ORIENTED_EDGE('',*,*,#1157,.T.);
#1160=ORIENTED_EDGE('',*,*,#1159,.T.);
#1162=ORIENTED_EDGE('',*,*,#1161,.T.);
#1164=ORIENTED_EDGE('',*,*,#1163,.F.);
#1166=ORIENTED_EDGE('',*,*,#1165,.T.);
#1167=ORIENTED_EDGE('',*,*,#907,.F.);
#1168=EDGE_LOOP('',(#1154,#1156,#1158,#1160,#1162,#1164,#1166,#1167));
#1169=FACE_OUTER_BOUND('',#1168,.F.);
#1171=CARTESIAN_POINT('',(0.E0,0.E0,0.E0));
#1172=DIRECTION('',(0.E0,1.E0,0.E0));
#1173=DIRECTION('',(1.E0,0.E0,0.E0));
#1174=AXIS2_PLACEMENT_3D('',#1171,#1172,#1173);
#1175=PLANE('',#1174);
#1176=ORIENTED_EDGE('',*,*,#926,.F.);
#1178=ORIENTED_EDGE('',*,*,#1177,.T.);
#1180=ORIENTED_EDGE('',*,*,#1179,.F.);
#1181=ORIENTED_EDGE('',*,*,#1120,.F.);
#1182=ORIENTED_EDGE('',*,*,#1143,.T.);
#1184=ORIENTED_EDGE('',*,*,#1183,.T.);
#1186=ORIENTED_EDGE('',*,*,#1185,.T.);
#1187=ORIENTED_EDGE('',*,*,#994,.T.);
#1188=EDGE_LOOP('',(#1176,#1178,#1180,#1181,#1182,#1184,#1186,#1187));
#1189=FACE_OUTER_BOUND('',#1188,.F.);
#1191=CARTESIAN_POINT('',(0.E0,0.E0,0.E0));
#1192=DIRECTION('',(0.E0,1.E0,0.E0));
#1193=DIRECTION('',(1.E0,0.E0,0.E0));
#1194=AXIS2_PLACEMENT_3D('',#1191,#1192,#1193);
#1195=PLANE('',#1194);
#1197=ORIENTED_EDGE('',*,*,#1196,.F.);
#1199=ORIENTED_EDGE('',*,*,#1198,.T.);
#1201=ORIENTED_EDGE('',*,*,#1200,.T.);
#1202=ORIENTED_EDGE('',*,*,#1136,.T.);
#1203=ORIENTED_EDGE('',*,*,#1087,.T.);
#1205=ORIENTED_EDGE('',*,*,#1204,.F.);
#1207=ORIENTED_EDGE('',*,*,#1206,.T.);
#1209=ORIENTED_EDGE('',*,*,#1208,.F.);
#1210=EDGE_LOOP('',(#1197,#1199,#1201,#1202,#1203,#1205,#1207,#1209));
#1211=FACE_OUTER_BOUND('',#1210,.F.);
#1213=CARTESIAN_POINT('',(0.E0,0.E0,0.E0));
#1214=DIRECTION('',(0.E0,1.E0,0.E0));
#1215=DIRECTION('',(1.E0,0.E0,0.E0));
#1216=AXIS2_PLACEMENT_3D('',#1213,#1214,#1215);
#1217=PLANE('',#1216);
#1219=ORIENTED_EDGE('',*,*,#1218,.F.);
#1221=ORIENTED_EDGE('',*,*,#1220,.T.);
#1223=ORIENTED_EDGE('',*,*,#1222,.F.);
#1225=ORIENTED_EDGE('',*,*,#1224,.F.);
#1227=ORIENTED_EDGE('',*,*,#1226,.T.);
#1229=ORIENTED_EDGE('',*,*,#1228,.T.);
#1231=ORIENTED_EDGE('',*,*,#1230,.T.);
#1233=ORIENTED_EDGE('',*,*,#1232,.T.);
#1234=EDGE_LOOP('',(#1219,#1221,#1223,#1225,#1227,#1229,#1231,#1233));
#1235=FACE_OUTER_BOUND('',#1234,.F.);
#1237=CARTESIAN_POINT('',(2.6E0,0.E0,1.076955262170E0));
#1238=DIRECTION('',(1.E0,0.E0,0.E0));
#1239=DIRECTION('',(0.E0,0.E0,-1.E0));
#1240=AXIS2_PLACEMENT_3D('',#1237,#1238,#1239);
#1241=PLANE('',#1240);
#1242=ORIENTED_EDGE('',*,*,#976,.T.);
#1243=ORIENTED_EDGE('',*,*,#996,.F.);
#1244=ORIENTED_EDGE('',*,*,#1185,.F.);
#1246=ORIENTED_EDGE('',*,*,#1245,.T.);
#1247=ORIENTED_EDGE('',*,*,#848,.T.);
#1249=ORIENTED_EDGE('',*,*,#1248,.F.);
#1250=ORIENTED_EDGE('',*,*,#1155,.F.);
#1251=ORIENTED_EDGE('',*,*,#958,.T.);
#1252=EDGE_LOOP('',(#1242,#1243,#1244,#1246,#1247,#1249,#1250,#1251));
#1253=FACE_OUTER_BOUND('',#1252,.F.);
#1255=CARTESIAN_POINT('',(1.076955262170E0,0.E0,2.6E0));
#1256=DIRECTION('',(7.071067811865E-1,0.E0,7.071067811865E-1));
#1257=DIRECTION('',(7.071067811865E-1,0.E0,-7.071067811865E-1));
#1258=AXIS2_PLACEMENT_3D('',#1255,#1256,#1257);
#1259=PLANE('',#1258);
#1260=ORIENTED_EDGE('',*,*,#1183,.F.);
#1261=ORIENTED_EDGE('',*,*,#1141,.T.);
#1262=ORIENTED_EDGE('',*,*,#850,.T.);
#1263=ORIENTED_EDGE('',*,*,#1245,.F.);
#1264=EDGE_LOOP('',(#1260,#1261,#1262,#1263));
#1265=FACE_OUTER_BOUND('',#1264,.F.);
#1267=CARTESIAN_POINT('',(2.6E0,0.E0,-1.076955262170E0));
#1268=DIRECTION('',(7.071067811865E-1,0.E0,-7.071067811865E-1));
#1269=DIRECTION('',(-7.071067811865E-1,0.E0,-7.071067811865E-1));
#1270=AXIS2_PLACEMENT_3D('',#1267,#1268,#1269);
#1271=PLANE('',#1270);
#1272=ORIENTED_EDGE('',*,*,#1157,.F.);
#1273=ORIENTED_EDGE('',*,*,#1248,.T.);
#1274=ORIENTED_EDGE('',*,*,#846,.T.);
#1276=ORIENTED_EDGE('',*,*,#1275,.F.);
#1277=EDGE_LOOP('',(#1272,#1273,#1274,#1276));
#1278=FACE_OUTER_BOUND('',#1277,.F.);
#1280=CARTESIAN_POINT('',(1.076955262170E0,0.E0,-2.6E0));
#1281=DIRECTION('',(0.E0,0.E0,-1.E0));
#1282=DIRECTION('',(-1.E0,0.E0,0.E0));
#1283=AXIS2_PLACEMENT_3D('',#1280,#1281,#1282);
#1284=PLANE('',#1283);
#1286=ORIENTED_EDGE('',*,*,#1285,.T.);
#1288=ORIENTED_EDGE('',*,*,#1287,.F.);
#1289=ORIENTED_EDGE('',*,*,#1159,.F.);
#1290=ORIENTED_EDGE('',*,*,#1275,.T.);
#1291=ORIENTED_EDGE('',*,*,#844,.T.);
#1293=ORIENTED_EDGE('',*,*,#1292,.F.);
#1294=ORIENTED_EDGE('',*,*,#1226,.F.);
#1296=ORIENTED_EDGE('',*,*,#1295,.T.);
#1297=EDGE_LOOP('',(#1286,#1288,#1289,#1290,#1291,#1293,#1294,#1296));
#1298=FACE_OUTER_BOUND('',#1297,.F.);
#1300=CARTESIAN_POINT('',(0.E0,-1.5E-1,-2.55E0));
#1301=DIRECTION('',(0.E0,-7.071067811865E-1,-7.071067811865E-1));
#1302=DIRECTION('',(0.E0,7.071067811865E-1,-7.071067811865E-1));
#1303=AXIS2_PLACEMENT_3D('',#1300,#1301,#1302);
#1304=PLANE('',#1303);
#1306=ORIENTED_EDGE('',*,*,#1305,.T.);
#1307=ORIENTED_EDGE('',*,*,#1285,.F.);
#1309=ORIENTED_EDGE('',*,*,#1308,.T.);
#1310=ORIENTED_EDGE('',*,*,#1054,.T.);
#1311=EDGE_LOOP('',(#1306,#1307,#1309,#1310));
#1312=FACE_OUTER_BOUND('',#1311,.F.);
#1314=CARTESIAN_POINT('',(9.E-1,0.E0,-1.85E0));
#1315=DIRECTION('',(1.E0,0.E0,0.E0));
#1316=DIRECTION('',(0.E0,0.E0,-1.E0));
#1317=AXIS2_PLACEMENT_3D('',#1314,#1315,#1316);
#1318=PLANE('',#1317);
#1320=ORIENTED_EDGE('',*,*,#1319,.F.);
#1322=ORIENTED_EDGE('',*,*,#1321,.F.);
#1323=ORIENTED_EDGE('',*,*,#1161,.F.);
#1324=ORIENTED_EDGE('',*,*,#1287,.T.);
#1325=ORIENTED_EDGE('',*,*,#1305,.F.);
#1326=ORIENTED_EDGE('',*,*,#1052,.F.);
#1327=EDGE_LOOP('',(#1320,#1322,#1323,#1324,#1325,#1326));
#1328=FACE_OUTER_BOUND('',#1327,.F.);
#1330=CARTESIAN_POINT('',(0.E0,-1.5E-1,-1.9E0));
#1331=DIRECTION('',(0.E0,-7.071067811865E-1,7.071067811865E-1));
#1332=DIRECTION('',(0.E0,7.071067811865E-1,7.071067811865E-1));
#1333=AXIS2_PLACEMENT_3D('',#1330,#1331,#1332);
#1334=PLANE('',#1333);
#1336=ORIENTED_EDGE('',*,*,#1335,.T.);
#1338=ORIENTED_EDGE('',*,*,#1337,.F.);
#1340=ORIENTED_EDGE('',*,*,#1339,.F.);
#1342=ORIENTED_EDGE('',*,*,#1341,.F.);
#1343=ORIENTED_EDGE('',*,*,#1319,.T.);
#1344=ORIENTED_EDGE('',*,*,#1050,.T.);
#1345=EDGE_LOOP('',(#1336,#1338,#1340,#1342,#1343,#1344));
#1346=FACE_OUTER_BOUND('',#1345,.F.);
#1348=CARTESIAN_POINT('',(-9.E-1,0.E0,-2.6E0));
#1349=DIRECTION('',(-1.E0,0.E0,0.E0));
#1350=DIRECTION('',(0.E0,0.E0,1.E0));
#1351=AXIS2_PLACEMENT_3D('',#1348,#1349,#1350);
#1352=PLANE('',#1351);
#1353=ORIENTED_EDGE('',*,*,#1335,.F.);
#1354=ORIENTED_EDGE('',*,*,#1056,.F.);
#1355=ORIENTED_EDGE('',*,*,#1308,.F.);
#1356=ORIENTED_EDGE('',*,*,#1295,.F.);
#1357=ORIENTED_EDGE('',*,*,#1224,.T.);
#1359=ORIENTED_EDGE('',*,*,#1358,.T.);
#1360=EDGE_LOOP('',(#1353,#1354,#1355,#1356,#1357,#1359));
#1361=FACE_OUTER_BOUND('',#1360,.F.);
#1363=CARTESIAN_POINT('',(-9.E-1,0.E0,-1.85E0));
#1364=DIRECTION('',(0.E0,0.E0,1.E0));
#1365=DIRECTION('',(1.E0,0.E0,0.E0));
#1366=AXIS2_PLACEMENT_3D('',#1363,#1364,#1365);
#1367=PLANE('',#1366);
#1368=ORIENTED_EDGE('',*,*,#1337,.T.);
#1369=ORIENTED_EDGE('',*,*,#1358,.F.);
#1370=ORIENTED_EDGE('',*,*,#1222,.T.);
#1372=ORIENTED_EDGE('',*,*,#1371,.T.);
#1373=ORIENTED_EDGE('',*,*,#887,.F.);
#1374=EDGE_LOOP('',(#1368,#1369,#1370,#1372,#1373));
#1375=FACE_OUTER_BOUND('',#1374,.F.);
#1377=CARTESIAN_POINT('',(-9.E-1,0.E0,-1.85E0));
#1378=DIRECTION('',(0.E0,0.E0,1.E0));
#1379=DIRECTION('',(1.E0,0.E0,0.E0));
#1380=AXIS2_PLACEMENT_3D('',#1377,#1378,#1379);
#1381=PLANE('',#1380);
#1382=ORIENTED_EDGE('',*,*,#1341,.T.);
#1383=ORIENTED_EDGE('',*,*,#891,.T.);
#1385=ORIENTED_EDGE('',*,*,#1384,.T.);
#1386=ORIENTED_EDGE('',*,*,#1163,.T.);
#1387=ORIENTED_EDGE('',*,*,#1321,.T.);
#1388=EDGE_LOOP('',(#1382,#1383,#1385,#1386,#1387));
#1389=FACE_OUTER_BOUND('',#1388,.F.);
#1391=CARTESIAN_POINT('',(0.E0,0.E0,0.E0));
#1392=DIRECTION('',(0.E0,1.E0,0.E0));
#1393=DIRECTION('',(1.E0,0.E0,0.E0));
#1394=AXIS2_PLACEMENT_3D('',#1391,#1392,#1393);
#1395=PLANE('',#1394);
#1396=ORIENTED_EDGE('',*,*,#909,.F.);
#1398=ORIENTED_EDGE('',*,*,#1397,.T.);
#1400=ORIENTED_EDGE('',*,*,#1399,.T.);
#1401=ORIENTED_EDGE('',*,*,#924,.F.);
#1403=ORIENTED_EDGE('',*,*,#1402,.F.);
#1404=ORIENTED_EDGE('',*,*,#874,.F.);
#1405=EDGE_LOOP('',(#1396,#1398,#1400,#1401,#1403,#1404));
#1406=FACE_OUTER_BOUND('',#1405,.F.);
#1408=CARTESIAN_POINT('',(0.E0,0.E0,0.E0));
#1409=DIRECTION('',(0.E0,1.E0,0.E0));
#1410=DIRECTION('',(1.E0,0.E0,0.E0));
#1411=AXIS2_PLACEMENT_3D('',#1408,#1409,#1410);
#1412=PLANE('',#1411);
#1414=ORIENTED_EDGE('',*,*,#1413,.F.);
#1416=ORIENTED_EDGE('',*,*,#1415,.T.);
#1418=ORIENTED_EDGE('',*,*,#1417,.T.);
#1420=ORIENTED_EDGE('',*,*,#1419,.F.);
#1421=ORIENTED_EDGE('',*,*,#881,.F.);
#1423=ORIENTED_EDGE('',*,*,#1422,.F.);
#1424=EDGE_LOOP('',(#1414,#1416,#1418,#1420,#1421,#1423));
#1425=FACE_OUTER_BOUND('',#1424,.F.);
#1427=CARTESIAN_POINT('',(0.E0,0.E0,0.E0));
#1428=DIRECTION('',(0.E0,1.E0,0.E0));
#1429=DIRECTION('',(1.E0,0.E0,0.E0));
#1430=AXIS2_PLACEMENT_3D('',#1427,#1428,#1429);
#1431=PLANE('',#1430);
#1432=ORIENTED_EDGE('',*,*,#1371,.F.);
#1434=ORIENTED_EDGE('',*,*,#1433,.T.);
#1435=ORIENTED_EDGE('',*,*,#1384,.F.);
#1436=ORIENTED_EDGE('',*,*,#889,.F.);
#1437=EDGE_LOOP('',(#1432,#1434,#1435,#1436));
#1438=FACE_OUTER_BOUND('',#1437,.F.);
#1440=CARTESIAN_POINT('',(0.E0,0.E0,0.E0));
#1441=DIRECTION('',(0.E0,1.E0,0.E0));
#1442=DIRECTION('',(1.E0,0.E0,0.E0));
#1443=AXIS2_PLACEMENT_3D('',#1440,#1441,#1442);
#1444=PLANE('',#1443);
#1446=ORIENTED_EDGE('',*,*,#1445,.F.);
#1448=ORIENTED_EDGE('',*,*,#1447,.T.);
#1450=ORIENTED_EDGE('',*,*,#1449,.F.);
#1452=ORIENTED_EDGE('',*,*,#1451,.F.);
#1453=EDGE_LOOP('',(#1446,#1448,#1450,#1452));
#1454=FACE_OUTER_BOUND('',#1453,.F.);
#1456=CARTESIAN_POINT('',(0.E0,0.E0,0.E0));
#1457=DIRECTION('',(0.E0,1.E0,0.E0));
#1458=DIRECTION('',(1.E0,0.E0,0.E0));
#1459=AXIS2_PLACEMENT_3D('',#1456,#1457,#1458);
#1460=CYLINDRICAL_SURFACE('',#1459,1.95E0);
#1461=ORIENTED_EDGE('',*,*,#1397,.F.);
#1462=ORIENTED_EDGE('',*,*,#1165,.F.);
#1463=ORIENTED_EDGE('',*,*,#1433,.F.);
#1464=ORIENTED_EDGE('',*,*,#1220,.F.);
#1465=ORIENTED_EDGE('',*,*,#1417,.F.);
#1467=ORIENTED_EDGE('',*,*,#1466,.T.);
#1468=ORIENTED_EDGE('',*,*,#862,.T.);
#1470=ORIENTED_EDGE('',*,*,#1469,.F.);
#1471=EDGE_LOOP('',(#1461,#1462,#1463,#1464,#1465,#1467,#1468,#1470));
#1472=FACE_OUTER_BOUND('',#1471,.F.);
#1474=CARTESIAN_POINT('',(0.E0,0.E0,0.E0));
#1475=DIRECTION('',(0.E0,1.E0,0.E0));
#1476=DIRECTION('',(1.E0,0.E0,0.E0));
#1477=AXIS2_PLACEMENT_3D('',#1474,#1475,#1476);
#1478=CYLINDRICAL_SURFACE('',#1477,1.95E0);
#1479=ORIENTED_EDGE('',*,*,#1415,.F.);
#1480=ORIENTED_EDGE('',*,*,#1206,.F.);
#1481=ORIENTED_EDGE('',*,*,#1447,.F.);
#1482=ORIENTED_EDGE('',*,*,#1177,.F.);
#1483=ORIENTED_EDGE('',*,*,#1399,.F.);
#1484=ORIENTED_EDGE('',*,*,#1469,.T.);
#1485=ORIENTED_EDGE('',*,*,#860,.T.);
#1486=ORIENTED_EDGE('',*,*,#1466,.F.);
#1487=EDGE_LOOP('',(#1479,#1480,#1481,#1482,#1483,#1484,#1485,#1486));
#1488=FACE_OUTER_BOUND('',#1487,.F.);
#1490=CARTESIAN_POINT('',(0.E0,0.E0,0.E0));
#1491=DIRECTION('',(0.E0,1.E0,0.E0));
#1492=DIRECTION('',(1.E0,0.E0,0.E0));
#1493=AXIS2_PLACEMENT_3D('',#1490,#1491,#1492);
#1494=CYLINDRICAL_SURFACE('',#1493,1.9E0);
#1495=ORIENTED_EDGE('',*,*,#922,.F.);
#1497=ORIENTED_EDGE('',*,*,#1496,.F.);
#1499=ORIENTED_EDGE('',*,*,#1498,.T.);
#1500=ORIENTED_EDGE('',*,*,#1451,.T.);
#1502=ORIENTED_EDGE('',*,*,#1501,.F.);
#1504=ORIENTED_EDGE('',*,*,#1503,.F.);
#1506=ORIENTED_EDGE('',*,*,#1505,.T.);
#1507=ORIENTED_EDGE('',*,*,#1422,.T.);
#1508=ORIENTED_EDGE('',*,*,#879,.T.);
#1509=ORIENTED_EDGE('',*,*,#832,.T.);
#1510=ORIENTED_EDGE('',*,*,#876,.F.);
#1511=ORIENTED_EDGE('',*,*,#1402,.T.);
#1512=EDGE_LOOP('',(#1495,#1497,#1499,#1500,#1502,#1504,#1506,#1507,#1508,#1509,
#1510,#1511));
#1513=FACE_OUTER_BOUND('',#1512,.F.);
#1515=CARTESIAN_POINT('',(0.E0,-1.E-1,0.E0));
#1516=DIRECTION('',(0.E0,1.E0,0.E0));
#1517=DIRECTION('',(0.E0,0.E0,-1.E0));
#1518=AXIS2_PLACEMENT_3D('',#1515,#1516,#1517);
#1519=PLANE('',#1518);
#1520=ORIENTED_EDGE('',*,*,#941,.T.);
#1521=ORIENTED_EDGE('',*,*,#893,.T.);
#1522=ORIENTED_EDGE('',*,*,#1339,.T.);
#1523=ORIENTED_EDGE('',*,*,#885,.T.);
#1525=ORIENTED_EDGE('',*,*,#1524,.T.);
#1526=ORIENTED_EDGE('',*,*,#1503,.T.);
#1527=ORIENTED_EDGE('',*,*,#1103,.T.);
#1528=ORIENTED_EDGE('',*,*,#1496,.T.);
#1529=EDGE_LOOP('',(#1520,#1521,#1522,#1523,#1525,#1526,#1527,#1528));
#1530=FACE_OUTER_BOUND('',#1529,.F.);
#1532=CARTESIAN_POINT('',(-1.9E0,-1.5E-1,0.E0));
#1533=DIRECTION('',(7.071067811865E-1,-7.071067811865E-1,0.E0));
#1534=DIRECTION('',(7.071067811865E-1,7.071067811865E-1,0.E0));
#1535=AXIS2_PLACEMENT_3D('',#1532,#1533,#1534);
#1536=PLANE('',#1535);
#1538=ORIENTED_EDGE('',*,*,#1537,.T.);
#1540=ORIENTED_EDGE('',*,*,#1539,.F.);
#1541=ORIENTED_EDGE('',*,*,#1524,.F.);
#1543=ORIENTED_EDGE('',*,*,#1542,.F.);
#1545=ORIENTED_EDGE('',*,*,#1544,.T.);
#1546=ORIENTED_EDGE('',*,*,#1034,.T.);
#1547=EDGE_LOOP('',(#1538,#1540,#1541,#1543,#1545,#1546));
#1548=FACE_OUTER_BOUND('',#1547,.F.);
#1550=CARTESIAN_POINT('',(-2.6E0,0.E0,9.E-1));
#1551=DIRECTION('',(0.E0,0.E0,1.E0));
#1552=DIRECTION('',(1.E0,0.E0,0.E0));
#1553=AXIS2_PLACEMENT_3D('',#1550,#1551,#1552);
#1554=PLANE('',#1553);
#1555=ORIENTED_EDGE('',*,*,#1537,.F.);
#1556=ORIENTED_EDGE('',*,*,#1040,.F.);
#1558=ORIENTED_EDGE('',*,*,#1557,.F.);
#1560=ORIENTED_EDGE('',*,*,#1559,.F.);
#1561=ORIENTED_EDGE('',*,*,#1196,.T.);
#1563=ORIENTED_EDGE('',*,*,#1562,.T.);
#1564=EDGE_LOOP('',(#1555,#1556,#1558,#1560,#1561,#1563));
#1565=FACE_OUTER_BOUND('',#1564,.F.);
#1567=CARTESIAN_POINT('',(-2.55E0,-1.5E-1,0.E0));
#1568=DIRECTION('',(-7.071067811865E-1,-7.071067811865E-1,0.E0));
#1569=DIRECTION('',(-7.071067811865E-1,7.071067811865E-1,0.E0));
#1570=AXIS2_PLACEMENT_3D('',#1567,#1568,#1569);
#1571=PLANE('',#1570);
#1573=ORIENTED_EDGE('',*,*,#1572,.T.);
#1575=ORIENTED_EDGE('',*,*,#1574,.F.);
#1576=ORIENTED_EDGE('',*,*,#1557,.T.);
#1577=ORIENTED_EDGE('',*,*,#1038,.T.);
#1578=EDGE_LOOP('',(#1573,#1575,#1576,#1577));
#1579=FACE_OUTER_BOUND('',#1578,.F.);
#1581=CARTESIAN_POINT('',(-1.85E0,0.E0,-9.E-1));
#1582=DIRECTION('',(0.E0,0.E0,-1.E0));
#1583=DIRECTION('',(-1.E0,0.E0,0.E0));
#1584=AXIS2_PLACEMENT_3D('',#1581,#1582,#1583);
#1585=PLANE('',#1584);
#1586=ORIENTED_EDGE('',*,*,#1544,.F.);
#1588=ORIENTED_EDGE('',*,*,#1587,.F.);
#1589=ORIENTED_EDGE('',*,*,#1232,.F.);
#1591=ORIENTED_EDGE('',*,*,#1590,.T.);
#1592=ORIENTED_EDGE('',*,*,#1572,.F.);
#1593=ORIENTED_EDGE('',*,*,#1036,.F.);
#1594=EDGE_LOOP('',(#1586,#1588,#1589,#1591,#1592,#1593));
#1595=FACE_OUTER_BOUND('',#1594,.F.);
#1597=CARTESIAN_POINT('',(-1.85E0,0.E0,9.E-1));
#1598=DIRECTION('',(1.E0,0.E0,0.E0));
#1599=DIRECTION('',(0.E0,0.E0,-1.E0));
#1600=AXIS2_PLACEMENT_3D('',#1597,#1598,#1599);
#1601=PLANE('',#1600);
#1602=ORIENTED_EDGE('',*,*,#1539,.T.);
#1603=ORIENTED_EDGE('',*,*,#1562,.F.);
#1604=ORIENTED_EDGE('',*,*,#1208,.T.);
#1605=ORIENTED_EDGE('',*,*,#1413,.T.);
#1606=ORIENTED_EDGE('',*,*,#1505,.F.);
#1607=EDGE_LOOP('',(#1602,#1603,#1604,#1605,#1606));
#1608=FACE_OUTER_BOUND('',#1607,.F.);
#1610=CARTESIAN_POINT('',(-1.85E0,0.E0,9.E-1));
#1611=DIRECTION('',(1.E0,0.E0,0.E0));
#1612=DIRECTION('',(0.E0,0.E0,-1.E0));
#1613=AXIS2_PLACEMENT_3D('',#1610,#1611,#1612);
#1614=PLANE('',#1613);
#1615=ORIENTED_EDGE('',*,*,#1542,.T.);
#1616=ORIENTED_EDGE('',*,*,#883,.T.);
#1617=ORIENTED_EDGE('',*,*,#1419,.T.);
#1618=ORIENTED_EDGE('',*,*,#1218,.T.);
#1619=ORIENTED_EDGE('',*,*,#1587,.T.);
#1620=EDGE_LOOP('',(#1615,#1616,#1617,#1618,#1619));
#1621=FACE_OUTER_BOUND('',#1620,.F.);
#1623=CARTESIAN_POINT('',(-2.6E0,0.E0,-1.076955262170E0));
#1624=DIRECTION('',(-1.E0,0.E0,0.E0));
#1625=DIRECTION('',(0.E0,0.E0,1.E0));
#1626=AXIS2_PLACEMENT_3D('',#1623,#1624,#1625);
#1627=PLANE('',#1626);
#1628=ORIENTED_EDGE('',*,*,#1574,.T.);
#1629=ORIENTED_EDGE('',*,*,#1590,.F.);
#1630=ORIENTED_EDGE('',*,*,#1230,.F.);
#1632=ORIENTED_EDGE('',*,*,#1631,.T.);
#1633=ORIENTED_EDGE('',*,*,#856,.T.);
#1635=ORIENTED_EDGE('',*,*,#1634,.F.);
#1636=ORIENTED_EDGE('',*,*,#1198,.F.);
#1637=ORIENTED_EDGE('',*,*,#1559,.T.);
#1638=EDGE_LOOP('',(#1628,#1629,#1630,#1632,#1633,#1635,#1636,#1637));
#1639=FACE_OUTER_BOUND('',#1638,.F.);
#1641=CARTESIAN_POINT('',(-1.076955262170E0,0.E0,-2.6E0));
#1642=DIRECTION('',(-7.071067811865E-1,0.E0,-7.071067811865E-1));
#1643=DIRECTION('',(-7.071067811865E-1,0.E0,7.071067811865E-1));
#1644=AXIS2_PLACEMENT_3D('',#1641,#1642,#1643);
#1645=PLANE('',#1644);
#1646=ORIENTED_EDGE('',*,*,#1228,.F.);
#1647=ORIENTED_EDGE('',*,*,#1292,.T.);
#1648=ORIENTED_EDGE('',*,*,#842,.T.);
#1649=ORIENTED_EDGE('',*,*,#1631,.F.);
#1650=EDGE_LOOP('',(#1646,#1647,#1648,#1649));
#1651=FACE_OUTER_BOUND('',#1650,.F.);
#1653=CARTESIAN_POINT('',(-2.6E0,0.E0,1.076955262170E0));
#1654=DIRECTION('',(-7.071067811865E-1,0.E0,7.071067811865E-1));
#1655=DIRECTION('',(7.071067811865E-1,0.E0,7.071067811865E-1));
#1656=AXIS2_PLACEMENT_3D('',#1653,#1654,#1655);
#1657=PLANE('',#1656);
#1658=ORIENTED_EDGE('',*,*,#1200,.F.);
#1659=ORIENTED_EDGE('',*,*,#1634,.T.);
#1660=ORIENTED_EDGE('',*,*,#854,.T.);
#1661=ORIENTED_EDGE('',*,*,#1138,.F.);
#1662=EDGE_LOOP('',(#1658,#1659,#1660,#1661));
#1663=FACE_OUTER_BOUND('',#1662,.F.);
#1665=CARTESIAN_POINT('',(9.E-1,0.E0,1.85E0));
#1666=DIRECTION('',(0.E0,0.E0,-1.E0));
#1667=DIRECTION('',(-1.E0,0.E0,0.E0));
#1668=AXIS2_PLACEMENT_3D('',#1665,#1666,#1667);
#1669=PLANE('',#1668);
#1670=ORIENTED_EDGE('',*,*,#1101,.T.);
#1671=ORIENTED_EDGE('',*,*,#1122,.F.);
#1672=ORIENTED_EDGE('',*,*,#1179,.T.);
#1673=ORIENTED_EDGE('',*,*,#1445,.T.);
#1674=ORIENTED_EDGE('',*,*,#1498,.F.);
#1675=EDGE_LOOP('',(#1670,#1671,#1672,#1673,#1674));
#1676=FACE_OUTER_BOUND('',#1675,.F.);
#1678=CARTESIAN_POINT('',(9.E-1,0.E0,1.85E0));
#1679=DIRECTION('',(0.E0,0.E0,-1.E0));
#1680=DIRECTION('',(-1.E0,0.E0,0.E0));
#1681=AXIS2_PLACEMENT_3D('',#1678,#1679,#1680);
#1682=PLANE('',#1681);
#1683=ORIENTED_EDGE('',*,*,#1105,.T.);
#1684=ORIENTED_EDGE('',*,*,#1501,.T.);
#1685=ORIENTED_EDGE('',*,*,#1449,.T.);
#1686=ORIENTED_EDGE('',*,*,#1204,.T.);
#1687=ORIENTED_EDGE('',*,*,#1085,.T.);
#1688=EDGE_LOOP('',(#1683,#1684,#1685,#1686,#1687));
#1689=FACE_OUTER_BOUND('',#1688,.F.);
#1691=CLOSED_SHELL('',(#836,#866,#897,#914,#932,#950,#968,#983,#1000,#1012,
#1028,#1044,#1060,#1075,#1093,#1111,#1128,#1148,#1170,#1190,#1212,#1236,#1254,
#1266,#1279,#1299,#1313,#1329,#1347,#1362,#1376,#1390,#1407,#1426,#1439,#1455,
#1473,#1489,#1514,#1531,#1549,#1566,#1580,#1596,#1609,#1622,#1640,#1652,#1664,
#1677,#1690));
#1692=MANIFOLD_SOLID_BREP('',#1691);
#1694=DIMENSIONAL_EXPONENTS(0.E0,0.E0,0.E0,0.E0,0.E0,0.E0,0.E0);
#1696=PLANE_ANGLE_MEASURE_WITH_UNIT(PLANE_ANGLE_MEASURE(1.745329251994E-2),
#1695);
#1697=(CONVERSION_BASED_UNIT('DEGREE',#1696)NAMED_UNIT(*)PLANE_ANGLE_UNIT());
#1699=UNCERTAINTY_MEASURE_WITH_UNIT(LENGTH_MEASURE(3.278588113381E-4),#1693,
'closure',
'Maximum model space distance between geometric entities at asserted connectivities');
#1702=APPLICATION_CONTEXT(
'CONFIGURATION CONTROLLED 3D DESIGNS OF MECHANICAL PARTS AND ASSEMBLIES');
#1703=APPLICATION_PROTOCOL_DEFINITION('international standard',
'config_control_design',1994,#1702);
#1704=DESIGN_CONTEXT('',#1702,'design');
#1705=MECHANICAL_CONTEXT('',#1702,'mechanical');
#1706=PRODUCT('SRU5028','SRU5028','NOT SPECIFIED',(#1705));
#1707=PRODUCT_DEFINITION_FORMATION_WITH_SPECIFIED_SOURCE('2','LAST_VERSION',
#1706,.MADE.);
#1711=PRODUCT_CATEGORY('part','');
#1712=PRODUCT_RELATED_PRODUCT_CATEGORY('detail','',(#1706));
#1713=PRODUCT_CATEGORY_RELATIONSHIP('','',#1711,#1712);
#1714=SECURITY_CLASSIFICATION_LEVEL('unclassified');
#1715=SECURITY_CLASSIFICATION('','',#1714);
#1716=CC_DESIGN_SECURITY_CLASSIFICATION(#1715,(#1707));
#1717=APPROVAL_STATUS('approved');
#1718=APPROVAL(#1717,'');
#1719=CC_DESIGN_APPROVAL(#1718,(#1715,#1707,#1708));
#1720=CALENDAR_DATE(112,13,7);
#1721=COORDINATED_UNIVERSAL_TIME_OFFSET(7,0,.BEHIND.);
#1722=LOCAL_TIME(9,27,4.E1,#1721);
#1723=DATE_AND_TIME(#1720,#1722);
#1724=APPROVAL_DATE_TIME(#1723,#1718);
#1725=DATE_TIME_ROLE('creation_date');
#1726=CC_DESIGN_DATE_AND_TIME_ASSIGNMENT(#1723,#1725,(#1708));
#1727=DATE_TIME_ROLE('classification_date');
#1728=CC_DESIGN_DATE_AND_TIME_ASSIGNMENT(#1723,#1727,(#1715));
#1729=PERSON('UNSPECIFIED','UNSPECIFIED',$,$,$,$);
#1730=ORGANIZATION('UNSPECIFIED','UNSPECIFIED','UNSPECIFIED');
#1731=PERSON_AND_ORGANIZATION(#1729,#1730);
#1732=APPROVAL_ROLE('approver');
#1733=APPROVAL_PERSON_ORGANIZATION(#1731,#1718,#1732);
#1734=PERSON_AND_ORGANIZATION_ROLE('creator');
#1735=CC_DESIGN_PERSON_AND_ORGANIZATION_ASSIGNMENT(#1731,#1734,(#1707,#1708));
#1736=PERSON_AND_ORGANIZATION_ROLE('design_supplier');
#1737=CC_DESIGN_PERSON_AND_ORGANIZATION_ASSIGNMENT(#1731,#1736,(#1707));
#1738=PERSON_AND_ORGANIZATION_ROLE('classification_officer');
#1739=CC_DESIGN_PERSON_AND_ORGANIZATION_ASSIGNMENT(#1731,#1738,(#1715));
#1740=PERSON_AND_ORGANIZATION_ROLE('design_owner');
#1741=CC_DESIGN_PERSON_AND_ORGANIZATION_ASSIGNMENT(#1731,#1740,(#1706));
#5=CIRCLE('',#4,1.9E0);
#10=CIRCLE('',#9,1.9E0);
#15=CIRCLE('',#14,1.95E0);
#20=CIRCLE('',#19,1.95E0);
#57=CIRCLE('',#56,1.9E0);
#66=CIRCLE('',#65,1.9E0);
#71=CIRCLE('',#70,1.9E0);
#244=CIRCLE('',#243,1.95E0);
#257=CIRCLE('',#256,1.95E0);
#310=CIRCLE('',#309,1.95E0);
#323=CIRCLE('',#322,1.95E0);
#460=CIRCLE('',#459,1.95E0);
#465=CIRCLE('',#464,1.95E0);
#470=CIRCLE('',#469,1.95E0);
#479=CIRCLE('',#478,1.95E0);
#484=CIRCLE('',#483,1.95E0);
#489=CIRCLE('',#488,1.95E0);
#498=CIRCLE('',#497,1.9E0);
#503=CIRCLE('',#502,1.9E0);
#512=CIRCLE('',#511,1.9E0);
#521=CIRCLE('',#520,1.9E0);
#530=CIRCLE('',#529,1.9E0);
#539=CIRCLE('',#538,1.9E0);
#548=CIRCLE('',#547,1.9E0);
#830=EDGE_CURVE('',#652,#651,#5,.T.);
#832=EDGE_CURVE('',#651,#652,#10,.T.);
#836=ADVANCED_FACE('',(#835),#829,.T.);
#842=EDGE_CURVE('',#659,#660,#24,.T.);
#844=EDGE_CURVE('',#672,#659,#28,.T.);
#846=EDGE_CURVE('',#670,#672,#32,.T.);
#848=EDGE_CURVE('',#668,#670,#36,.T.);
#850=EDGE_CURVE('',#666,#668,#40,.T.);
#852=EDGE_CURVE('',#664,#666,#44,.T.);
#854=EDGE_CURVE('',#662,#664,#48,.T.);
#856=EDGE_CURVE('',#660,#662,#52,.T.);
#860=EDGE_CURVE('',#656,#655,#15,.T.);
#862=EDGE_CURVE('',#655,#656,#20,.T.);
#866=ADVANCED_FACE('',(#859,#865),#841,.T.);
#872=EDGE_CURVE('',#758,#714,#83,.T.);
#874=EDGE_CURVE('',#714,#712,#57,.T.);
#876=EDGE_CURVE('',#712,#652,#61,.T.);
#879=EDGE_CURVE('',#710,#651,#507,.T.);
#881=EDGE_CURVE('',#710,#720,#66,.T.);
#883=EDGE_CURVE('',#792,#720,#592,.T.);
#885=EDGE_CURVE('',#810,#792,#530,.T.);
#887=EDGE_CURVE('',#810,#738,#415,.T.);
#889=EDGE_CURVE('',#738,#740,#71,.T.);
#891=EDGE_CURVE('',#812,#740,#423,.T.);
#893=EDGE_CURVE('',#758,#812,#521,.T.);
#897=ADVANCED_FACE('',(#896),#871,.T.);
#903=EDGE_CURVE('',#758,#756,#75,.T.);
#905=EDGE_CURVE('',#676,#756,#79,.T.);
#907=EDGE_CURVE('',#676,#678,#248,.T.);
#909=EDGE_CURVE('',#678,#714,#427,.T.);
#914=ADVANCED_FACE('',(#913),#902,.T.);
#920=EDGE_CURVE('',#762,#760,#87,.T.);
#922=EDGE_CURVE('',#760,#716,#91,.T.);
#924=EDGE_CURVE('',#716,#681,#431,.T.);
#926=EDGE_CURVE('',#681,#682,#252,.T.);
#928=EDGE_CURVE('',#682,#762,#115,.T.);
#932=ADVANCED_FACE('',(#931),#919,.T.);
#938=EDGE_CURVE('',#755,#756,#103,.T.);
#941=EDGE_CURVE('',#760,#758,#516,.T.);
#944=EDGE_CURVE('',#762,#764,#111,.T.);
#946=EDGE_CURVE('',#764,#755,#127,.T.);
#950=ADVANCED_FACE('',(#949),#937,.T.);
#956=EDGE_CURVE('',#750,#752,#95,.T.);
#958=EDGE_CURVE('',#675,#750,#99,.T.);
#960=EDGE_CURVE('',#675,#676,#219,.T.);
#964=EDGE_CURVE('',#752,#755,#123,.T.);
#968=ADVANCED_FACE('',(#967),#955,.T.);
#974=EDGE_CURVE('',#747,#748,#107,.T.);
#976=EDGE_CURVE('',#750,#748,#351,.T.);
#979=EDGE_CURVE('',#752,#747,#119,.T.);
#983=ADVANCED_FACE('',(#982),#973,.T.);
#990=EDGE_CURVE('',#764,#747,#131,.T.);
#994=EDGE_CURVE('',#684,#682,#281,.T.);
#996=EDGE_CURVE('',#684,#748,#355,.T.);
#1000=ADVANCED_FACE('',(#999),#988,.T.);
#1012=ADVANCED_FACE('',(#1011),#1005,.F.);
#1018=EDGE_CURVE('',#772,#767,#135,.T.);
#1020=EDGE_CURVE('',#772,#775,#139,.T.);
#1022=EDGE_CURVE('',#784,#775,#143,.T.);
#1024=EDGE_CURVE('',#784,#767,#147,.T.);
#1028=ADVANCED_FACE('',(#1027),#1017,.F.);
#1034=EDGE_CURVE('',#796,#787,#151,.T.);
#1036=EDGE_CURVE('',#796,#799,#155,.T.);
#1038=EDGE_CURVE('',#804,#799,#159,.T.);
#1040=EDGE_CURVE('',#804,#787,#163,.T.);
#1044=ADVANCED_FACE('',(#1043),#1033,.F.);
#1050=EDGE_CURVE('',#816,#807,#167,.T.);
#1052=EDGE_CURVE('',#816,#819,#171,.T.);
#1054=EDGE_CURVE('',#824,#819,#175,.T.);
#1056=EDGE_CURVE('',#824,#807,#179,.T.);
#1060=ADVANCED_FACE('',(#1059),#1049,.F.);
#1066=EDGE_CURVE('',#767,#768,#183,.T.);
#1068=EDGE_CURVE('',#770,#768,#207,.T.);
#1070=EDGE_CURVE('',#770,#772,#195,.T.);
#1075=ADVANCED_FACE('',(#1074),#1065,.T.);
#1083=EDGE_CURVE('',#782,#784,#187,.T.);
#1085=EDGE_CURVE('',#734,#782,#191,.T.);
#1087=EDGE_CURVE('',#736,#734,#301,.T.);
#1089=EDGE_CURVE('',#736,#768,#211,.T.);
#1093=ADVANCED_FACE('',(#1092),#1080,.T.);
#1099=EDGE_CURVE('',#775,#776,#203,.T.);
#1101=EDGE_CURVE('',#778,#776,#616,.T.);
#1103=EDGE_CURVE('',#780,#778,#543,.T.);
#1105=EDGE_CURVE('',#782,#780,#628,.T.);
#1111=ADVANCED_FACE('',(#1110),#1098,.T.);
#1118=EDGE_CURVE('',#731,#770,#199,.T.);
#1120=EDGE_CURVE('',#731,#732,#265,.T.);
#1122=EDGE_CURVE('',#732,#776,#620,.T.);
#1128=ADVANCED_FACE('',(#1127),#1116,.T.);
#1136=EDGE_CURVE('',#640,#736,#297,.T.);
#1138=EDGE_CURVE('',#640,#664,#215,.T.);
#1141=EDGE_CURVE('',#643,#666,#363,.T.);
#1143=EDGE_CURVE('',#731,#643,#269,.T.);
#1148=ADVANCED_FACE('',(#1147),#1133,.T.);
#1155=EDGE_CURVE('',#675,#647,#223,.T.);
#1157=EDGE_CURVE('',#647,#648,#227,.T.);
#1159=EDGE_CURVE('',#648,#728,#231,.T.);
#1161=EDGE_CURVE('',#728,#726,#235,.T.);
#1163=EDGE_CURVE('',#702,#726,#239,.T.);
#1165=EDGE_CURVE('',#702,#678,#244,.T.);
#1170=ADVANCED_FACE('',(#1169),#1153,.F.);
#1177=EDGE_CURVE('',#681,#707,#257,.T.);
#1179=EDGE_CURVE('',#732,#707,#261,.T.);
#1183=EDGE_CURVE('',#643,#644,#273,.T.);
#1185=EDGE_CURVE('',#644,#684,#277,.T.);
#1190=ADVANCED_FACE('',(#1189),#1175,.F.);
#1196=EDGE_CURVE('',#687,#688,#285,.T.);
#1198=EDGE_CURVE('',#687,#639,#289,.T.);
#1200=EDGE_CURVE('',#639,#640,#293,.T.);
#1204=EDGE_CURVE('',#708,#734,#305,.T.);
#1206=EDGE_CURVE('',#708,#690,#310,.T.);
#1208=EDGE_CURVE('',#688,#690,#314,.T.);
#1212=ADVANCED_FACE('',(#1211),#1195,.F.);
#1218=EDGE_CURVE('',#693,#694,#318,.T.);
#1220=EDGE_CURVE('',#693,#701,#323,.T.);
#1222=EDGE_CURVE('',#724,#701,#327,.T.);
#1224=EDGE_CURVE('',#723,#724,#331,.T.);
#1226=EDGE_CURVE('',#723,#635,#335,.T.);
#1228=EDGE_CURVE('',#635,#636,#339,.T.);
#1230=EDGE_CURVE('',#636,#696,#343,.T.);
#1232=EDGE_CURVE('',#696,#694,#347,.T.);
#1236=ADVANCED_FACE('',(#1235),#1217,.F.);
#1245=EDGE_CURVE('',#644,#668,#359,.T.);
#1248=EDGE_CURVE('',#647,#670,#367,.T.);
#1254=ADVANCED_FACE('',(#1253),#1241,.T.);
#1266=ADVANCED_FACE('',(#1265),#1259,.T.);
#1275=EDGE_CURVE('',#648,#672,#379,.T.);
#1279=ADVANCED_FACE('',(#1278),#1271,.T.);
#1285=EDGE_CURVE('',#822,#820,#371,.T.);
#1287=EDGE_CURVE('',#728,#820,#375,.T.);
#1292=EDGE_CURVE('',#635,#659,#608,.T.);
#1295=EDGE_CURVE('',#723,#822,#403,.T.);
#1299=ADVANCED_FACE('',(#1298),#1284,.T.);
#1305=EDGE_CURVE('',#819,#820,#391,.T.);
#1308=EDGE_CURVE('',#822,#824,#399,.T.);
#1313=ADVANCED_FACE('',(#1312),#1304,.T.);
#1319=EDGE_CURVE('',#814,#816,#383,.T.);
#1321=EDGE_CURVE('',#726,#814,#387,.T.);
#1329=ADVANCED_FACE('',(#1328),#1318,.T.);
#1335=EDGE_CURVE('',#807,#808,#395,.T.);
#1337=EDGE_CURVE('',#810,#808,#407,.T.);
#1339=EDGE_CURVE('',#812,#810,#525,.T.);
#1341=EDGE_CURVE('',#814,#812,#419,.T.);
#1347=ADVANCED_FACE('',(#1346),#1334,.T.);
#1358=EDGE_CURVE('',#724,#808,#411,.T.);
#1362=ADVANCED_FACE('',(#1361),#1352,.T.);
#1371=EDGE_CURVE('',#701,#738,#443,.T.);
#1376=ADVANCED_FACE('',(#1375),#1367,.T.);
#1384=EDGE_CURVE('',#740,#702,#447,.T.);
#1390=ADVANCED_FACE('',(#1389),#1381,.T.);
#1397=EDGE_CURVE('',#678,#698,#460,.T.);
#1399=EDGE_CURVE('',#698,#681,#489,.T.);
#1402=EDGE_CURVE('',#712,#716,#512,.T.);
#1407=ADVANCED_FACE('',(#1406),#1395,.T.);
#1413=EDGE_CURVE('',#690,#718,#435,.T.);
#1415=EDGE_CURVE('',#690,#704,#479,.T.);
#1417=EDGE_CURVE('',#704,#693,#470,.T.);
#1419=EDGE_CURVE('',#720,#693,#439,.T.);
#1422=EDGE_CURVE('',#718,#710,#503,.T.);
#1426=ADVANCED_FACE('',(#1425),#1412,.T.);
#1433=EDGE_CURVE('',#701,#702,#465,.T.);
#1439=ADVANCED_FACE('',(#1438),#1431,.T.);
#1445=EDGE_CURVE('',#707,#742,#451,.T.);
#1447=EDGE_CURVE('',#707,#708,#484,.T.);
#1449=EDGE_CURVE('',#744,#708,#455,.T.);
#1451=EDGE_CURVE('',#742,#744,#498,.T.);
#1455=ADVANCED_FACE('',(#1454),#1444,.T.);
#1466=EDGE_CURVE('',#704,#655,#474,.T.);
#1469=EDGE_CURVE('',#698,#656,#493,.T.);
#1473=ADVANCED_FACE('',(#1472),#1460,.F.);
#1489=ADVANCED_FACE('',(#1488),#1478,.F.);
#1496=EDGE_CURVE('',#778,#760,#548,.T.);
#1498=EDGE_CURVE('',#778,#742,#624,.T.);
#1501=EDGE_CURVE('',#780,#744,#632,.T.);
#1503=EDGE_CURVE('',#790,#780,#539,.T.);
#1505=EDGE_CURVE('',#790,#718,#584,.T.);
#1514=ADVANCED_FACE('',(#1513),#1494,.T.);
#1524=EDGE_CURVE('',#792,#790,#534,.T.);
#1531=ADVANCED_FACE('',(#1530),#1519,.F.);
#1537=EDGE_CURVE('',#787,#788,#552,.T.);
#1539=EDGE_CURVE('',#790,#788,#576,.T.);
#1542=EDGE_CURVE('',#794,#792,#588,.T.);
#1544=EDGE_CURVE('',#794,#796,#564,.T.);
#1549=ADVANCED_FACE('',(#1548),#1536,.T.);
#1557=EDGE_CURVE('',#802,#804,#556,.T.);
#1559=EDGE_CURVE('',#687,#802,#560,.T.);
#1562=EDGE_CURVE('',#688,#788,#580,.T.);
#1566=ADVANCED_FACE('',(#1565),#1554,.T.);
#1572=EDGE_CURVE('',#799,#800,#572,.T.);
#1574=EDGE_CURVE('',#802,#800,#596,.T.);
#1580=ADVANCED_FACE('',(#1579),#1571,.T.);
#1587=EDGE_CURVE('',#694,#794,#568,.T.);
#1590=EDGE_CURVE('',#696,#800,#600,.T.);
#1596=ADVANCED_FACE('',(#1595),#1585,.T.);
#1609=ADVANCED_FACE('',(#1608),#1601,.T.);
#1622=ADVANCED_FACE('',(#1621),#1614,.T.);
#1631=EDGE_CURVE('',#636,#660,#604,.T.);
#1634=EDGE_CURVE('',#639,#662,#612,.T.);
#1640=ADVANCED_FACE('',(#1639),#1627,.T.);
#1652=ADVANCED_FACE('',(#1651),#1645,.T.);
#1664=ADVANCED_FACE('',(#1663),#1657,.T.);
#1677=ADVANCED_FACE('',(#1676),#1669,.T.);
#1690=ADVANCED_FACE('',(#1689),#1682,.T.);
#1693=(LENGTH_UNIT()NAMED_UNIT(*)SI_UNIT(.MILLI.,.METRE.));
#1695=(NAMED_UNIT(*)PLANE_ANGLE_UNIT()SI_UNIT($,.RADIAN.));
#1698=(NAMED_UNIT(*)SI_UNIT($,.STERADIAN.)SOLID_ANGLE_UNIT());
#1700=(GEOMETRIC_REPRESENTATION_CONTEXT(3)GLOBAL_UNCERTAINTY_ASSIGNED_CONTEXT((
#1699))GLOBAL_UNIT_ASSIGNED_CONTEXT((#1693,#1697,#1698))REPRESENTATION_CONTEXT(
'ID1','3'));
#1701=ADVANCED_BREP_SHAPE_REPRESENTATION('',(#1692),#1700);
#1708=PRODUCT_DEFINITION('design','',#1707,#1704);
#1709=PRODUCT_DEFINITION_SHAPE('','SHAPE FOR SRU5028.',#1708);
#1710=SHAPE_DEFINITION_REPRESENTATION(#1709,#1701);
ENDSEC;
END-ISO-10303-21;
